<mxfile>
    <diagram id="kRTkEOlPb3_8khEcDJD_" name="Page-1">
        <mxGraphModel dx="546" dy="230" grid="1" gridSize="10" guides="1" tooltips="1" connect="1" arrows="1" fold="1" page="1" pageScale="1" pageWidth="200" pageHeight="150" math="0" shadow="0">
            <root>
                <mxCell id="0"/>
                <mxCell id="1" parent="0"/>
                <mxCell id="2" value="" style="rounded=0;whiteSpace=wrap;html=1;strokeColor=none;fillColor=#FFFFFF;" parent="1" vertex="1">
                    <mxGeometry y="150" width="400" height="300" as="geometry"/>
                </mxCell>
                <mxCell id="uNT7YRZdrMv-DJTIks0d-1" value="" style="shape=image;verticalLabelPosition=bottom;labelBackgroundColor=#ffffff;verticalAlign=top;aspect=fixed;imageAspect=0;image=data:image/png,iVBORw0KGgoAAAANSUhEUgAAAXcAAAIICAYAAACVXK53AAAgAElEQVR4Xuy953scx5U9fDpNngEGgciMCiQlWcG2HNb2evf3aZ/3T90P79fdd39rb7CVJUqWJZESxQSSIIgwOXZ6n3OraqYxBMAgkSKBHmoEYKZDdVX3qVvn3nuuFcdxjPSV9kDaA2kPpD1wpHrASsH9SI1nejFpD6Q9kPaA9EAK7umNkPZA2gNpDxzBHkjB/QgOanpJaQ+kPZD2QAru6T2Q9kDaA2kPHMEeSMH9CA7qUbmkn8rXb1nWUenC9DqOcQ+k4H6MB/95v/QU3J/3EUrb9zz3QAruz/PoHPO2peB+zG+A9PJ/UA+k4P6Dui/d+Wn2QAruT7N302Mf9R5Iwf2oj/ALfH0puL/Ag5c2/SfvgRTcf/IhSBtwUA+k4J7eG2kPPHkPpOD+5H2X7vmUeyAF96fcwenhj3QPpOB+pIf3xb64FNxf7PFLW//T9kAK7j9t/x/zsx+gWScfW4j1vwc76enFocuRD4lzf2pnflT5vokGHLbbU2vrMb9rX5TLT8H9RRmpH7OdE4iw588RIuhPD0APs9mjYlKy+SpJSO05ts7NkSwg1kePuVWM2DbbmrOqn+r/+rvRJ3tbtH87H4S90ZEVuieaOz7eI4Pl+PIeedTk2Mmm7zPB7DdOB/X/3p565GakGx6hHkjB/QgN5iNfyiOAe2SQhtvq7QkY+wGcAPCEcvRBWZ7jz8cH5rliRCNQt2IHVmzBIrhbESI74reIYCGKLcQRQLy3LW3fx9x73DID99bEZ0mgT1royeti+5JTh/ojlnUEGzQ+ppn8DJKzMdKgPS9uL1vE4z7i76Yf5HyJ8Ri3Sx8ocbzksHH+SwzNaF4w15L8+cj3RbrhkeqBFNyP1HA+4sU8IrjLZhpBDgILwrL6by/A7wfuez9TB5Z/FsFZHYdWuxVZsAKil7LaCe5DhPBjG0FoIRgS6UM4sXqHcSTfqUkCiCJOBTFsDbZm3uGfNoAwsuA4NmzbETB2CLCyiwXXteE4jnzPjW3bgq07wbZj2ARrS1FGcj2ck2TSs2DZ/HwvurMNBtzZLjMJCqibtxkPzh8jWkhPFIeAe6iHe4/BD3WNKbg/4rNwhDdLwf0ID+6Bl/ao4D4BOknYUvbq+EAHOT+TnxtwN1asfEdUtYmREaIolrffGWLYGSD0A7HofSfCwIrQ9SN0OhGGvRiDdhdhvwU7GiB2LASWjb7vo98fYOj7iAmkhHtayQK8tgJ7odRtlIpF5PN5AWTHduDEDhDZyGY9lEsFZHMZeDkXmYwL17Vg24DnOsh6GXieK8sGAr2toZTHn5zQxqsANRL79ZHsY0Dd/DTQbFB6HxCn5b4fuHNTJwX34/hUP3DNKbgfw9vg0NpbGsEjWs2mbzToHAbuyW5Mgth+gMbPaMWKJYsQkRUhjEIMAh/DgY/N9Xu4d3MDnUZLwD/wYgw9C+1hhE43hhVmMWz0gGEbxbyFXN5DZDvoDPrY3tlBq9nCcDiUYxLkxa4WU5bWOq1zF7Mzs5iZmUE2l4NrewiDGN12X+ieSqWMbMGDl3WQzbnwPGXJl4o5zFZnMDs/KxOD57hwLCKwAnabM0DSIh9RPA+5yRLgrrbUZM5DwF2tT/ZS9Sm4H8MH+oBLTsH9GN4LTwrue7tK0ygPOEYnttJcs7HWCehhGMo7ikKEUYAgVu+B72PQG+Lrz7/BN5e+Qn17B27GglVwEWRd9CIbwzCDkjeFYauPHHwszZdRLOeEmtmp13H79h00mw0EQaAtZdJFY2cBMd52XVSrVZw4sYCZ6Sqy2Tz8YYzt+3V0uz3kC1mQsYntEI5LCoeMTYhCPoeTq6t4+ZWXMT83L1a8azuyEiDFo+gcR0DevA31YnplX19EknOXtmpwn3ByHMS5JwFeri+13I/hU/3gJafgfgxvg4MiLCat7xErk9ghQcSwjJfw4pOvJJAbK51gTsBNvgnufAexL9b7IAzhDwJ89v5n+PS9T1C7v4UcLehKDkHWwQAZOG4ZU4VZsdxLHnDm5DyKRQ+9YR8bG3dx48ZN9Ac9sc6zmSy8TEbAl/Ytrfl+vy90Ei3vubk5LC0uoVKeQRg62NjYRq3WgOvZCBFgEPQBK5TVRRAMkPFcnD17Bm+++SZWV1aQz+QUNSPA7o7Anefmm0DPnwR6A/Ji3T/kJdB+WLSMdqYK1TMZZJMAdrUGSF/HtQdScD+GI38guO/5QtEySfBI0gAEdgF37bw0USQEc2OZE8j5u+/7e0DdfK8om0is4tCKEdCqDyJ8+v5n+OSvH6G2uYV8MQdvKiu0DME9n59FJT+DYb2DSt7FS2cWkM/ZaLUbuHXrJm7fuS0TTqlcEfAulkpCyZBv73Q6uH9/C71uV66L9MvyyipOnFiBZedxb2MH97d2ZPthNMAg6ErbYjpshz04joUzZ07j7bffxsm1NQF3HsjWljsB2bFtOK4LzyVfnxmBOz8zlv3ImhcKR0OwniQNsB8UbWSiRA2wH3T7Thj9x/AuTy85BfdjdA8k/KP7X/XIoSfev1EKkQH4SAWHKCJGIgNjWFEoAB9He0GdVrIBdUXBKI6dv+/l4elKpZ0cQmxkP8KlDy/h0vufCi2Ty2fhVrLoOzH6sYticQ6lzLTQMrOlLF46cwLZLFCv7+LmzRvY2toSQF1YWMDJU6eQy2bR7nSQy+VklbB+ax33799Hr9cT631peQXLK6fgZcq4t1nD/c1tBOEQw6CvLHc7AqNkhsMBLDvG6VMn8dZbb+HUyVPIZ7MqjJERPtra5iRC69wAOZ21NiNzCPieJ2/5jha9ROzY4uw14ZAmGudAkzth0R+2AkvB/Rg92Cnnng52Etz3AwYDMCq0W4U2qn8K1ENGaCQoAZvWZhAiGvrwh0MMBoM9VvokmBuKZjwSKr49IuduqUBGfxjhsw8u4YsPL6G5s4tcMQuvkkXPjtGLHBQE3KuIukPMVXI4d/oEMhlgt7aF69dvoFavi5N0dXUF586elVNtbm6iVCqhUMjj9vpt3Fq/hXazLeC+uLyCpeU1eF4R9+83sLm5Bd/vY8B30IflxMK5D4d9mdFOnlrDW2++idMnOXHkgEj5HhzLkdWBgKp2qopNTv6dPLyr+Hiha0jbEOgznvwU6oaTAikeCd/UP/e7ZffLnt13MFNK5rg/8anlfozuAIMBBOpJvlZAKRkVI+CuQgm5n0+6xdbgLuhvwwojRIMBht0e+t2ugLuxzE1M92TkjIpB1+ePCeyhWO6xTQM4xmAQ4rP3PlXgvltDoZQbgXs3dJArzKFanEXcDTBTyuDs6RPI5mzUGju4dv0Gdnd3kclksbS0iHPnzgnQN+p1seBtx8X6+rrQN91OB8ViEcsrK1hYWIFt53B/s47792m5D9D3++gPO+JYJU0+HPZgWTFOnlwTzv3k2knkM1mZ9Qjp4kBlr5CiYRy87jehajxXQN7IGhDcLdcRKz6Ty8kKwPMysp/QOpqXV2H6h7HmhzPqabXAY/Rw73OpKbgfo/FPgvskny5RFgeAO23qIWkX20IgIKz8qLTYh+0OBq02Bv2+WO9JqzVJwRgOmZ+phYEKh2SoI7NQJVnJAgI/wmfvXcLnH3yKBsFdLPccek6MTmDBy05jvrIIqxeiknNw+uQsCqUs2r0ubt25I05VHndqagpLS8solUsIwwiubWMwGOLO3TvY2dkRyKxWp7G0vIzZmROIQwebm7vY2d5FGPnoDTvoD3uwHSYrcdLpiRV/am0NP/vZz7C2uopcJgs71mGQsCW+XAFzIlOVVjwTogTw9VeOomJozXuZLHL5HHK5PLK04jWN48iEMSZX9oPxkZ9jvwdblg3H6OZOL/WBHkjB/RjdFE8C7ox3J7gP4kjAPbQs+EwsCgMMuj0M600Mm21EfiCgakIBjWOVn5kY8MkU/DBUSUpcMoQ2QZ6GsI1L732Gz977RDj3YimP7HRewL055DYFLFZXkQ0clDLAytI0ylNFDKIQ27vk3W+h3W4L1UEahhEzjGRhGxhFU683ZHVRKZexsHAC8/MLKBZLGPZD3NvYQn23TnII3X5XaBmGQkYRk6O6cDwLp0+e1OCuHKoyKdJaJzsTMYOVFI3KaZW+iyMBco+OAclglStW4Y4uKRtX6JlCvoByqYSM642sdxXlo0IbTVTSHtmCh6F3Cu7H6Ol+8FJTcD9Gw//I4K49pgqMIxCCh1YEn5Z1DHT8IZr9DnqtNtDuwu75EP5dAx0ByDhQxxTMXnkCRdfE4qSk5R6QoiHIh8DnH3yOS7Tct3ZQLOeRmc5j4Fqo9wN0+xbmSouoZIuoFjwszBVRqpQQORZanS427m2izjh33x/x36RMxD0Q+Aj8AJlsFrNzsxKrXq5U4Fgu+p0Btrd20Wo2hXPv9joIrQBexhafwIC0DJRDlbTM2gotd4ZCKuqEnDvCCBYnOFJWnAjjWK6LkxZDMmNa75JZyiWSzVlA/ib403qfrkyhnC/IhCT8vcmo1asqNSeYLFujWnPIDZyC+zF6ulNwP9aDPQnuSoxLvUgp2MqI1lpZSiiLlmdAzp3UhBWhH4bY6bax1dxFv9VGYQgUqMkiESNjgaz9uHZazIyiaTab6HTaMgFIshDPY8cChv4wxLd/u4LvvvoW3UZLaBm3nMXAs9EYBGg0Q0limi1UMFsmIHoSURM6NgZBgGarhW63i2Doi+UskjUic6BoIIJjNptDuVJGqVRGxssgCmMMOHG0exj0euj1OugPurCcSCQISB0R8KlYtry8jAvnX8Xi4iJyXlaFQmpwd2ILThSjVCjKqsH2PAnxJKjTSg/pfLUtoZ8E6OV39b3ruSgXS5itTKNcKMoKSMA8Vho5ylk7RmslbaD/PsChqg5wrG/5Y33xqeV+jIZ/DO7KSUr2WyXnT4C7ALWKk1GBigR3oIcITb+PjdYuNms7iLp9TMcuynDhSIykjrAxMdvGsaj5dQL79vY2vv/+e/lJ0HUzDkBe2waCiCGHAWobu6hv7gqn72VcWAVHLPemH6HdjZGJCpjyCijnHBSyISyHdBH3jzAMAkSJcMsRFSQaLjwPgZKhiCpyhS9S/6EPxKFacfS7HYThEJYHOMyQ5YoiGsoqZnqqImGWlXJF5AdkMmS0DFVmQsCNYrHq19bWUKyUEblUJrNhOY60LxKfhbLYI9I0/JsrC8TIOC7mZ2YxW56WGPlk9A2pnmR4ow6+HN+9ZpY2GxlQT8H9GD3hey81BfdjNPRjcFcSugRt7eNLWO6UoB2DO0GHAo203Dvktftt3KlvY7tZhz0MMBN7KMcEtoOzVRWARhJbzmiVb7/9Vn6fnp5CsVhA7JC6YBJTjCiIEHQjoB/CJoftAmEmRt8FuiHlBzw4fgaZyEXODuBaA8RxIBZyZFkIwlDTMbaShRfemwlXSujMYJ1KrlXCxnFsIw4Za043poXAH0jGLB2ofHNJQ96dlrtL8bBMRomNic0uH4v+Wdwfotdo49TJNZy/cB4zJ+YB1xEQp/OUKxPJFdBvgjzI6dNRzXZHwHR5CnMzVVSKin8X2odRNAbc9SDuAfdJyz2pSZOC+zF6wlNwP7aDbaTAtF7iyHIXbXThdS15K2pmHOPOEMgegGYwxL1WDbdr2+j0OqA7sRq5yAexAHFSl5ydnKRmkuB+9+5diWZ56aVzmK5Oq2gZ6rZLwmsMy7fhhBZIc1h2hMCN0HeAAVxEURZW4MIJLGRiH45FOQGKj9ECVpa38NKmIMhozlEgb1QiZVVCC18clgrYo8hRfkstGM8JR8xxto/JWgR8HZ7IhCjVVwpmaWX3ay18/80ViX8/fe4MZk/MwfI8Nck4tgJ1TnQmGYzRMI6iaXzq7AQRPC+L2ZkqTszMokRRMzprxZehSRhNf/HcKnlq5NVQv4iHN1FNKgX3Y/u8p5b7MRr6B8FdAbiiFQjsKlNybLnTyaks/DaA2nCA9d0dbO5uIQwGqDguKrGDjAb3SZ2ZSd6d1vqdOyoUcXV1Fa+99hqqM1PC6xNIGR0SE7BCS/h/AU9a9E4EnzH2cBBGGViRLcDvIYJjBSIRwIZLSY2RFastdhPsrbl3qkQyM5QoHYUSpC7aMEwhCgNVCEQHqcikoeJDJRRGfqrwRAmFkegYE+POEMjWTh0fvf8But2OaM/MzhPcXaFheJ6xQ1Vn+SYcrFx5DMIIvShGuTKFk4uLOFEqI8u4dwF3vcriKkm4eK17b+5flSo7Ae4PFg85Rrf7sb/UFNyP0S2wF9xJzSgkFANVHKoqiF39U1Es3IYO1UYMbHX7WN/eQb22CzcaouLYKMKGqzBSac3o1ySw8286OgnutVpNOOnXX39NLHftwVVnNRapxlRxhEqopPouou46VxjiJ4jhaFAT61g4ElkzaJDnQfQXOttW8VBa02VUxUPxGMRvmc1kotF69aPjalJblYdSJ5LDq6gW0ib1Wg3vv/ce2u2OOF7n5mbheN7YouaEktTBl6IfqsmB0F4RtoMAbr6Il5aWcHJ6GiVms4pTVU0ObKdZMdgsapK03M1Ayma64anlfoye8JSWObaDPQZ3Bdrmb2OcCrhrt90I3K0YLHxUC2LcbXZx+/4Oeq0m8ggw5VrIAnBHPLDG132UIhkpkwR3Y7lTU91YyjIwcixTR1VBnykpp8gi9X3SbzjCL/GZHhQ6st/n+lYwCUaJO2MPJmruXpq3z/ENwAu4f/AB2q22Bvc5yUId0SVKhuaBl3FuN+MYG2GAMJPFS4uLODczg2nKFEj0v4l8oeVuS7Uqgvv4pcsAmkodpodScD+2z3tquR+joZ8Ed1PmYWTw0RJk+IY2gVX9UiYwAVuDADd3mrh7v4aw30XFiVBxyXvHQhsY7NkPS0xC00HgPqI6Rma/Odq4YIjB/D1IOSFv+yRDeQjk7z2cBvXDwJ0rkg8I7m0N7rMa3MUFoHpmv/MZcG/FwN04RN9xcGpuHi/PzWEun0UGMdzRtKbqPz0A7jpsRyZKOVVquT/J/XCU9knB/SiN5kOu5UBwN9IDD4C7qpI0iC3c6w1xdXMX97brsAMf0y5QdmIBnjG476+E8nBwf7jG+U89TAbUHwvc58aW+0ESvgbw6ddowsL9OEYbMRarVby8cAKLxQJyTIJipqvQZwrcZfWStNwNuJslTQruP/Ut85OfPwX3n3wInl0DHhvcKerFxCUL2OgMcOXOFu7tNgXQq16Mkh0py92oIR4gc5WC+9hy32+0jeXehoUtWGiGAaqVslAzK5USihZXSJFyMktJPwXukaapVICMzvhNgrt25D67Oyw90/PUAym4P0+j8ZTb8njgTkVIKjbG6NvAnVYf36xvYqvWQs4BqhkLRSuEx0SkFNyFdnmAlnlMy70DG7uwsBv4KJUKOLe8iLWpKZSZVRtF4rhmRBOdFHSuMj5+lISmi6eM/BcmHDTl3J/yU/X8Hj4F9+d3bH70lj02uDN+nOAOYL3Vw1e3NrBda6PgWZjJ2ihBgXtquauImcPAXVjwAzR4jeXehYUabOwEPnLFHM6uLAm4T9kW8lEMVyIzFS0jIm4Ed2J9rDJjqe9jgmRUQH4aCvmjP0Qv0AFTcH+BBuuHNvXxwJ1bh4hsxl4T3Lv4+/U72K63Ucq4mM05KFsR3JhCWcbNOebcJ7npw6JlHqWu6A+99h+6/w/l3CfPnwR6A+6UJqvFFnbCAJliDmdouU8bcAcywRjcA0ou6AQokjQC7oy7H4URpeD+Q8f8Rd8/BfcXfQQfo/1PAu6hHaMfAbdaHXx1/Q62ak0UPQdzeRdlWzn6kgGUhgXYTzjMJDGxoEYyFPKogHu9XpdomVar9WAo5MQ47QfutNzrsY3dMEC2mMWZpUWJdS/bFnJRjIxY7qJBiRTcH+PGP6abpuB+jAb+8cGdoZAqa5K0zNc37uL+bgN518ZczkHJjvc6VE2K/EQ8uCnMcdTBvdFo4P3335dQyKWlJSnQPYpzf0xwzxUyOLvMRKYqSjaQTYA707cocUyAN9pAkuiUWu7H6Gl++KWm4P7wPjoyWzwRuDNaBjFuN+lQvYeNnTpyNjCTsVBhKCT5XhZ41pzyo1ju5KZXVlZEfoBJTEfFck+COzNUZ2dnHxvcd2MLtcBHoZTHuWVy7tMoEtxj1dcqi9gWHR3h3DWtTqnhlHM/Mo/qj3IhKbj/KN34YhzkycEduNvu4ev1TdzdqiFrxZjN2qjQciffm4K7OEt/KLi3YwvbUYxa6GOqUhIJgrVpBe6SyKT1dkQnmKGQCYepAHvqUH0xHsRn1MoU3J9RRz8Pp/lB4N5RoZC3N7YlHX6+4KLq2fAkiUnLATwiLZNa7nsjZ0byAxHlB0I0ohAL1SpeWV7CSrks4O5SgoCWu46WUZoMep0k1ruOcx/lg6UO1efhmfsp25CC+0/Z+8/43E8E7naEPtPiuwNcvn0fN9bvwY58LBYzmMtnVIaq0ZZJwX3EuT8JLVMPI9waDkSB89TCAs4vLWKpWETOovwABeNFNmykLSOcjIlUSsoP8LNUOOwZP13P3+lScH/+xuSptehRwN0s+RWSGG2ZGBu9Ia7c2ca3128hHPSwWM5hqZRHnoqIoruyV3pAizOOSu+Jnnu/hzu3lSrkyuqYc2d1pMd/HbzPYx1tQuxl9KccJKlyqf6eDPEUBU2tDLkvLeNq4bDkBY60X9SHxnKvhSGudTvoOzbOr53E+cUFzOdzyKpy27KtkR+wRRZ5H1XIpHDYAXH1j9/X6R4vYg+k4P4ijtoTtnkE7ixGbcRmzcpenHUqkd1gmkVwF1XIGFt9H1c2tvHl99fQ6TQxX8pjdbqEKctBVmvAG/laU7hTjEmtlEvN9l6vi9t37qJW38Xy6rJ2qFal9N3hr/H3RhVysjjoKOv+UcuGJkE98bs018j9yu/6Sz1bSV3WkYiXmtJsVkmyLNQbdXzw/odaOGwJsxQOc7y9amEjNmWvkBjLhtCRerXVRJTL4vUzZ/DqwgKqmYzQYFqAWCx3VdLvEHBPLfcnfEKO1m4puB+t8Tz0agy4q/Jy+t+EaqzRc1ea4cpS9aNYYq+v7e7go6vf4nZtC/liFqemp7DmZlANHNE9iaGqDUnBDV38Q6o7hZQyiNDtd3H77h3sNHawdHIZF16/gOoMwd3Yrxr5dHxfUt5X8cumscnf1SWPY+0fsSa0AXSD1QkMp7+Sk5pAqtaTV6fWM5UR8TJFTrTlXq838MH7H41UIeerc3AJ7olFwEi+2LJGlbB4PgqH7fa7uNtpolidxoXTZ3Bydg5F6rmrMiRyGBXlfgi4jzoiVYU8Ro/2vpeagvsxugNGWZYjS3CslS4YJ/ihNAcFlHWhVdb+bEU+brYa+N/vL+PS5jr6noWz1Wm8kS1jNcrACxW4E2ZZLk8szNiRwtlynDgUcL+1cRvbzW0B9/OvX8D03DQs22jL63JDRMBRkQ1N+MjqQK0qxmru48GTNYcOC3zYOiAJtqMFTKKgLMsKMnmLPwXkWeWJ3kxNj3DS459kQFSVJAW4tVoDH77/IVotVaxjvjoP12ERbn1dCZs/tmypLuWzGIpjoR8F2Gk10Bv2Zd9zqycxPz2lKzEZHUj2rv6dlrsusyeLi7QS0zF6kh/tUlNwf7R+OhpbGU1yDe4Eq1E9zwTwSNk9FoMIWeyTFmyMfhzhTq+J/7l+Bf996zvc9btYLU/h3cocXvbKKEaulL4TII8U2AkXras0hVGE7kCB+25zB8srGtznpxG7qsyesvhVRQsdOa8xS4Ejy+sp4FZWqcEz/ingriNFHhvcOQGFEMewsNs2ENgEXUjhbQI9wZ369rTeRXqX8f0T4N7YbeL99z5Es93G4vKKxLk7jqurVJmKfeToHYS2jb4Vo8fC3xZQH/axU9tGJevh1ZOncPLEEsqFgoSZsi9VIcAxuEuBFc25qz4zXu3EMsZ0zNG4e9OreMweSMH9MTvshd58VEVI0QsKthMFmw1wEtxZoFqwTJWs860YW4MuPrj1Hf7vd3/H5doWKoUSfj63jIvleVSdLPKhBW8YSjw2CzuTbuEZCI60ULv9Pm7dpUN1F2vLy7j42kVMzU8h9FQmrEC75u+VVaqLdUu9UEO+mBqv44lDbGpVFlVQ/nHBncd2NLjzLDTiQydGYAGBE0vBEgF4A+56etljucc2mjtNoWVq7TYWVpZRnZ+F7RKWY+lLtYph0W8XvmWjYwMt10LNioWOaTR2cWF2Dm+dOo2lqSpymYxeFTgizqbq3Jpi5oakGRvto3tzVLDjUR0QL/RdnTb+gB5Iwf043RoG3LVT0PDupnQomV0V3qKAXfTDpRA0ECBG3e/hb3du4U+X/4bP795EbDt4+cQaXp1fxnKhgunYQW7gIxNG8KTwdIzAjuQ9sIB2b4D1O3fR2Gng5DKjZS5iem4KQSYUy53IbgBdRYIocFf8vwJ3cdLqMnzClGgm3BSQmghEOXh0E5w7MZuKiywXyP1ZM5aAHmgLXiga0jPsENZX1fy3quOqaRkB9xbef+8jNDptLKwuY2p+BnZGrTbYn1LHW/smhraDjuOg5gB3gwGuN+sIe1388fQZ/HLtJGbyRTiOWsG4cBKWuzqnqXQrEK/8reNXCu7H6ak+8FpTcD9Ot8EI0LRjUFdR5ccCaMZPScud1IiOdrHCGOTd20Ef32/dw1+/+RKfXLuC2mCI2eoCTp1YxemZeSxkC6hEITJBAA8BbIt0SwTfIbccod0bYv32Buo7TZxcXsVrF17D9PwUIiKrDqsxEYjC+WsgNwErEuOtLXtLUzhm5fGAv/Uh4zpaxEiUEMRnYOL1yUYRzAnuxmpX4M7p0PSdpoIsKKs6ttHYaeHD9z9Cs93C4soyZuarcFyW8VYWNH0RUcSC4zYGroeOZUtB7BvtFm41apjyHPw/Fy7ineUVlL2MnkgsuLENkjs6lkk5jyWnQNNYKbgfp6f4ka81BfdH7qojsGES3JPRIQR3AbRR+T4W/fUAACAASURBVFQBOr6FMyfvHkUYhAHu1Xdx6eplfPTNV7i1U4OVL2F6Zh4rs/M4OTMrNT+zcQQv9uHFoeid0NolqHX7AwH33d0mlldWcfHCa6jOTcEij6OLQI+AXHh3RcGMCAguLDS4q6geZbByk9HEZPJ3HhHcdfPUKkUmE1rpqi/IvdOZqhyrao0gEUeyk2b+uUKxVGpRs9YUh2q72cLq0jLmZ2fgupJ+JBPF0LKkqlXfttG1bTT8ANvtDu7VG2j3+jg3P4f/c/ECXpmfR07TOSrqSFnwB4K74tjGryQv9Ugc1RG4t9NLeKAHUnA/TjeFAYDIhPQpYBTLXQOayWhXtAyVBgmoMawgQhhHaPa6uHzzGj7++5e4sn4bLfIh+RKmqtNYXVrA8nwVhYyHXBwhF8fIhqEoRyKMMOj1Bdy3aw0srKzg/GuvYXZ2Gh75cikalwh2NKidTI8i2pvPTUM1uI8CbJ4A3OUWGIWvayezcOzawWpi0wXXdd9Zqr0k+il8Rr6/Xqvjww8+xKDZxqkTS1icnkfGdhFYtiQmtV2g7VpoukDD97HbbMk+/VYXZcfDW+dewjsvn8XCVBmerbh6ThxmlaKIKfNWEUUPxe6HbnCcHoDjda0puB+n8R6Bu7Y+E1iprFWlMqh4XDoBWbdThf0R3ClUNfCHuL1xF198/RW+unYDm+0u2gSZQg7VuVmcWDqB6lQJlUwOJcdBIYqRDyK4QQS/18Pt29SEr2Hh5ArOv34RszNVZGILnmCmJr33GKKqQcppao2CQpJuU4NfJiHzURIzR+6HcfS6JlwMqOusAHNwEyuqxbm4gpAIRJsOUprvwHazJvIDg0YLp+dXsDx1Alk7i8By0XFt1JwYdTfGbuxju91EvbaLoN5CMYhxpjqDX158HafXlpDPZ9WEocM7zSrFWO46VujAyk57bukU3I/TE7536OP9yrkf2+444hduqBiSv4mlPC1UQ0WwNqeAVhSNwZ064Tp1M4xC1Os1XLt5A19dvYrvNu7hfq+HvmvDzuVQnK2KjO/c9DSqhRIqjotSxCpCEYJeDxt31rGzu43FtRW89sZFzFZnkIkscWhKFuY4JHxspIt1rqWx+FNb0oafF7DT88J+leUOu8WFszfWPycPcwsQxPXvsnJhn0mkCjNSE42kAU3pXdfC/dYO/vf9v6LbaOHkiVUsTy8iaxcQ2C5ato2taIitcIB7/RZ2mzX4zSYKwyFWMnm8vrKGty5cxKw4YZ2RVW5sc9MWowtmZA8eesem4P7QLjqqG6SW+1Ed2f2uy2B6gp81bITkKyWFBmm1sz6qADvlZJX5TKAc9HvY2d3Btzdv4IvvvsONrS10+DnN4XwehVIZ01NVzE5XMVuuoJLJIsvd+z1s3llHbWsTy4tzuHD+PGanZ+AxMkaSoEwOraaQ2R7Dd2tQF3beGX8vYCuhm2MwftwhlYmDhS/MqkW5CXTCkOb+dT9I5I6pQs3+kHrVBHcbm50d/PfHLNbRweryKczPLMGxsxgEFhpBiC1ef7uBnU4Dw34H2WCIGcfGS9Uq3jpzDufOnEGpUgIcgrusn9QqKnFBowlHa9o89FpTcH9oFx3VDVJwP6oju891JamI5NfGejUWrACKZGFS8ZEhHkorXMI9hD4P0R/0sb65gUvffI1vrl9Ho9ND348Q2g4i20MmX0R5uopKdQqVqQpK2SzscIj65gZqd+9iOpfFmZUVVMsVWPRYxirqfgzvWtFWp50qa52WvSoKraJjFPCaGPIkZz95+aas3WSRahPJwuMqJ6l2XBppAU4eOiyU3LdYzmK500ugfRYC7sDOoIWPL38J37KwfOosKrMn4EcOmt0BdlsdtDpdtNotDPs9ZBFiyrWxUCrglZVFvH72LBbmTyCby0qS07gY6t4r2QP0D+OfUmA/Rk/3g5eagvsxGv5RsIzmixOh3mOWZmS9Kl5eikCIyU7AV7KzkpgURdht1nH56lX87ZtvcO/eNvo9H2FkYRgyu9NDXMjBLhWQmSqhXC6h4HkIex30t7ZRCCPMFQvIexnQv0ugJPAqeNfytuIzVJ/JFkZ6RiGs4J9orUg4o15d7DOeSUCfrF062pw6OnJUFWsvqwEdpWLi7Anu0hsxS4erNkekcgjujoVWMMDNnftwyiVMrywDxRIagyHqzQ6ajRYwGMIdBuJorrg2TpSLWFuYxbmTqzi5uoxysQjPcWFbI4X8Q+/OyYnqgY1TcD9GT3cK7sd6sEf+VN0Lk+HRY46ZG2hr3USH6HASMVppZcdAv9/H3XubuHLlW1z//iZqO3UMhyEGYYQuYnSYYu/Z8Kn7XiigXMyj7DGTFShbFiquJ+n1YpXbgEP9AIYgRiH/NxYDkwlmHE0zEpGkH1M7Oo2Dc5LGGOnp6GXLfoA43kafw6T262xQFY6pgD3UCV0BmJylqiHFNgXTLAyCGM3+AFE+i7CQRdOKRAys0+0CvQGKMVABRElzJp/D2ol5nDm1huW1JUxXp+G5LjxLqz4mYocOxOjUcj/Wz/PDLj613B/WQ0fo+yS4J6kYA4gmtd3EpwjoJRUkCW8aaYSlCUJ0ml1sbmzixvc38P21a9ipN9Dxh+hRBdK2JASwZ1uSbu+6HorZPKayRcwUS5guFVEo5JDNefCyLjIZFzaROwyAgJE6kRLnsrSOSxxLFqmJRxcaRZQrjVP0QY6a15B0qO5v7Y6jdBQlZRQxTSiNBnbLkpBR3wKGNjCA8jMMwwjBMEbQCdFrDdDo9dAI+uhiiIE1RBT5yCJCxbJQioGy42K5OoOzp05h7eRJVOdmkOEqx7LgMTs4qa1jBmc/hE/B/Qg9nT/+paTg/uP36XN7xElwN9RCEtxHtR5GoKiY8IDZpsLNGHEvJbaFQYxBu4d79zbx1eXL+Hb9GrZadXSDQKke2g6C2IJPfZrYRhBacO0ssrkiipUipqgJP0vaJodSMY9cxoOrHbleDFAw1xPQo0QAwT0WHRhDF4nFzvlAW88PBn6rqx5lpE7EwRuHssgXyMJhLEimVihqzcAQ0aFMUupnz4rRjnw0Bn00O3306wOE2z6i3SF6vR6CaAh4AWwvgOOEyDsRSp6DkudiulDEqZVVnD59BvPzC8gVCrA9V5y44j8Y6V4ajkwHtz/oSDj8Xktpmef2WXwWDUvB/Vn08nNyjoMsd8U1q4zUkSyJWO2K/6Yjk+n3e6JZtHKkM2AUTIB2t4ObG7fx5dXLuHV/A41OC33fh08t98iW/NMgttEPIT8j20XoOXByLnKlLEpTBUyVS6gUCyhmcyi4Hgqui6zrIGs7YtHSahdwNxw7Y/ANU85ol0Qo4zh/VQG7kkhTL/PdqD+orU6ZXx7DiJXpbUPxI8fw41hkeftBgE4QoOkPUBv0UO/20Gx34bcGyNYt5NrMzgVcL4bjhnDcAJ4bIWtHKBezmJuZxvLCAlaXV7FwYhGFYhmO68FylJyxJI8lWql/NR/uvZNSy/05ebKez2ak4P58jstTadV+nLtRSjGx4qNaD9pyF+emdmSKrrmyg1XMNzXFfUsSnPzQR73bwvrmXaxv3MXdzQ1sbW+j0+4i9COxgEPQ2ap0bHxYQmv0Qe0ZC3Yug1wui0I+h3KhJHK3pXweRcbO53LIko+2HWQcKiTa6j3K1lRhkDqAZm9yD4XPRgmoqvXcl4DNt5IusKUNtMipoROLEmaMiHRLEMIPfAyHPtq9rrypbtkZDNEZDNAdDOU7exigPLBRDC0UHBsZxv3bsVjt2YyNYs7D/NwMVleXpcTg7MwsChQHc6n8aCsxeiOStp+Y46jwdeLWSMH9qTwnR+WgKbgflZF8hOtIhLePs+2T+5lEoASAKypGbaSUG/XLkPZi2qoY9SAK0KE1W69j494Gbq/fxt2NDdR26wj8AH4UIggpYwABUYJ8LwI6sATsWWqOtng2l0Eml0UmS8DPoVgsolAsIJPNIsOY+WwGXiaDrOeJE9LVnDzFtSTByNY/9TwkrdMx+vI1KZyIEw7LDaqKSAMAfcbqk04aDOU9GAxEMmHY62PQ74sDedDpIhj6QqGMrHwrhhfFKEYRiraFvOfAdbg+iOFmHFQrFZw4MY+VlWUsLCxIklc+n4NNiQEBaOVINquKw0I699JOD+FdUlrmEZ6Ko7tJCu5Hd2wPvLIkyB+0kcGFZNz5nm01WCqnqwZ/XUB6OBxKqbn79+9j/fZtrN9aR7PZkM/6gwHCMBJwDSI6I230ycWTkw9DDKNQwgv5phwCCJS5DNxcFm42CzefhZPNyO+ZXA45Ar3QN55Y9lLcwnFgO7pYiIlfV2E+0lBa7EHgi1VOQbMwDOH7inLx/SH83gDD/gD+YIBgMEQwGCAeBuJAtihnDAsZh0K86hyebSHnWOI0zdkRPMdGNuOhUChgZnYGS4uLUl2JoM6JKpPJSBv3c+6O4vEPUo1JAfsYPrFPdskpuD9Zvx3rvZQyogqJFOPYgKYWJCNAETDpWNzd3RWQ39rakp87OzvodDpiFft+iMAH/IDHUNb0kECLCMM4ksLcVFMMXQuhY0sWaOSxihGThly4GU8seIe/e55UPWKREMrsjgFeATDDLCVyhpK7USBUi4A7fQJhCPg+4oBROr6AOKN1KMHA7FzG0BsunPK+OUdRREZJkhRM1nORcSzkMzbKpSKmp6bFWl9YXMT83BympqbgSRtJJmnJXl17NRnNw1WF+f5Y32Tpxf/gHkjB/Qd34fE8gAkxTAK8+V2pJFoC1r7vC53RaDQE3Dc2NuQnqZtOu4NB14ffDxFSdZLcfRyIRc/KTUZTXeqMkpsX2dwYfZkAYliUxbVsoXgI+JbQHLZY70LPGM1z+VUJcUkCVhgiIC1D8GZ4pW1JcREPDL1UQmmuZclE4VoOMlwNCMevMlRJ//BzxqS7tiOrh0I2i1whg+mpCpYWF4R+mZ+fR6VSQZYrDpdF+dREONlPyTtIdNr1+3jeWelV/1g9kIL7j9WTx+w4SXDfL45cMkvplIwiBaZBIJZ8q9USa357exs72zuo7zbQrncE6Lu9HgbDoWS/CmDHEQL95u/UvvFjOm9D0Vln0dQgDNEfDhGIc1TV2hOZ3DELo2QFdAinScBiu7j8cB0FztmsKzw5/Zq0zjkVOLYGcdI9AvQEedIwDrJeBoVMVqiXCrV0piuoTE+hWq1K7VRKLtBfQGudk52x2HneJLib2yYpj5CC+zF7mJ7S5abg/pQ69qgf1oC7Akn1SoJSEvCTEwGBnpQM+fd6vYHaTg3b97exs7WNrZ1dNFsNDPoD5YClhS70SaAmCgZmSuEQluVTVY16gz5anfaIqxdrXYP7njEwTmFdE1bahBgZL4NSuYhSuQCHoZlar0ZFDVkC/p7tIsNoHcdFToN6pUxxNAXmc7OzmJmbQ6lclph14dRdJmSNeX9DtxykUJmC+1F/Yp799aXg/uz7/EiccT/L3YD7fgCW/EwiVcivD4fo9/rotDpC29R2d1Gr1bC7syuyws1mSxQW+/2eADyjW0yIIq1xWu3NdlM0bnrBUKJeRkWydZigcgeosEcTwqk+UfGG+WwO1ZkqZpj+T07c1G2VFYCNjOchl82hWMijWpnCVGVKxM5mqjMC7OVyGcVCUUDdyXiymrASoJ6c9MxqxtwAkxTN5LZH4kZJL+In64EU3H+yrn+xT7wf127AafLKJsHegJwB6sgPMPSHEqHS7XRQq9exWyPQ72J3tyaA3+600WNIIqNZfF8lFgW+1CtttBvoBn0JtaR1r+LdFS+jYtZVhIxyBEewGE0jxTAsCUmcma6iOjWNnJeFZ9FCd+C5HvK5vAie0Rk6XZlSjtFKBeVSCaViCfl8XiQVXIp9Oc44iUpPLJPRMA8oUk7w7/utgF7suyRt/U/ZAym4/5S9/4KfO2l5Ji9lj/JiMu8/sdHIihVJSCUnHIV0rIYYBj56gx66vS6arSbqjYaAOLNgW70uehJp46PdoYxuC71+D+1uS36n1Sxct0vhAp1lqxOZxNoPfPS7fbGwCc7clklT1UoV5UIRBS8n1jy59FKxKJY6naIlAfSixN7z2HSQMk59JAGsi6qOVOUfMWSRfbifauVDFR9f8Hsnbf7T74EU3J9+Hx/ZMxzEHxsL/rDvpVNGGvEE97GjUeVHxQhCXxysvWEfg6GPnj9AnxY+38MAtUYNzVZLKJvtrU3c27iLUqmM+bl55KnXkuDZDRXT7XawfvOWJDoxoqVULCObyUroYrUyjUKO+jZZoWKy2ZxkzeayWR3GqIXNNKf/oEyZ5noSPx538FNQf9weS7c/qAdScE/vjWfeA6OiIUJLaEEyKf2n5AAENElt6KgZcu0SOUPunJEyjKQJQ+zW6lL8wh/6uHX9Bq5/fw3V6WlJGCqXyiq2XR1VKBju02w2ceXyZbiei3Nnz0m4IjNfK+TTp6cEyB3bVXHyFiUE+B4XwTY68od3mhZXe0Tr/ZkPQHrCY9EDKbgfi2F+/i7SiHmJk1SV55DadkbEzGjdqJbrPFldUENR5xEajaY4X2v1Br7/7ipu3rglMeXV6SkUCkU4NqPWR2o4MjF0ex3cvn1XHKVnTp/G6toaZudmJZOU3Homw/xTLQAwAmedgmvCLA/KHt1DOz1/fZ626Hj1QArux2u8n5urFepFKhopi5xvI/xFusboq4gSr65pqgRilGVPR+nu9g6ufX8N127cxPrGPTSEogklzp1ZqiPx+YnkISZVMZySUS4rq6u4eOECXnn5nES/CLibUBpdB1sFYer4dyZDPYJFbgpbPzcdnjbk2PVACu4v0pAfIAqz78eCgJMXt9+WY+b4wOOMDjMhHPYD+06KcjMpCcw4VQWpWZhDtVsrOOqMUAIu49q1pLzIAmzcvo1PPv0UX31zBa1+D06GJfvGmvPC9EiBEdIqKmOWL/6kBAKjb6anp/GLd97Gb959FycW5uF5mXE4pWGH1FFkUtEV/vZe+ahbDKQ/HP33OJ316mT/7nz4sR46DIeICUkJxeRr39P9CG14aCPTDX7sHkjB/cfu0ad5PPMcjvOG9sACC0oInBlWQYd2ExgVZqpfzGHU5w+Cu+yfOE5CGUw+N4Dw4CO/Pwjs51g10TJUgiTAqzBFgruSDVAiX6qlrGGqlB1VWKM6S4ybN27iww8/xPfffy9ZrfkinajG5lf7CojK8YAwDATYafUzwqbVbkum6etvvIF/+IffiA4ME5CI4CrLdawKLzVeE+8Hhtl0uq7tOpJ5POB+mAR3I0y8F2rNGR9+U5meH/faeJ+kmGdyhJR6verL0RiPNjC/PHobHt7KdItn2QMpuD/L3v6h50qCewLg5dEcaa5Tn1yhkGToEwxZuUiDOysOyfdS8EJZywqwx4k95lgjvBrLPmob1lQUNReUBAI9MUyEQE5KFIxi3TVoj5SFE2Bsko4kQl3HhJPKMXVcv/32WwH3+5ubyHguSkwkYry5Fqo0raIjdZRJy36KIq1305SomVdeeRW/+e1vsLS8JJy9mh/GwD72AySh0XyaANEE/D8s6mU/cB/5HkaH3Aush9nP5jtTFzc5Sch9MKERr46si58fCO6HTmc/9G5O93/KPZCC+1Pu4B/18OaJZSrmBEPCP6m9Im/9JBPYqWbohmPLnd9RaZH783M30mXldJFqtpfgH5lJQHgIfbKYausKFPaCxZODuzIctZUtZrnShzHyAEqAUhfPoNWtQYrW/udffIEP3nsP/V5PEouKhYLEoIcssK2tdjpsJbuVBbe1oBit/OFggEazKRE0Z86exbvv/gorKysS+jhOstKjp41/lRilpkHSP2oeUm1VUTTqbX4/bOz3A3euYgjOCUGHESQfBLOT041QXYnbQ/bjfTAqbKJaNQb3ielgj+U+Kt3yo97G6cGeTQ+k4P5s+vnHOcsjgDsLOAdEde2I9AjuqpiSKqghdU3V0++FFjw/EXqon2VOAAbglWE/Bnf+yRiUfW3KhKcxKU+QvPgH9GdGHJE6jYClsea1I9Tsn0yaIlh/dukS/vrXv8IfDiUEslgqSraomRi4KlEaNCqGXtos3HssxTcMuJ89exa/+MUvsLCwKIVAZPpK0EKj9ckIvI2yoyY1zOQk3yd05A8Z9QfAXZzLB4O7jOd+FZoS52C/yeSePK+22pPgPp4ojOWub5A97eVWKbj/OA/uT3OUFNx/mn5/srMeRstoi5sFnFW9UwXCBPZJcCfAE48E3IOx5S7PMoGdoMqf3E7TO8bCFppnbNCq30y2UMKMPAzck2BtLHNjae/BpX2onaTswTeXL+PDDz4QXRpmkVLnxYh17Z1QxlK7BF8eo9ftolavCRi/8sorePvtt6WYBvVlJjNszTnHlrq2fvX1mmaaiSs5gR000HvPkVid7FmUGX5NTbAj6mwPoI//4JhTLTNZL1boNy1VrId3j++A5b9HIUgpuD/Zc/mc7pWC+3M6MPs26xBw5/a02mi5h5YO3TMFpUeWOwE7hk8zTkDfkrc83wmzkKAujlcNXppoUAb8fkaeqj+xx4eYtLLH4LjX0hXISgD4fhPCpEBZ8rjUhv/8889x8+ZNcYQyTv0g6YNkGzgBUH6YkwL3O3/+PN544w2RGJDkpQnhr+TEY46fBPKDvj/s1poE93GVqL17CfOvqbFJTt64Qc1tIT/Fe2pWWnpYNMCLLb5nTI1zfK8bV8/Y2nGzd432Ij0ux72tKbi/aHeAkkvR5nWi8VLoWS3LjeVmx5E4VOk4NVZfbCtqhnjuMDpFvtOgayJpDLDLTqpAhWzFbfeEY+jomwP4goPkB/YDdHLfVIkkP27036kfY343TlFDsfAY1Ia/evUqvvvuOwF1Wu7c3+wnwmSakjGcO8GbujEEcEoPE9zPnDkDUjPUmUmCO7ehhgyteaPLzr+5jamqdNBE8FgOVelT7QUeVy0cT5ij4tha9lgPe5ItV6y/su6ZlytDksDskXt4YsLWIz/xFCQY/lH00Yv2oKTtTcH9BbwH4r1etxEIRLTYR2t3VWXIgLH5mIY6rXtuRytO0Sx7wX2MCaRsRvmasHWsJUFerG4hySkZoPdIcO4HURtJK5fga/Tdu92uVGciYPN3xqEz2YiAb95JYOdxCM6s6nT37l1pD4XAuC+PoRKVlDOV5+C5CMwEc1MhyRTRYPIS3wbAleSAejN6hm8e27xZB5WrBFr6yXqoT0rLjIJVJiKg1JyqQp7UnGrAPcnN6++0bINDus1Y6iN/RgLlRxOFnrANyWaWaaPnwVBCCa7tBXxWjnOTU3B/AUdfwH3PStrEryttFrHLjZMvsa043AAEmptlYEqSUVEAknyYCezKnDeTgMTGj1b9CW2YRHm4Sc45WX3IfGeAl0B879493Lp1C+vr6wLwBHNa36ZIh7GODSVjLGp+T60Ysw+/56RAuoUgb4DdhEHS4qZ1nix/R6DmW4VAjq/dRMFM7sv9uT0ja1ZXV0V8jCsGgryZLA6z2g/8bp/VmApFHXe4FCvR5Qd1ZsDoRjDhrSzm58X2OMxVLikxaBPgPkqKmBh3YzE8bAXyAj4+x6bJKbi/gEP9oIpuknXVuuWJpB9Z8ceWJPoM/BCDKJCapIyrsBGNlvMj0lyRt4nod2XBM5nIWPLGdlexLSrKxVAYBNGkFTtpcZtCHQRigvpXX30liUgsok1gJ4DSQcrsUVrU/J2f8ZjGouY5CN7ch7QM6RlWd6I1r4pv+6PYeEPPmDYSjNlWgvxrr70mtAwBO8nnG5qIkwfLAnLCYHvZPp6b7aJA2alTp2R/gjwte0PXTILi5N+GZtrjZ9hDeWm/x2gWV+MqoyYrNBUJZDsqQocOcDHyIzrRWe+VdWRZOMSoMDB0c+wNH7UnJomToGEMBWd+pob7C4gQemqODyJGX9hLOvoN3wvuSRNemekG3hlax2LTYUwd8xiNdgd3Nu9jY+s++t0OrNiHHQdgxAT597EeytibKtDNmG6JudD/iBj6ZUl1pEhAjdEmtGaVRktGQDBpARPQCJA7OzvyZhEOgjuBmX+TSuH2J0+exKuvvirAOTc3J5axoUwMrUOQJ7jfuXMH77//Pt577z2haAjsYqtO6KQbgOd+xsomKP/jP/4j3nnnHTlPEmjNyoITBtu5ubmJK1euiPOW7WR7yN2fOHECp0+fxtramkxCBHlePyejUR8lCl6b43Ky4KRhVhhSgIQVqgzDZeZXuRZlp8tXtppOqWrJyYSl/Qr5HCxHOT6GgyECP0Iux9quFeRzHAdWldLgTj9MYpXFSV9N5GZME2M7yrY9+s/UUbzC1HJ/AUf1QXA3jKxagtO+Y8FoP4ZotgyjGDvNDr5bv41vv7+OGzdvobWzA3vQgRcN4bA6EQGcDladjCNVjIyjT1txKmtTxXGbVbzUM40joTVIVRAoCXa0uvkZLWTDrdMKJvVCkLx9+7ZQKoZWMZY292FYIuPOCZgESYKxAWTBNx3NwoiXb775Bv/2b/8mAM+i2zyOEFMmtn0CWLmvmSg4Ef3ud78TgGc4JM9hJiMzGRB82UYC/JdffolLly7JRGQ4fLaP/Lt5X7hwQSYmXr9ps6mfmlwN3LhxA9evXx9RSryWbrenood0gW6TY0C5BOUmtwTEKVHMuq2LS4tYPMEVQ06ulxWmekGEem8IJ5eTbRZmZ1Ap5uDZdLKqt2cKhksCVtINy2E14K59LeOhfgGflOPd5BTcX8DxV4EVRsxWoExfhVpgR4gwZIp9DPQsG60owrWtbXz+zbe4evM2tje20L2/hXD7PpxOA244pIIXbDoduZznUQQcSdmY8Aou/xn/rp52nonnMZE5BGWC8a9+9SucO3cOs7OzYsnyc4kr7/XESic4EtwNBUPrm2++CJS0fH/5y1/iZz/7mVjGtJwJjrSsk9Es3J6gS1D/13/9V3zxxRdiBRtQJpDybSx9Q0MYy52fE4A5Gf3Lv/wLfv3r9tNiaQAAIABJREFUX8sKgasN8+JEwdUAVwf8nf6By5cvg8DMc/NcJrqGkxipnddff13aTouex+M1mAmOfcCVCy12E+XD47PdLC8oqw5mk9oyxY749BFdZFnI5fNYXFzCmbNncGrtJGZnZqR/SBfFjouu4+JOv4+eBakLe251Gcsz0yjaFlyEyMQxMrYtAm08h6QxSeIYCTqZOjVJo2A+MY+/gE/K8W5yCu4v0vgbR6bWNR8DvPrC2GCkY/pxhA4BEMCGH+DbnRo+v3odG/drGNS7GN7bRO/694ju3YHr9+EIsAMurfcQiMMQVhzCscd0DaNi+JbQeM3cSMKUZQmI0WJ/6623sLi4KJYswZjATVCk5Utu/LPPPhOKI0mfEIQJUOTASZW89NJLAvKkP+hs5YsTh+HKjSVMgP3kk0/EcqcVzOMQbA31YUAxyXcbZyyPyYmHIZC03N99912JfiEQmxcBk0BODRt+To6dkw0/Iz1DoE6GTpoJjnQSJzfSM6Sq2A+GkuIx+SLAs81mBcMsWwF2rRkvEKsjWKinI6GrrovZuTlcvPi6rDRmZmcRhjHarTY6nNhcF4OpKdy2gUYcoTpdxoW1FZybm8G0YyMfR8gjRt5WAm0K3PVEbSlwJ8hzWuH0koL7iwQOD7Y1BfcXafyS4K7josVyHoUiqg1Cy0KfwB4DG6GPK70evm60cXmThS16GNY66N1aR+/K17Du3EQuGCDvOMjTavdDOEEIJwolw5V2rEwaslqgI4/WusIdJjtRqoCx9cVSSZKBCO60iGmlEsQJgqRiyDETqGkF87uk1UswJkgS3Pkml8y/TaIRtzUgmYzE4QTBcxAkeXzzOsyNlHT08hxcXXDiIKVk6BozGbBdpHoYaklw5zYEcE5UvCZOLkmax1jvnOiED2fdVR0uyTbR+ufnnCQI+KR32CecJChm5tIBatybBtgtW3wm7HNa7SdPncHb7/wcK6dOIbZsrK/fwffXb8hkEWdzyLzyElpLC+gV8pifruC1hXm8Wq1gOeNihpNwHCNvxWDIpKzJJC/CQmRZCLVqED93Kb+cWu4vEjo80NYU3J/58O2XDaifskRb9t1qFBRD/VrSJgRZHWeuDT1iAl2k3RjYjiJcHfTwcauJ9+od3Gz00O8Bg902ulevIbj8d+S37qBkBZjJFzDluHD6Q8TdLmzfR1bC6gjsatGuUtUjMJ5ewvJGGbGWgDsjT377298KAJKf/stf/oKvv/56xIWbEEcD7CayxHDyxgomYJrPDHdO4Exmh7Kr+B0Bk8c1sewPG07DqRuQNwlJbDNfSUcst+HKw6wyCMhsG8/FVQW/4zY8hkluMu00E4xpM//mvqRuuLKhZc9t2X7xNxDcbUfp2evbgSsiTtRBTPC1UShV8NKr5/Gzd36O6fl5NDpdXPr6G3z2xZe4t7GBMJdH5d1fwfn52+ScMFvM4+JUGW9NFfFKIYtV18UULBTpkB0pQnIVZiG0LblvIqHlAJYXH1nvD+vU9PvnsgdScH9mw5KE68Tvo1/HT3UysHFP+LH5gs4zmnMCsCq2PSn5O4QlVvv6sI/PWk38uVbH/3YGqHUiRIEHtIeIbt1CfPUyvPo9VHMOTlWrmPcycLs9dO5tor+zA3c4RJZ0TURwpyVvsqdUspQKy7PgI0ahWASdib///e8FrP7rv/4L//mf/ykUhrHUDeARSEnb0BqnJcvPSd3QShYr9hBNGcG9RDx6Mob+sKE0E8Z+1v1kXL6ZAMy2yQkh2TYzSdFSN9o2vDZOBrTuuZoQLjxxPSbKhtuTtjE8v1jLNqUPFNsuqyJtTfuwEFgOcpUKzrx6HhffehO5qSp2uj18dvUqPvvqG9y/ew9xrgDr3Xdh/eIXsMplVGwbr+U9/GaqiF+WS3ilkMMcVysAMtprou4hCwGjj6Q6lgF3cvTjGJqD+jaNg39mAPLYJ0rB/bG77El32BuLPuYQjNW+F9xHWyfjjJPgroLXR45Vo9M+tIAegPt+gCvtDv7aqOH/Nlu46gO9AYVnPGAQAPUmUL+PTL+B+YyFc4UCZqMYXrOF+vUbqN+6CbRbyNEBR7lcsekYMmk0ByW6XSVFxTEKpZKAO7lrUgT//u//LpY7AdtY1cbKpXP05ZdfFm6dAM/vqRNDa59OV1rFyZhzY1Ene94A8qOCe9KCngTvJIhPnmsSvJJAzQmDwE66htdDuoV/k665du2acPV0HJvrN6sCk0xF6500lHD9juL66a+m09pIMyvLnVnFNpxCGQunz+ClN36GzNw8ahZwZaeGr9fvYPv+toA7zp8Hzr5E77SsulZt4FfFLP4wXcJbU2WsMGTVArIjF6oCd2W524hEbsICK8myRSZQMgX3J33uf7r9UnB/Zn0/QmYdBWEIdIPeJplENUiJsWqr3OyRoGWYrCJ0iQ6MjmxLpHzbFumYEFd7HXxRb+Kzdgd/90NsDSK0dloIY4eeORUGYYfwwj6qUYizrosT3S7ce5uoXfkW9Vs3YHUI7iE8Rs0ITxvBiWJ5m1aHMeufKlqG4E5qhnz0f/zHf+DTTz8VB2SSoqBle/HiRfzmN7+Rn+TnCdDkzj/44ANxuJKHNgA/CejJbNXJ5KjDhjIJ7k865JPHIEgzKubNN9+U6zGcPFchdB6zkAhDNQn2k5OQyQsgRWPUKMNQxaCTmxk6MQJHr8girpJsxE4O+Zl5LF18HdmzZ3B/ago34xh3Bz4aPU6IDjA1BUzNAI4HhAGmEOBi1sEfpov47cw0zuVzmLeBEmJkRAWOqzCuyzS4aw1JA+4PkxlOLfcnvZue/n4puD/9PtZnSIL7pIiIso+U3NMY3A2vbYovGG0pWuwMWyTISjWlSDtRHWDTivDtgHRMHZeaLWz6EUJ42N5t4vY332HA8MDqFDA/A5SKsIIA+cEAa2GE2fvbiL6/it61q4h3tpAJBvAsZrGGMheIhLAU+FBFQPiiVcn2GYcqLVharH/605+EbyclY16Gc2bY4T/90z9JxAd5bEPL0HL/n//5Hwk3JK0xqp6kD2AiXQzvnbSIn9UwJq1+AjQB3cTK0won4JOW4QRHcOeEZUIpk200zlxGBQk9lcurDFz2smNh4EYIRNUtUv0d2ogiF4FXRPbkaUSvvYZ7p0/h3tQUOp4HnzTdkLOAFnRnQlgwRKWUw6npIt4sZfHLagmvV0o4nXExTQctAjiS3MQVGGkZEm+KaU/B/VndUU/vPCm4P72+nTjyYeBuNF0MyI9UtnXxBRXTPtLp1mnqfPYFZCMLDLBrIsa1aIhP2k180Kjju0EfjuVgLvbQ3NzFlS++RL1eQ1QuACuLwNIikM2LE7VabyL37bcIv/kK7uY9lIM+ik4IW6QglRwk9WVY/EN04LVUcCBaJyoU8tXz5yWUkeD83//932K9GmckO4OARgqCVu4///M/Cy1j4uAZ68349z//+c/4+9//LpEkJk7ddCRByDguTRz7JH3zzIaTTkfPk4zcP/zhD/jjH/8osfi8RvLspJk+/vhjKSZCisYkVyWvhf4GEy4pEguZvIwXKZKhGyLQ/Z8JIbr7ceCiEzpolypoXjiPnTffQOfUKUSFojLxuz5QawK7daDRQNYG5k+uYHl1His5Cy8XM3h7ZhoXSkXM2xZKUSDcu0MncUzL3UFkaXBnXz9CgZDUcn+Wd9zjnSsF98frrx+w9V5w1/g8EgAbay+q2GPlumSUhIpx5v9HqUom+lEpAyCMbTTCCBt+iMuDPj5pNvB1v4O2HWHGdjE3jNHbbuLqjXWsb2yg1esimioCp08BJ07AHg7hXb2G+KOPYV39DqVeC1UnRp7yghZVaJRmsCrZZyGjwZ3hkUMqO1oQ0H5FSwZQJ4YWK3+SXkla7pwEqJ1Oa5e0DEGNFjrBnJY7wZChjaQ29gNuI2kgqfqR6pGnDTAHhVZyoiGtwqQrOpLJuXOy4mqF1/DRRx+NaKZJcGe7OTkYhUmCfLFQgme7wrf7TgSf4I4ImQjIBBaiwEE7sLAZWdhdXUHvnbcQv/UWML8A+BFQawHr94BaDZ7vY7ZSxtrZk5hfnkcuE2Ima+GV6hTemKpgzctg3rJQ4oStAzDpUA3o1LVoueuY+4dUf3raff8DHrhjv2sK7s/sFhg7VJW2n5ZqTUTLjLVdDDWjNNrVRGB+aulvOtmYgUqLPQBu9Ib4pj3AV/0+rg8HGDgx5ooeVjwHpe4Qrd0Wbtyv4cpOA3dqDQy4AF+YgVMtI97dRXjpc0SffAJnYwPFYIiiE8F1QkR2KKGPIk3A4h+BJZa7K6EVlDeIxNIslUuSEERLlnHhf/vb34SaoOU+GS1CKoOZnIyLJ5VBkGYyD7NMafUzymQ/MExavQcB7tMAm8PORZ8BVyCM7+e1c5LjxMRVCPuADmKuSsxElPQ/UJ6Ak52Ji89RrsFxETmMXolEIIwjL9W0mFgW2ehGFraDGO1KBcGrr8L57e/gvHJBHKHBvW3g3n2RGJgrFXGuOoO1uVkUp/KIMyzSEqKcdXCuXMYbxTLOZXKYh40CnagS9cQSjCoT2WOIJwmah8gPPI3+fmaP5BE/UQruz2yAx+GPygpXFjlf+8W0a4V1o7Q+2kYsemrGxMAgBnZCAruPj3Za+GCniStBgE7GxWI5h9cqOZzPe5iJYty9t42PLl/HjUGMTSeDwLVRzFiwujU0vvkK/udfwP7+GjKdNgpxIFw7rBAhwd2OhS6Qyk1Sd9WC4zOLNYbPAiFOjEwuK85FWuKMliGw86eR7U2CGsGMFMbS0pJszxejSshNm32edFieBthMgjs5fwPWBGgCPK+F0S+kWhjOSVqGb/6e1Lkx12USnkxWrByPTmuHjlOu2CgipvR9jCZ/HNtCv7UjcvJZREvLyP/mH1B+99eIp+bRaHcRdjsoZDycznh4JV/E2sw0KjNF9DLAbb+LnX4Xc46HX1Sm8YtSBee8LKpwRANeKnlpD6orft0U3J/0Pnwe9kvB/ZmOgoJxQ7EYTe4RRaMhPKnRZ0Be9tNVemg0D2IL9TDG1X6Ajxtt/GljF5/f30GDmjDFPGYrRVws5fFWJY+zxRxu3L6H//f/+y/cjTzEJ89iam4a1V4dnb9/hrvv/QXW+m3ku12U6Rx1AM8R+TEMEYhl7loOPDraQlv4X4K7SPdyK+rCu44oFZJvpjOUESK02iedooZGSYqBETxNBaXDLPZHGapnAe6ToZQmEcoIhSWrSk1q2ZtwSDMpcHIzyUwSuWKPK6CK7IAec6HfqPIJG0PbxSCMMSRHf+E1LPz+nzD72pvYzuZRH/RRGfRQbjYlaemdV87g5JkV7DrA3zotfF2vwxn4eNPN4Y9TM3i3MoU110OeXnHWzHUpzCYBO0qiILXcH+W2ey63ScH9GQ+LsQKN5a4iYsZFjU3MjClmbEx7CT7UkSnKeotxszfEB/U2/tTq4uNWB9uNNsKhT5FvuLkM5nMZnC/lcLqUx/1aHe9/8Al2Yxfu2ilM53PI3/wWzb/8GY3PPkW220XJslC0gZxLxyUzXSP4CEGnqRVZUolJ+PbQhhuqLFLfjhHRzLMtAXNSKuScJ/XUJ7s5mTg0mRj0Q4bksLj0H3Lcw/adTIJ6FCevqfnKZC6lRskJkrrs+s6ILLAoiySKcaXGFZKAu/q770foBjHCE8tY+vXvcfb3f0TjxAKubm8juHYV3uYmVmar+NU/vIvlV88KVXep2cRdUkR9H6uhg38uz+CfZ2dxoVzAnOugYEPGXQ/noZSM6eenMZk+rXE6bsdNwf0Zj7jKPVLLbVXzVD20IiMg0cy6BuaoqDFlWY0KoyUOzG5s4f4wwN/rXfyp1sCfB30RixpGoUpQ6g3kJ62vYj6HQj4j+zW3d4Snt7IZuLVd2J99iOAv/4N4/RZyYYACMxetGBmPRTHI6UcYxqEoTEZ+iNiP4QSMlrHhxkrfnSEZVtYTcCeok282QmB88Gm5msIUB3V10hJOgsVBXPfDgDb5/ZMc41ncEnSmMjuVDlVa7sxMtR0btgdVYEPE23SSGFdqVoxAYtKV9EQYAAM/xiBbQun8Gzjxuz+ie/5VbIYR/Bs3YNfrmF6cxcmLryBzYg53/CG2uj34jIfvR8jbGbxdqOAP09P45UwZr0znsOA6yFkxsroEo1ll7Tcxm+9ScH8Wd8uTnSMF9yfrtyfeS4CaVfB0ybTANuCunGeKklFhh6rovVJ1UUkmFrpRhN0gwtXGAB9vdfC/vS4+dXx0cxZimlxhBHQDoDMA+oEi9OkVEwDmyYdAowZc+QZ476+wvvwbnFYL+SgSOVhqjogwosUAjBA+65CGrEUaCsfuRFSNtIV/F1HajA0748FybSkU0ev3JHqFdAPfBFdTxShJ0UxqryjaSdFWj5JwtN82BwHNQdRQEvgnj7ffJGMolf3aaCYoY8UbqomUDSNoTIikKd5tZAiMXg2PyaIaTkYrNvIeiRh7HmPAtxWJ9S7JZFEIW6JnbPSZijS7hMxrbyB4520Mz70kYZFx6MMr5ZCrFBG5DvosNh7woJw5MrAdD9Ouh9ezGfxuOodfz5ZwoZhHlas3caZqud+E1IO56ZNWewruTwwFT33HFNyfehfvPcEI3EXGlVmIBHdtkWnOnclCkpxEwSimEFkWBrAwsMizB7jVHuKL+128v93FpSjAeiFGVGBIhZb6I2/TYyhNpCx5FrCgKciwi6gLbN0Fvvwb8OEHsC5/B7ffFw2ZjH6ojWYNy/JFMd9KvIYhctR7d2JHDsdCHQFb75KbtRDoQtQEMkaOMBqGzlNGjDAaJsmn7+dkJCBK0YlEpaBk75l9jMCYmRDMPgcNZZImSQLT5Pm4v1l1TGbCmph783lyMjLn5fFMqCZ9CAwDNUJhBHFKMTATl05WU3zbFAhhu0jLSPIw52OdR8Ch7FsK3BlBw4mfWj/ukOFSNvpRBsN8GVhdA37+Dqx/+B285TUEjo2Ig8QYGJr5UpMvA2QKgJfXyB1hxorwVs7G/6mW8LvpCk5RVpjVqrQzlVE0+61+DhqjZ/w4pac7pAdScH/Gt4cYp1K/WlnsjDQhuJOiMZY7Qw5pZDM5KbRsAfUuxcAQ485giK93O/jwXgef1nysOzG6DDgpMNOFES5EKBcYugyWVvGSQQh0G0DQBfo1oLYBXL0CfPQJrC+/ht3uyLzAIg4iOksqRUCdliJxwEHG8+A5HlzHgU1KJiSYBxhEvqrpSf49CIRiIKBRhoA66YwDZ8w366QmRcGSejPGEpY+0druh1nhSU32R9WWOWilYIDfCIvxbwPgxho31BL/NjVc2eb9JijTbgI7r5ex7ywIwjh2hnlSXsGIqXFbk5QlgmFay11S2SIVTSXOc1rtDkMjY1mEuWEMi6FSgY3AyiIsTgFrq8Bbb8L6+a/gnTyLIJeVKCfmKQg/52YAtwA4WcDiDMLoHGYeBzhhB/hNIYN/YfGSfB6nshnxvzAc0uRMT/pFkn30jB+h9HSP2AMpuD9iR/3gzYyUjKCCAnex3EnLEBx1NLtw7lLo2BKLeWjbAuw1xLgbBPh7q4NPttu4tDPE9S7Q84CYIS4Md/ACZZHFHuBTW8QBLKajWECnAQzqQO0usHMXuHkd+Pxz4PMvgZ1diWP3aJmLpriSfKR2DYHGc12hFjKeqosquoHEFk4CVgQno0rpkXOnpU6rnRWZmNjDEEHGvTOGneGOJu59EpRNAY4kuO5nyRswNkCb/PugCeFhwD45tkkFyUmr1Zw3Ce5mckpOBrTcOVFRjoH9QJkBgjvlFZjcxFBRM9mN2q3HXSKkeH9on4zcI3YsjIqcy///2XvvJznO7FrwpCtv2zs0vAdIYkiOJYeiZjQjjV48bcT+sPvj+8d2I17E241dSS/emidppZnhSBx6Et4SHo0G2pd3mZVm43yZtztRhClwGjMjqQpR0Y2urKysLzPPd79zzz3XV/kPgrtnpOCPjQOHDwOvnQL2HQJm9gC5PJBLA5kEYCVCrxleC6yQkjI5dmXR+zADG/s14M+yObyfL+C1fBbT7NGqrsUdoW6cuhqB+++MCK98ByNwf+VDHH1A3BRSwF11NZJEWXjP7UTtoS97T9dQ04Bl18OVdhe/rTVxvtnDo66OlmMo6RrSDLs9qGynAndG7PSMNQCd2jYD6LWA1hbw6B6w/hDG+iqMu7eBGzfgrq1D9wJkk2mUMjlkrCQSGiP0kP+2DAOJhLXddSgK58PI3jSQzWdVREuwIpgzaqeZFot7GMWTjmDkzopVyiSlrZ5QG4OAHgcR4bnj4C9/EzCN/3+Y0ymA/axka5y6eRr98jQ+Pl6kxAmQkxz17+ynyopc/k4NP313aKhG3x3q+mmsFlbbhookzdXC1AiBXfdV9O0xao/05+yn2u/20W320O324eoJBBOT8I8cRP/oYQQz88DMIlCeCD2E0ulQAsNrgkJ2JXnkieX1EoK75tkoeh5es1L483wBPyrncSidQJkSWJX8Dy/eOCU1omWGudL+sNuMwH23xv9plUhP23eMlgm57fAGJsVKZkbdd5EMjr7sbV3DOnxc6dj4sNrEP7fauOMCjmchUJE5jcCjEkYutbluV1VOYTJWATsf3Qbw+CHw8A6M6iYKbgfFVgPewyVU799HEjoOzC/gyMJeTObKyBiWiuSV3pk9N42wMTYxQlr4ECtUwjC10+iC3jJ8svKUwM7XWaFJUKO9AB0fpdWcRMhxnl1ARKLhOLg+DYwHdeTPO52DSdP4toOArTjwWD/VeDI17kYpICeKIOnRyiItjgPBndQUE6jchmDOMSBVxS5VtVpNTXa+RztlE3o/pLx8VgcboXlYCO6M3OkvAzTrbTy8v4ylh6tos7Bsdgbu3nlslQrolccRzO8HpueAUhmwUqrthnoqt2ZSNLzYXECPnm4fputhRrPwfiqNn49l8WY+hfmEiZTyIA4B/nng/rzLP+5avVu322g/Lx6BEbi/eIyG22JYcJd+F5GhgCpokiW3WpaH4O75YTelih9gyXHxaaONv2+2cNl1UdcNBGqJzRs2MvZSs0KUUO17gOrVGUCjV4jfh17ZgnvjOrDyEHnPwVw6gQlau1c38Pj+XcwWy3jvO2/jreOnMFMYQ1o3kVTgHvXSVHOFhoDHqjzHpUF3yBULKFMhw6pLaVknKhHyzAR3NoSWBhZxGkMSjNJQOg4kTMSS8ol3PxqM5J8Vhb/o5Ml+ZDuhgsiFMwlKOirefo+v8/g5YQnFNLiCYJJUPOvZLJxadpkEVOGX46giL8pG+Z3UZMEkKcHd1dT595mLMUNg95UVQeif73saWq0Ort+4iy/OXcbdtXUE5SLc6THccR20rCT8yVlgfh90RvGpHHzSdFHDRLXqYoJFDyuQ1ZNOoR5tgE28Zhj4i5yF90opHMsmkbdMZU2g7KWVRjOkFMMcQTjhqwn4OQM9AvcXXYWv5vURuA87ri8E76iU8EX7E1cwtTmB8klwD00YdTi+hrrrY7nn4nqri4+aXfzSsZWevW9FVIuqFyfHo7KeUacHH3Aog+woq96UDmS6HeiPHqF64SKCahWTyQSmswkkDRfddhW9dgPfO34Sf/HOezh14DDG0jmkdQNJRq8Bb+zw7uVCQEXuCuBDrX7Iee986XjDaIm+Cc6kIOhtzqhV2tPx9XgZP8v3aWFAgJf98HUCO/l6lvMTEAm4so20qXua3PGpC6cBDlk+hz8ZWfOz+JOrDh4LQZqfRYCXhC+jb05SpFkI1MLDywpEvNoZubNZNic8AXeZhOL6f7UqoI+LomTCnIdazRHgCe5R39oQWTXYjot7Dx7jXz79Cr89fxGrTg+dUgZLroMeE+KpLPSFA8gePA5jbAa9wEKPQQVXcZYRrvQUuCu9ZRggBDoszcKi7+O9RICfFiycKWYwnUkiZZgw48lVGgTrhgL3nUdoePfEI1bdOgL4FwHD7r8+Avdhx/RF4D7QGu6JcCb+3ji4k3PnDawAPrQXYCKV9qttF3jU7eN6vYuzjQ4+7Tm4DA0tVjEapFuieIkAz/+w6ogAz0Kmvg04XWRcB+N2F9nKFpxHj7By9TrcTg/TmSzKCfqJdJDUHcxPjOHHb38X33/9DcyUx5E1k0jpRiSNDCtjtyNbBe7hxKSOIP7aU8aAwMUol+BOKoLuj3Eg5u+MnunJQiqHiUfy0/y/RIUEXEopmZAkyBN0mbTlNgR3RtDSS5VgK1YG8URq/HdG5ARgsUDgZMFjIEVC2SbBm8dCSoWfI6sJsRWgbp/HQ4AXS2OhcPg54tXO/AObb9OvPU7xyKQXjl/EaatgWleJbVU/oAO+GYQgLycgWtUxyt+sNnH28nX8w0cf46sH97Ge1LBmsgk3i818WFMLmDzxBlKLB1E306h6rCQ2gZQVJnYir3jQ00adQxNaYCju/ZDu4p10gO8Xsziez2MmlUCO8kiuBFWxXTgZKXBXjbzFqjpqnM44I9Zc+0XdnIa9BUfbvdwIjMB92PH6tuAe68shgM9gSd3YTJqZTKhGvVBZfBJo6AXAhuPhZr2HL7ba+KTRwdW+i4plwbeSYYSu+HXuiL8LuFMG6QJuH+m+jaleGxPVKpLra+isr+PerbvodhyMZ/MYTxooWy4OThXw5vGj+M6p01icn0c6kYSlgD1Uzpjq5o35vpKaUe39osdz7lxuR9AVMGTULgoRATWhQQiupHNYtUnwJiASfCVyJ5gyCUmdOAGXjT64jUTTBHUCLWkOTgacUOKJWwFUKfsnwAu4E+j5OVwZMPHLiJw8OZ0rGXkLuHP/pFOYFOZx8HsJmMd18ZyUxDtmcXFRJZn5GYOJ2icuvYiuU0aQfET5cDXpc/hVDjRQNDlzKl2nj/uP1vCrL77ALy9fwLV2DY+pgGV1cruHTGEc88dOI3/4OKr5Mh4bJuyEBSTMKGsf0XlqQuZMYqjGrey2lYeLo6aHH2VT+GG5gJPZtKo6x04qAAAgAElEQVReZWNtPaL+FLirpdzOBcA9sSaD+SNeopKeeZE/zbC34Gi7lxuBEbgPO167CO5hLWoImCpqp22uEjJo6Gkaqp6P+x0H56td/LbSwbl2D5t9Dy6BPZUO7xwqoJVmUsA9AnyvD93tY6LXwd56DaWtTViVCrqVGm7dW8JWx0YunVOukUcnsvjhkf34/msnsWd2DoVsThmA8cZVroCqL1Bs6R2p6J4I0OMuZwNjScAk2BIsGblL8lCAna8T/An4BE0CNKNoasMJiAR7RsukYgi85O0JrAR1giZpnDgfLty3gLyAe1ztQdAVJ0aZWPgZPE6uCri64LHwM8iXM/ImrcLIm3+n8odP/s73c1+kcOQ4hMPnd+N34eTAJ3+XCeapkk21oqMnxQ64s3UigVLAnYomXUkgA9W3ttbp4Oyt2/i7rz7Dr+5+jbueA6fThd62Uc4WsbD3MPIHDqM5NYPHuTyqmRRc0jKRlbCaMZQzGcGdz5ByY+ncmObhDcvAT0o5/KCUw6FkAmWVi/UjQzHmBkbgPix8/CG2G4H7sKP+bcFd+OrY50gnNMVSsliFUjgdsA0dm76Pe7aNS/UePqt38FXHxSPHB3OkSqtsUa/MO54yNv6Nbk9RaMesmOsgaXcx26hj7+YmytUqUq0Weo0Wbi8/xkqnhyCdwfx4Ee/sX8BfnDmFM8cOI5/JImFaYQ/PyAbB0KhoD8E9XoWuwD3M7z23g7KAJqkYgjPpDnkI50wgJvhTOcJomMDHqJkAz8IfJjYZhXMfBF+CKoGW1A1fZ1QtETh/kqrhI14kJZOJFCDxM4RikWIj8cXhBMS/EbR5HHzKJMPj41MmKYI+XxerX+5fQF64eK4y6HNPcH9u5K7GNMrbSH4jioK/Ae5OmNSmJ//drQ38/Zdf4K8//xhXOw302h0Y3T5ms0XMTs0jM7sAZ3oOG1NTWCnnlR008zwRrxcqaBhZ8KJUKwZ+uAez72CP5uPHhQz+dKKINwpZzJgG0poXJtpVLubJmV1NC9GumDnYpmZe4Cw57C042u7lRmAE7sOO1xDg/sxNYi+QP1X3UlSFaKiEKJskAHVdwy3HxpeNFj5qdHCu08eKb8AhevNNGqMuRlh0lYqUMSrEjmQ2jP2dLvLNOha2NrFnYxPjrTayto12s4376+t40O6im8ng0J45/OVrJ/GLM6dxcHYaSdNSkkch2NXNqSomQ4XEYCORbV5mMFMW/V+iYgKlgHu8n6pIBxldE7DJdVMHT6AXjTijZz4JrtwfJwc++R6COFUo8Sic2/DvArASKccjd1GrEHxDfXmoXuEKQoCe+ydtQ/DmhCE2xrL64Hs4sRC4ucLYcXbUtukXkXuyMcm+ffvU/uQhydXtP2wD+86FolZ3Cty3B1TVIvCpOSEW85pZa7fwL1cv428+/hBfrDzEVr0O3fGwkC1hrjSJdHEMTnkclblZLM9OoZFLwVM5G1a/0R2OSfloxaCwmsZkLjS7i4Ln4VQugfcnivjhRAEHUgkUESCvAYmAqzpFzkT9fyPVDKnFCMy1qPHHYHAw7C032u53G4ERuA87fi8A90Ep3rM2V1WpUaMOlpibLotXgI4OrAQePm228I+NOj7u2HjEpshBIqosjKIkdbPTI4bPMMoK+9+FSTKj00BpYw2La6vYW61joucg3XfR7nRxv7KFu+0OtHIZb546gb/63pt498ghTKYzMOhKqBbk0qo7KodXgP8UcH/WuD0F3AnYjNwZgcdlg6IXF16elAj7rjIy5muiWCFAMsEpidB4lahE4Nw3fxfDMgJ8HExVUKrrCqi5f/LlfHAiEf598Bxyn0yaku8nFcOJRT6DyVbSNlxBcHURl4MK3cQVBlcgpGWGBvfowlF0zNPAXbkGMMmqKXCvOjauPlrGry6ewy8vXcC1Rw/h2w725cpYyI0hlczAzmZRnZvB8r4FbFE2maC3jMmMbVjsRoDnmSewK/M5SmldaH4fM1aA75bSeG+igNdzKcxpGiaCAHndVP7+MumHtcxqRtpJ0Ai4R2KuYW+10Xa7MwIjcB92HHcJ3JWfTMSxE9wpM3YDDRueh5t2D/9Ub+CX7TZuugEcatl5A6pkVwTurCpSS2dV/x/KHgMHmuHD0vooNCqYWFvBzMY6ZlotlPoeUq4H2/WwVKthxXEwuW8/3vne2/iT06dwdHwMOWqZo2U0+Rd1e0bR+jaVIDfv88YrFsVL5M5oneBOOkMidyX9E310ZBYmAE+rAoI8k6+kbBg5M8lKcCcFwmQr38t9EaQJuIy4CdqM4ik/pOKGYCrHEI+UuR2PhZ/B93I7TiIC8Pws/s7XGKkT2Pk5PD5SK4zSGa1LoZZMInFdvqwIeOwEd05O/H2oyF3APaor+EbkzmCACzcVuWtow8dat41LS/fxd59/ig/OnUW71cZiJo/5TB4pMwknlURzchzr+/ZgZXoG9WwBgQJ2I7SqUGXO0eqP4C7Xlt+HZbiYTwM/KCXx40IOZ1Jp7DNMFAIN/EY7GZlQpjkI7mrVN5LLDIsyu7rdCNyHHc4hwT0Uiu1o3uVtjMLkwQRq2II0gOtraPgB7vZsnG228MtGC19RGUMKhm2KWXcuiStVgBLdUdwxDcFsB/B6SHg9jPVamKltYGJzDaV6DUXKILk6oG0vNKw2muhZCRw+fRo//O7bOLW4iEny1MpPhrnZnYIkOVpJEBLyX8RMPcnLhyZgQsuQL+fvcUmitKsTECbwErSZOL179+4TEwJBlzQIE5zcLycMPqUxCKNkgj+tDwjuorSRiUR+8r0Ed6piOIEQ+Bl580nw5iRCKoiRPScAHjePiyBOUGcil2BN/Tu3F1mnrEjilxPfI/mDocCdK7HooWgZlVANz4QqIiIlw04drGAmVa6HjpEteFiu1fDPF87i//ngA2xsbmKc/VETKSR1U9VFtAt51BfmsbpnEaulSTieiYDgriUBI5p4uIRk8MCHrArNPizLwYGUhj/Np/HTQhGvJ9Oq92qKxyQAr4CdxxnKe0jJbHf7GIH7sCizq9uNwH3Y4XxJcA9zYztVnDsZyVDXzJvX1oBaEOCB4+B8u4OP6y181enjka+hz6hdVAwqoxaJh8mvR6toRc24Liy7h4l6BXO1TUzXNlT0nu40kfBsJNgyjT0/dQOdvofi+BReO/MdnD52AnOlktIvy3yhoukocpdh2Q1wJwiLaZiAYVxVEi/s4TGQAqGxlmjJqZYheBNUCa4EW+6PACyKGEbbfI3gTj6c2w/SLPxOBHfmANjAmvuXalkeFwGeEwOfVOVwkmEETxAn/cJonRMM9y86/EHNvqxI+HceAyeEoSP3mGxWiWeUGGUH3MMCt8h4jt9F+bwDth6g5vRw5f5d/MMHH+D27TuwggBZJnh1HX1dRzeVRG9iCt3F/ViemMeGmVLFTcol0qSSJ0rSS5itrjk/dBo1HRQMB68nDfxloYA/KZSxxzBRVP7/oeRRXdAK3EnvRZWrnChekHQf9vYbbffyIzAC92HH7CXAXTVKU9sH8JS0RIOm60rXrqo9IzvXpg7c9Vx80Wrgw2YbZzs2Vh0NNnl2LpW3l7liFRmZz0R+H1w+604f+UYT+9ZWsGdrHePNKlK09+01EcAJHRstA5phIZsp4NihY3j9xGksTM8il0giQa49Xkk40JxhW7anFDrPH6xnRe4EdwLqYOSuMIGrishBkWBMICUFwiQrI2sCMCNtgjJBlzQHt+c+yYkLb0/unFE9lSn8fTBpGbc64GTByUPyAKLc4TZUvvDJ/TPJy2MRwBdgF58YHq8ocGQVIuPF9wm4830vjtyfHFsRJG2zYeq6iTfLjtruaYCj07rfw0plE598+SXOnT+PdqOu8jE8t8yXsu+qlysBs3uwNb2ApeI4NpJZOOIYyWtNJhcVtUerxATzOQ4M2JjRPPwsk8FfTkzieCKJCV1Hhpv5Yf+B0BspDu4DlUzD3muj7XZlBEbgPuwwviS4U2GmInSlagkjYoXVEbVJWmYVPj5zuvh/axV80WzhsU2ahgnUZMS1S9mqgDrvoEj+yDvJdWE0WhhbX8ex1VXsbzYwZrdgdOvo2S30DRdB2oJrGkgkMzi85wDeOvkGjizsQymdDb3ZaQim1v1Pyh2/MSxP6cgzuE1cOCPFRaJzj4N7HHgJ1MKfE2SZEGVUTLAkeBPYGcnzwYiZT+6b+yWA8v2Mvhl1CzDzd/WVIv91kULK34TfJ5dOXj8ukeRnE4gJ7pxc+F5G3+T6SQ1x8uHxMrLnhEOeX+wJZDz4Hh7XS0XuA4P5jctN0D6KkLkmFAUj86H9wEej28HN27dx9quvsPToIZrdFtzAU6ZkPvM2VgYoTqAzOYdH8wu4Nz6OOvX3qrcfFVlRk17+5MnkMFpM1PNq7SMT9HHGMvAfx8dxJpvBXstCkdXF3NSjN07YqSuM3HmdRhfViJYZFmV2dbsRuA87nNvk+dPfEPZA3fFpD1fPIf2i3krlg6xefaDlBbjlOvinbhN/Xa9hmf0tqVwIUoCWCk3BVCQV+QDLmlyV/nGW8IFuC8bqGspLyzhZreFo4GHCcwC7iY7bhc3q17SFIJnAWHkcb514DWcOHMNcfhxJw4RO10PFjYbH9zT8jqjU546SgPqzwJ1ASHAnKEq0G49w+Rr5bQI2OW+RF3IbMegi7SLgKuAthmKilCEoD6pk4s6TAu6icxdKh4DNp+yXkwULq3jcnHD4uXEahpQQdfl8SJI3bpcgqxHuj9+Fq40XRu7PA3cObCSXVNXN2xXOIXVDekbRfP0+1jbWcf36DVy/dQMP1h6h1e2o9oi0Eja1FPxkDq3SGDb3LOLrPXPYLBYQJEjLqI7oADs8iQxeAbtqC6W8aHSvjxl4+HEug3cKeZzKZDCfsFDQdKT8ACluTrmmsiaIrtOd7Pywd9pou10agRG4DzuQcXCX5WssInkS3HduOCnqiGBaNapuegEeOS7OtTv4/0jJsFye5k1UMASM2plIjZJaIk8L/xCF11xnd4HNNeh37qK4vIzjro+TdHrUfWiuDdt3YFsatFwaxckpLM7vwRuHj+HA+DQKekq1y6MXu5ooVFbs6ZUmcXB/1uIlHpgJwMcjdwF3oWXikTsjZ0bIV65cURE6ue0TJ04obpuAK4lQgrto2AmUBG3uj5w49zHoES+fEZdeyr7ijpLS41Qidp4nWRXwJ/ctExH/z+8i+QC+h3JIcuqcAOQhNI9E7i8Ed7k4Ytfi9ljHpKUqTx+B/PYqQTk8h3kcds9qd7thwvj217hw/SpW1tbgOx4MV4cF2lek0Uhl8HB6Erf278HW3AyQy4XJewK7HSkZ1XUXZUsjoRa8PpL9HuYtHe/ms3inlMeJbBazkXomzVaNCtyZUNVVSYasWocRWw17K462G24ERuA+3Djt8M3boXj0xsj7g4SjRO6q6C+K3JUPt7p5qXAI0PB9LPX7uNjq4V/qbXzY7mCDuM5lMW8wcu2qhFWsfLm8ZTTFPUZ3utMHKuvAvVvQb91EvlrB0VQKx0t5TFgmjMANe5taJsrTUzh09Bj2792HvRNTKFspJHxdcaMai1kE3MUAJC5nVKFuFDRK8DgwXnLfR5vuUMRRyzwCIumPeOQ+CO7kvi9cuKCidwLimTNnVP9VSYzyb/JkNCzRuYCvVKPGE6jxz4j/nb/HTb6EuhGQ50/lrx5ZI8jv/AxG7Cy0YqKVvD25eB4nJyKCezyZGqdl4uC+LS0dWCY9zXdODXUM3OX6ii6onbGOqpy5Oa+Srt3FnYcP8Pm5c/j65i106x1Ybtj71jMT2EqYuJFJ4N7eebQO7QcmpwA9CTgk8CNA3+4aw71K8Zyr3EYNrY9D2SR+MlbA+6UijiZSGNd05Jgz8QPF5Ci1jKivRuYyw6LMrm43Avdhh1NCqWeAOyN3PvhyqGWPnpKHVJYgPh47Dr7otPHLZhdftPp4bHvoh+RmpDcOK0Klx6VaKxPYaQjG7RhKs4xfdVG6AmN1GXnXxsFSHofHixij/7hy+vORzRdw6OARnDp1GrOT4yimMkjC2A7I1AfFaJltZUM0JgpMXgDu21K4ASeCeIXq8yJ3UiAsFKLXOxt6kGJhUvT48eMKNMXXhYckWnJRwoieXMBdYeFTEsJxTb3sR823EaLGAVdoHOHpZQVCmobATvMyHi8nGFae0sCM1IvQMpJY5THFI/cXGYe9ENxjSXqhaLaxX3nShMtJT9fgBC7WqxVcvXYDl85exNrSKgKbjccNOKaBDSPAec/G8tQY+kcPAYv7gFwZYCKfBL7yLIosgVWNRaSJ4XXo9lRdRTGl481SGj8vFfC9bA57dAslLWoKFhW9hYxMjHcf9l4bbbcrIzAC92GHMZI27pDoO5F7FJirNXNo1RFyoAR43itKfMAkoNvH9XYTf9tq4u+7VMYYcPtMZCUijp1l4VqYxFKe2y5ADp2FSnYfGuWRbGS/sQlcuaTA3erWUUzq2DNRwL7JMsqpNBIBVCelPVMLeOP4aRw5eBAFJgoZAW/fa+FkxOWzeggtMxC5i3HVtnpjYLxeFtwHAZggSEkjde2UJzI6JhAy2mX/USpgmLSU921LM2NFUPGEqZpgI6BTMadB3/HQyVKAPS7DlAlCKBuJ6kWFI81GCOhsbs3j5GtMsJKSYfUpVxjCqctnPStyl+EbnIReCtw5Mfm+0r6r+VlODvOhBuWRPjo9GysPV3Dly8u4c+UmWvU2+kGAtgGs6i7OtapYTRrw9u8Fjp5QzT2QYKd1BhcE9rASQwE7r0+l3uKF7Kj2fIbhYiql4af5DP4in8fJVAZzhoUMaE2wY/m7vfSIJ2QGrqHBsRj2lhxt9/wRGIH7kFfI9tI+kqSFaBN1P9p2ZAklkORAQ5DX4DKSIo/r+diyOzjbqOFv2i186PFvCYDgrgA+isp5p26DO2+uvgJ3s+ug6GmwOg7ay8toXbkM7d5NpPwucmkTcxNF7JkeQymZQt5MYr48iZP7D+H43oOYLk0gnUrAVO3VQqvhbQ8ZaYj9HHBXk9czaJlhwJ20DPn0eOciAUGxDyDNQe6dUb5UpzK5yj6s5LTFeEvoFjkfg1SMgLuA9dMkkXGwj0fo6ntG/LXQNQRpHhMpI0bupIJYwMRj4gTEitWnOVNK5P60IqbBCU7G93mXIim9ML8eTlJB5C8UFp/RBz48R3QZdTQfruejU+/g4c0HuHHpBh7ce4itRhNtPcCa5uBcY1M1+fAmxoETp4DjrwGFyci/iI6jBHheLLw2uapkNWt0zSf59x6ScPB6QsfPczm8WyjiWDaDoo8wsRp5E4UOpjv00tO+4wjchwShl9xsBO5DDpgCESlMivzMBSTZwCDU+AZKxMKnHxDYdXR1Hc3Ax6rj4E6rjo8aDfymZ+OWZsHTCO4M7cmzRzAp7fLUTwZPTIb1MdHtYbrbQ6JaQ2tlGau3b6G5fB+mbyOXMLBnrIg942VMZnNYGJvAif2HcPLAQcyOTaqG18mkqXhQ1dIv6qIU5rvCJh8KBAduQqFlZIieF73LW+MJVbH8Fc59MKEqkkGCPukYKSgS90W+n+DI6JiJ1niJvwDxU4FygG4ZpF8G3xunbSQxK/SMeNHTFoH7IU3EClZaFpCKEdsC5gJklTCYUBU/93jU/o3I/QXX4XZBXJjAUZG7uHeGrkBh0RytLUj/KaB3fNS2arhz8x4uX7mBe8vLqPf7qPgOrte2sNRqopvKAAcPwnztdVhzi7CtBHzlOEoBOzt+SR4oWuHxQmdlHFs3+jYm4eKtVAJ/Xi7inWIJ89CRDzRYg8FCfEUYOz8yiQ55G442e4kRGIH7kIPF7jfRbaUkjts2A1SnsImBamwdrmgpQPZ9DY6uow4NjwMXFxsNfNao48teD7f7PpqkWEyWfUcpybjhknAhpBVohtV3sNhpYbxWgVXZhFPdwMOVJTxYeQzfsZE3dezN5bGvVMbB6Vm8dvgwXj96FHtn55BJUxljKBkzZyCl3lHreLGDDxtob4N7bDxCCefOH56llolv9jxwl8g9DsiUMxL8pVpUmmoT6KXsn5GyUB/xytM4/TKYNI2Dp0Tx25NUjAN52oQh7+XxcsUhHZdID3EFwQmAk5Fo6wn21LrH+7Eycuf/pfBqUKL5suC+fRYkco9ZXOyMf2gfHUI86SkNPdvB49UNXLp2Axev3cB6tYZqz8ZytYaH7TYqhgl3ehrZY0eRP3gIrVweLU2Hb7KxRwIwzNCJdHvpFtVaKKz3YAZ97NEDvJ/L4D+USziVSGFGN5ESE9No0omf87hlg9QYDHkbjjZ7iREYgfuQg7UN7mrZHpbjKV9slXAMPfEUZkbg7vk6OvRzgY/rvQ5+tbWFD5oNLAHowELABCrBnVrzeOmnNE2IpJBpz8Ws3cV8dQuFzTWkmlV43TqWNtZwa20VPdtGHhoWMzkcHp/C906cxA9efx2H9y2inM9tR7tcYau2IBTihHge1kNFUZ+Yt26/EI3L8wB9cOgGde6DkfvTwF2MvCiFJIgyEiafLR7p0qhagDWudJGmHMKPP+tUxhOmcRpGokbxYScA8/MkKcqVBiN30efL/5kXYIKVEw6Tv6RoOCnFAftlwX3Iy/Cbm22foPC6VBF9FLnzXDs+UGu18fWde/ji/EXcvPcAG5UGNhotbPYcVEwDTrmM3OIiCnv3wp6YxGa2gG4yhYDVq8zJyGpSnEh5FGbU6jFwkfEcnLYM/KJYwLv5PI4kkigZtD4IV7ODj/hKagTu3/rMv/CNI3B/4RCFGwi4h6R6VGut+YriUIaNgmzq3qJiQUeNjTecHr6s1/B3W1v40umhyUbLRpZpp1AhQ625eLNzJ9w/Sw/p2+G6KNsdzLcaGN9YR662gazdVhr35WoFt9bX0ep0UdZNHCxP4MyBA3jnjTM4c+wopsfKSEZWtEK3CLhTACGe208F9yHH5HmbxdUyQssMgju3YeTO6JjgTrWMWOoyGpaKU4IowZ1JS2lozX1xMpCoOh7Ff2PSiSpVCb6DEwH3R1AnOJPj52cJuHPiYS6AnDvtECjZ5LHyb5wEmOyl9S+5d05K8VXA7w3cd5Yj3wR3KrQojey7WF5bx1eXruCLcxdxi/x7u4OG66ObsKAVy8hMTSExOYVgdg6NyVlUMgX0VOTOqCXWTJtYzaw8ZbSKNuzD6NuYDXx8N5PBT0pFvEX1TMJCyWCD9VD3/rSHTK4jzn0Xbrin7GIE7kOO6za4K1e+qJpE9xHoYRclaWSjgnf2QfWBdaePa/UaPtnYwK9bdVynyVMmA1g5wGMVKnXmkd1q1BRDtVwKKFsLUHBszDSqmKhuIre1jlyrjpznwPB9rLdauL25iXqrjbl0Dm/sP4h33/gOvnP8KBanJpFloY+y8Y3KG6PInaDOj1V2A0obEW7xNFpmyKF56mbDgjspDnFgvH79ugJR/o1ASX6bwElVCqN5AqhUkRJwORlQcy4VqnFqJn5Qg7zuYBJW+p0yeUt+X5QvBHcCOhOpTPKKhQInA04ENBKjHJITkTTZFqD6w4B7xMX71GmJLBfoR9H79Tt38evffoIvLl7Cer2Jtg94yRTSxRKypTKsfBHm1Cw6c3vxqDyBajqtcqlUxyiAV85gUiHNeyBK+PdtpDwfi4kEfpzP471iUdkTzJs6MrR3fopEledHJsMRuP8ud9qz3zsC92HHVexYxX+DzDujdoMd6kO6Qz3DFpfoej5WG21ceryKz1Yf46zdw51MCq1sHm4yDz9II6ACgUkrpUqILAXsnoqGUvAx2WthqrKB/OYaCs06cr0OsjSDCjTUHAf3qzW0uzYOT8/iR2+cwfdOn8a+mWmMpTNI6EYkYY/AXd3sPObQbFIi9zi4DzsUw2w3LLiLLbA09OBPUh6MsAmYjKQJ8AR3JjAJ7ty3JDoZuTP6f17kPni8cSmkgAw5c36OFBwRcDhpENTp687j4sQjKwsmepkoJbBLdaskYbnPPwy4c8HnI/DcbQ8wQisv2bbtYGVzC59fvIyPzp7FraVHiprxDQuFYgnlQglWMgONnZtmFvFoZhbLxQLaSXrS0DyM0lx+M17kUaMYpbryAJ+NPXzkAuBU0sJPinn8aaGI4wkLRVoqx6yk5VyIimlQzTTMtTXaZrgRGIH7cOMUora6a8PIXdWdakFktx6Cu1QQctNe38dKpY6Ld+/jy/v3cavXw0omhUaxhHZuDK1kDh09iYAdg8i78039PuDasPw+yl4Pc80qxjZWkSXAd7vIuH2kFN+vo9H3sMFmyIaFkwcP4YdnzuD4/n0Yy+aQtSwkxKM99v0I7ureFOGDch6QHqnPESIPO0ax7YYFd+HlSXVI0w1G7oyOCZri+yK+MQRQid65PfnwFwH7YEQftx+Q17hPAjw/j8DMJycN4fV5fIzceWyilOH28rtYIsixDIJ73MzslQBaVEtBcA+Lurj6YyZFV1jsKGOxHu48eoQvrlzD55cu4faDh3DcAOVcEePZIhKahSCdgz05jfX5BdyfmsBWLgk3QeUM9Y3Rko+dmpT/DFeeUVewvg3DdRQ9804+g/9hfBxvZ3KYMg0ko1qDwdVUHOC/xSU2essLRmAE7sNeIgLuoZA9VMtEyhNfI7gHofsen30PfdtHrdbG1w+WcOHrW7hXqaJqGujkC6iXxrBWKGE9m0M7nUFAZz52Veo7SAQeyoGN6W4Dk1vrKGytI9uoI93rIeF6ZOkRaDraLJBKJDA9PYvTR47h2IH9mCmXkbUSSBkGzOeAOyN39fgDgzsPgWBJTp70B8GUICl8uxQviftjnB/na8/ybH/aKY0rZuLSR24rr/EnwZwROicOgqQ08RAPeXrZMKLnkxMQj5UyTUmoymTxBwF3rs1UX1hSe1FzJWq5Ak3l+XuBj61OB3cfP8ZvPv0MX128jHarg0Iii5KZVrYUvpFEp1BEdW4WK3tmsSmA1mMAACAASURBVDJeRCNphAorrjLp/x42eI14Pc4qYVCi93sYc228mTDxP05O4t1SGXPJFFJKJvpN5n0E7sOCz7fbbgTuw46bAnTpUOOHxS4RwPc1D57vodfpobZZQatSU+XeemCi0ehg6dEKHqyuqxurmUigVshjrVTE40IOVYJUsQQXOjzPRQ4expw2JupbKFU3kKtVkWHDCMeB7vowyM3TmztpoTQ7gxPHT+DQvn2YKBWRsRIqSmLUvp0ojdWQKPXzgBmM9MDcbd5zMHKXIiaCTzxyJXBTfUL+nDw6I2dWppLPJufO/RBYpeJTmmdL8+rdOm5xchQ3SGnEzQlEujpxAiJFQ6qGr9NPhg1CSNEQ3OMrAmnWIVLIVx65iyMppZCq2CKsyyCFRyAmHrMtXwc+ttptfHb+PD7+/AusLq8qUM/DQsJhwGKhm06hOlnG5uIcHs9NYy2Xga0SqQkgkQ3bPkZ6e3LxGvpIuD1k3TbG7S6OBR5+Pj6OH09PY7FQRMq0oKt+quHFKBOf1AXs1jkc9lb+97LdCNyHPNM7apnwxhFwp9VAP/DQbjWxdO8Bbt+4ic2HqzB9HePFMRQyBbDXUaPVwXqlhrVuBytwsZqyUMln0C6WoI2PoZ9KwTd0JPs2EvWK6qY03m6h0Gkj1ekh4XvKeZWCdd2ykJsYw4Fjh3HixElMMqFHwzBNh0WOE9oOuAsFs209HFP2xJiY3b7BOD7CpxO0Ce5SpCTgLmoZ8tkEd9ro8j2vvfYaTp06pSJiqWAlWDJSJqjz76Ir383jluMlny+9Wfm5BG2+xipVessQ3AnWBHZKIanDFw96mdT4U1r/kcf/vYG7AvWQQmSPXtUohswJuXcN6KnGHi5uLS3hy7Pnceva1+hVmkjSj53teKHBTpioFtKozk5ifXEBKxMTqJlpeHoKMDPQ+joyPpCGD1NzoPs9JPst5J0mxu02Ftw+fjg5iR/u3Yu94xMqclfHE9lAyMQnyqfdPIdD3s7/LjYbgfuQp3lHLROBuwrifVUu0uvbeLi0hC8+/RxXL15CbXUTST2B6bEJzE3NYWGOroEl9HoOliubuLO1jod2C81kAnYhD6dYgJfPQkslYbeacCubKLRbmAuAguupqJ05LUMzoVkmktksFg7sxcnTJ5UcL2lZqv8pn2agwYh+V4qYQXB/gvjc+c9u32CD4E6++ln2A4yWGRVT+UJKhJa/Au6kR6SyleBOOoZPKQoSSmW3jp8rCbESJp8vNgL8efv2beVeSf6dahmqeAjcPB4Bb5FayqTAqJ46eDneV0lFhAFHrGyCSpUoiCfIq5YbOuWRAbaaDdy4fRvXLl7B49sP4DbaMFzy9T4cA2hlkqiNF1FdmMP63ALW8hNo6WnovoVi38C0D5R8Bwm3C91tQXfqSHTryNkdTGsBzszP47uHDmPPxAQSMXAXYI/XGMSLv4a8HUebDTECI3AfYpDU/aLkj6rsbzu5SirGdvuoVCs4d+4sPv3kUyzdf4Beq60i52wmi/HiOPbuWcTevSHN0GH/z3oNK7Uq1nodVDQfrYQJO5NSjn3NRg1urY6JAJi3kigGmvLqYDNsTTeQzGYwPTeL4yeP48jhQyEdwEidy15VSKWpJTD9RuIUzAvBb3fzqWEXKt9XQBl3hRTQi0dxBH0CJiNmctlUoXDSYjRMgOXrAgqkbcRhMZ5IfeH3G+I8yzFJdydR4TDC5GeRkpEmHVTxkG/nOeUxSXFV/HvxI0nL0N3y9wLuEbBvJ5Aj3j1iaMKqVUph4aPL67BSwZ2bt/H1patYe7AMrxfSX07gwU5baBRzqDFqn11AbWwGDSMLq29gH5IYd10kem1ovSbgNqE7DZh2SxU0TVoWTu1dxAnKRAsFWKapqC0+OT5xLx6hZoY4PaNNXnIERuA+5IBtg7tqqhHeNS4dDdtN3P76Fn7zwQe4dPWyWs5vOwrqLJAJE4R7FhexZ88ixstlpKwkXMfFaq2Ku9V1POq2UNNcNAMXlVodbquDaSuFPdkiykYSSU1XNx0dHMuT4zh28gReP3UCs5OTIYgzQqMyYtv50FAArx7Rz6HAbxcBPg7u0kNVKj0lauPh8Xsxcie480GgJJfNJ0GAAEs6R30VXVcgGiYNw6fs61ka9yFP7zd6roo/TDwRy1UFj1VoGn42tfeisonnEuR4GOH/PsE9vASkt4Cg/U4NtDovEe/NwGR9bR1XL17G1UuXUN2shCohz4VrGWinUqjlC+hOzcCY3gM9VYLuBCj7JlKdDtCuw+/W4TtNGH4XKd3DGJP8uRwWpiZRpJsni5g0Td0DXMVIS8K4F89Q1+awJ3K03fYIjMB9yIthJ3L3VNsyKhLqjTpu3ryF81+dx7kL57HKRs5BqJxRtxeNuviDMrt8FuMT49gzM4eDMwuYK08qBcNyu4K1fguPO3WsNGpY2dhAs1pHUUtib2kC4+k8Ejq13T4K5RL2HtiLY8ePYf/cPIqptHLfCwtkQ1tbJWLQ9AjcI7/2ZxSRfOOr7zK4D3LuBHDxixHpIP9P8CefzYmRIEAag9WpBE6ZKAkG8TZ6Ap5x/n7IU/nUzdTYxUrlJZErVBL/L71emQCW5C9pGQK4cO78zmoijiJU0cP/viJ3kePySyphl1hbqFw6aZqQk5fuTe1OG/cfPMBX587iyrWrsG0nkjka6JgmKqaFbr6I9OQcCsUJJDwNSbsPs9NB0G3A67dh6H0UsilMl4qYIG1mJuDaNrYqW1hbXVUTBldiJ0+eVHmKeNHXoLfP73IOR+99cgRG4B4bj+dGfxErQ+8OPnvdLu7cvo0Pfv0BLp2/hCqbLffpda0jIKjDj4CeS2FaFAQwLBOT+TIOTs7h8MwiyuNjsNM6glICFa+H1UYVt+4/wNLSMgzbw3xpSm2fMCyk0kkcOnIIR44dwfz8LMZSWeQCpk4VrKtvEXqPxbwQGM1Hfu1DRUevENwJiEyqEsClHyrBmuDOv9PLnc6LpJlY0k+AZ5THSJ3ATvCU5tlxCkR9b1m5DNHE+2kAIPSOrAQE2Bmpc0KSbkz8/9LSkvJ05+8EdSp7RC3DMZYcAY+RXDwpJj5fdUJVHFwE3KVCVYF79CJ9XnSfDqahnJc5I9f3UG3WcPbKJXz4yceKqqEhjRGYcAwLVbaF1A2kC2OYHJtA3qCqxkHQbSKh+8jlksgXMyiXCihmCyrnYzc7eLT8EA+WlrC2tvpEYxOCO3MqEsEPA+5DXbsjZP9mrBb8ruvZfyOD+qJhkKBOSR57PayureLLz7/EP//6AywvLW/TI2FZqK7AvR+4CtTpxaF8XQIfad3CeKKAiUwJ2VwGufky9pw6DGssh7bm4vHmJh4/Xlet0ejnmNRMFbnPL8zi9KlTWFhcQD6XQVYzkQusSOoWgbtQMeqcRG3O/sDgzmhX1DLUs/P/BHVxfyTtQsCnAoUTAB+kMQicYqfLnwRKgru8T33DSH0h4P5tEnNy3oXmkSpTRuw8Xj6F8yclQzti8Zsn7y7NvEkn8SFFTwLujOwJ/r8PcH8C4KNmMYzQw5mf3RqD0OuFeM96DOUgGaDj2bjzaAmfXjyHW/fuorZeg98h8Ouo9h20fB+ZQgHTpTKKhol04CKb1FEqZlEaLyJXYs1BAnbXQWW9go3lNTxeeYxKdUvlUBKJsB6A48UI/v3331cRvEzeLwLvF73+bwSCdv1rjCL3aEhfBO6yjO30etisbOHa9ev45KOPcf3yFXSbHZhsCCztxVTSKlB9TGlRwF6lYSTvwQh0JAMDCRrxWjpKM2XsOX4I5YUZpMfL8E0TthvA7jiwWx047TYsXcfxo4dx/PARlNgcwjCRhI4M21yzF2rEs/o0xoru5W1Vxh8Y3CWhSuAmsDMKjvOtIockCIg6hUBOEBcqhv9nUwz+TegcAfd45P5twV0ombgGn5MOo3axQ5CKVTlOfo94025ZTch2HH8eK8FfpJACUnFufrfu6Ch3+kRTFQXdMXBn5M7WqIzcA1axsnZDZ0sBFjc1cPPhfVy6ehV3btxFZ4uNxz3UbVsVPxVLRcyOj2EilUIplUAum0A6l4SVtuAFARqNNtZWN7G+uonqZhWtZhN9h4nwsN2gOG5y0v6zP/sz1SeXyeZ4B6ungfirGKvdGvM/9v2MwP0lwJ039PrWJm7cvoWzZ8/h0sWL2Fpbh+6xYElT9qaKJmFEGfVQZXU/aRoqFFT5v7JVD50libuZbBqFsTIKk1MozcyhOD2L3Ng4EqkUPM+BZ3eQtjQc2buIxel5ZBJZGDBgIdS0izeMshWQvqDSoFi64YRI+PxrcRcpGQFcUcsQIKWISaJtAee4QmU7ER1RMQRrRsTUtfMZV6XsJrjL8cYHiCBNII9H7/FJQCYCAfX4e2UVwNcIYL8PKaSAu7T4jdZyO5p3qV+LbAp8lxYFUT92PUDX7WOzUcG1G1/j8rmL2Hi4gW6vD5tdH1NJjI+VMFUqYSybQco00Hdt9NweunYbjXoTlc0KNtYryqXUtt2wU1TUClAAmuPCCfo73/kO3n33XUW/SY/ceJI9TrONwP3bTyEjcH8JcCc/fPvePXz65ef44ssvlezRYRk6i4d0M4yKFOCGegUF5aRKDF11x2EkrzxodPKdYePrJBU1RhJWKo9UaQLFhb0Y37cXYzMTyOYsZM0ABQuYK5SwMD6DQqoIk9CuaTCMyPUxAuaQb42+kGJlnnBp/4OAO2kKoWX4uwCpRJSDVZ0C2qKMIdfO5TzBPd5k+llf5mWX8M9asRGIhJrh5CRaezm+weTr4H74f4I7Dc9Iy8ixb6+oXjTZvuQ9HQf3MIRQIx12gozq1tRlEoG7R7VRlIBn9O4GHjpOF4+Wl3Hl/BUs3VtCz3aRzOdQKBdRpoKJtsa+h1qlgpWNNWzWaaZWQ7fRQrfRRqfTVSIBn9YXyjySBVRyQYa9bTkmnOy+973vKZAnPSPVvXH+PT5OL3tOX3Lo/s1uPgL3lwB33uzXb97Ehx99iE8//RTLD5fhOo5yYExTx2taoT1A9BALDgI8qwNZPNKn2ZgB9OFCc11kAh0JNu/QU/BzRZh7FpHevwe5mQmMFZKYNHwUXBuzZgqn9x/G/OQ8UmZatczTTF2B/BPtkgYv1V2OyIe9E0QKSXqDyUe6N8ZlooNJUNk+Du5i5kVgFy+Z3bjR4/sYVMnEwVvyAZIrkJXF08ZA9sOf8YmJ1atU/sSrMV9FNDoYucsxSrfG8DIgTQMQ2ENJZOSPpH4nx+6iXqvh4b0lLC89Rtd1kS7kkM3lkDZNmK6PVq2Gr29+jaXVR1itbqLdbCJg83bHU7UYKt+kvN6jnI/cC9FnchxIZ9Fa+e2331YAL06c0rgjPj6vYqyGvYb/tW83AveXAHdG7nfu3cUnn36KDz/8EDdv3ECnzchdQyaZQjaVgcXmB4qWCdUrygWblImhg1YFDkvADU21TrU8H3lXgxXo8KwUvIlJeAcPoL0wDTufQoG2v+0GSltbOJRI48+++32cOHQC2VQOGqN2gnvEqcfb4f0xXJQCdvGEKakZ/j8uY4wfq4Cn3OTCuYs75Lfh1GX/LwKJp0XeEr1Lf1dSNfHCqfixx6kHHieThcwTENyFeoh3HdqNSSr++bJq24mTw1dlbg+Nn0MO3qNJXYi9UTs+9l0N/ZHarRbqtTo2K3V03D6ChKXySZbrw7T76FRqqlJ3aWMFj7bWsVXdgst7wA3ADgJqCqFdg0arYdphhytI9fdo4uM4so7h9ddfx49//GMcO3bsiTEaXN3s9lj9Mdwfv49jGIH7sODuh14pG5sbyl/k408+xpeffY6V5UdwnT4s3UDCshS4W+wYZFkqsvbVhR7a7Loa0GfCNJlE37Bg9QNkeq5yhHTIsS/Mwzl9HJU902hYOqx2E7mHyxh/8BBvJDL4n9//Cd5+7Q2UCiUF7ipy/yMG9zi1wepOJlUH6Y14pDwIlgKGjPaexm0Pbv+sG+ZFyfLBY4hvz+8glaov2g9BiNcIfxLcGbEzocqfg0U7uw1Ysbzpc3BjB9zVAjOiZXwvgO04qNcbWFlfQ7XdRstz4VgGzHQSSYoAun1kbB8ZJ0C7UcdKq4IHm6u4t7yEtZUVOM2mmgDC9rxcqWpwKAGmz11k+SuTN1fApGKOHz+OH/7wh8pLiLkJRvQyLnJdv2hS/n2A5L/WzxiB+5DgrpQFqpClo6r6Lpw/jw9/88+4fuUa6rUq3L4LnwoEdkdNJpHMpGGlU9CSFnydkXqgfD30fAH62BSCTBFB14W3WUWtVkctlYB7cBHem6fRW5xFnz0qmy1Ydx+gdP0mXu8H+E9/+lO89923MT0+pqJ2cvl/zODOBDSpGFIylA9SfRLXkg/eNIN0ybBR9zA33zDALNHl4HE8K1p/2ufGcwkEMEr/yDGLyudVce4D/bK3D03omrAhV1TARAuN8MuqHwT3Zr2Fu/fv4+rtW1jttdHLZaCNFZAvFDBmJFBoucg3+xjzdCQ1A02/hzW7ifsbj3H3/h2sPFxCb6sC0wuL6hQNSQkwr9HI7pdjw2uCEzwnP3axeuONN/Dmm2+CXbAYzcfHXpKsuz0RDnO9/FvYZgTuLwHu3NSlLrvRwI2r1/DPv/4NLp2/gPX1Ndi9Hvos3XbZBSeAZhkw0ikksmkF8J5lQEsmkJmZRXLhAILSDLw+0Fldw71Hy6hYOtz9exC8dgzB1DgCLmUdD8nVdRSufo09y6v4T++8i1+8+wPsmZmEZRkK3KVI6Y+RlmHES76axUk0DuNDuGdFD0RRLm/eQW+WQS78RTf4i8D7RTfrYIQoOYF4LkAi/GeBuhwDf5LC48RLzT75ZSp9XmmScKdW6YnD21bPxMHd86DzGlUdwACv72NtZQPnLlzEp5cv4V6/C3dxBsbCDAq5PCZcDaWNNrKrdZTbAaZyRaSnC/CLKaw5Ddx5eBe36ZZ55y6Mvg/d9+FpPjxTh8YewTE3SAF3jgeTzaxaZfROozhq4Ufg/qIrdfjXR+D+kuDu9V00KlVcOncev/rHf8KVS5cVuKvuQcmwW7zje+j2bTjwoacSMLMZWNk0koU8igcOInngBJypRXhmGgEtgDc3sAkP1XIB7vw0kGcDbV1FQaVmB+Xbd2Feuoz/6Y038Fc/+i4Oz88ilbaUfl4lVqUh6vDn/ZVvKVFavLG0dFGSQiHhYAcTaINKFImon3XQLwL++Pueta3Kk0SRbHxiedG+5X3yHv5fqBz+Lq6QYpolipAX7felT1CMbI8XMwm4xyN3tuFjlTWxnVJap+fh7p0H+OC3H+HjG9dxz9LQPXUI/QOLyCWSKKzVYV6+h8T1hxhruFgojWHx9CFMn9yHft7E481V3Lp6BfcuXQbaXRjs4RpRMmGHsjBi54THCZ+TujQkJyXz3nvvKZBn5C4PGadhKlhfeqz+nbxhBO5DgrssYRW4b1XxxSef4b/97d/i4oWLqFS2VDKKeuA0i2/SCTieh2avqwCeSSkrm0FmvISp4yeROfUWKvMHsJnIqEbYXc9D2+ujSQthNtBOpVQWlp7w5b6Hmc0NJL7+Gn915CB+8fpJHJkaRyaVUHa+BPfBx64Dx7e4GSQyZ2ESpYTk28UATMA8LoPkzR+PjCVilgha0QeRt7o4CYotAPlsPuOThni8yGpBqBVuJx7xMtnEq1PjqhbZh0j44kAuihhZccQLoGS4COiilpHje7XgHpIwO+DOyujInCIWuQd+X1WocltdM9Dt9nH+0lX8X3//S1xcWcXGzARqZ46jsXdOVV6bd1fgf3wRxle3MF7vYWFsDIffOomD3z2J/PwYWt0m7l+5ittffQW/3oDJlQEjdwoI/NBCmU/x6ZHaBa5qKIl85513VHOWeEETxzCunvkWl+C/+7eMwH1ocFfxIwLXQ7vZwtnPv8Tf/O//B774/HM0Gw107a6K2K10Elk6GqaSqm8li0N6FJqZOoxcBmPHTqL03XexdeQ07iRTyn8G6RTQdxXHTipG9Wl1WdlqIZvNYEEH5hoV/PniPN7fv4DD+SwyOvl23gA7EadczU8D99834As4M1Jj2T4BnhSNmGoJyBFAedNTkcK/ManGSYDvISDI33j83I5gSr6WChq+h9swCpSKVo6BOE2S7+eDYCKNQuR9YoNA/Tlf474JLpRcSiMQ7p82xARuHhf3w+/Dp9gLiB1CXAHEY+V+GYlSoy/HFgf2XT8f226QOyE8S+q2wV2NRNTIw3dCkznl/66j1XXw0Zfn8F/+63/H7U4PzrEjaLx+DFvT4+hxDni0AZz9GvrFOxird7B3rIzFU4cwf2o/xmbK8HttrFy6jIdfngMaDRj0ngn66Ad9dOwO2p3ONrBzXDgeTKAyofqjH/1IVauyclUsGuLX8Shy//Zz1Ajchxm7qPBD3R4EIzYavnkTv/6nX+HcF1+islVRXjOb1Qrsvq0aaiTSaViZNGCZKpHaC1x02LR4bgHpt3+I/ts/QmVyGkHghb0p211gowKsVaDVO9BYWVIuwVqYxXi5gP2ai5/NTeK96XEcTidVV/mEHjbmkFXFIO88SHcM81V3axsBd6lSJbBLN6Z4hE4gJnXD13jjU1lCQGUSloArnjLcH8GaP6UbE//PbcnV8imFQlI4RR8Ybs99cLLgsVCeyKIqkePxPQR6sSMmIDPaJqhwQuL+CTpiWsbtCPocW/6N4M0JI67m4XvjlbXiGPmqOfdI7LgduVO1sg3ukSuksuAF80KuKmJyYaDWsfGbL87jf/lvf4/7XoDk6dfQOnoAm6U8etTxNjrAw01oy+vId3qYL+QwNj+J4kQepZQOY3MDtYuXUTt/BVarDc3uwu530fV66PV7alUbX+lwoqSK6K233tqWQnLcB1c1ryz5vFsX+R/5fkbgPuQJkk5Myufb6asqvVs3b+Hra9ewvPRQqWfu0C2w2VSdmaiQoVomlc+pxKqjB2jRhCmbg330BPCDdxEcOwmkkwAjzJUN4NE6jK0WLE9HolCEPzeN3vQ4kE1gb8rCz6bH8JOJEk6mU5iklpoAH/Nxf1pSMS4pG/Kr7spm25FhEKhIlyBJaoYgK1QLb16+RrBlJyaCKIGVoCqWuvw/b3yOO99L4BbPd+6TTybmRG7IfXOfTOByn3wQhDkRENA5CXDiYJTO9xF4ub1YDfD9/EyCPicdTj5xf3lG+dyW+5Nm3vHOUEIncL88JhZgCd/+SifbWOQep2UYvatUQgTutMiAFoE7AjjQsdax8Y9fXcD/+g8fYNVMoXzyNTRmZ7CeTqJH7Tp18Z0+QKtf30MmqSGRTiBnApOdJrL378M+dwnOlZuweC33urB9G31+jhlW6srEG28czkTqT37yE6Vzl9WSTPyvdCLclSv8j38nI3Af8hwp4FROqWxF5qFvO2jWG9hYX8fSvXv47NPPcPHCBaUMqbKjkN2FGwQwUwmkclno6ZSK4OuWhfbkNLwTp6G9/T1oi/vgV+vA8gqMSgvFRAbjVCOks2hZGtY0Fx09QGlqDN+fHsNPJ0p4K5vBPtNCSdORpgLlOdTSHwO4EyAlGpfoW/hUAWLq4AkABF9G8aRb+LsAsNAt8ebKBF8CLQFUIj/h+qWzE99HoOX+5HdOHAQT6X0q6hapROW+OIFw3xL5S/eg+LaccLit2NcKJ8/vFgf3eOchoWNeBS0TteiImYeFzbGJ7bQBCKtVWZUagrurBegEGh60Ovi/z13Cf/7t52gVxlHadwhN00KFFJRhAokUYLE5tgWwtgIONM2D6fVRWl1F/vJV6BeuwLjzAFavQ0kZAjOAnjJhJExVMKWCIt43EaXFyJ3+Mj/72c+2wf1ZSpldH6sh7/l/7ZuNwH3IMxjykwT3QOnZWcLtuZ6yH2jUa7h78w4unDuLixcv4tat21hdX0WD0WLgRxRNCkgm0DRNtLIZuNNzSLz9faR+8C66gQGv2YVl+5ixEihzudxsYqOyga16BW7GQuL0cSzumcG7pQJ+XMjj9VQai4aJPDSYsQrA+Nd5lZHiYCXkN4Yx4nRFOUIgZuQeB3ceH4GfUTZ90iWaJp3CCJnALsUtgwqW+KQlBUJxmSXfTzCRh6wWRMUjHZSETuHfOQGQdhEw4TFzP8KrC21A0Gf0z/2T5pEeqvEEYNwTRzTu2/zxN3LgoTb8d32EKzeB+LApNsGd/jIqYqexnSpc6sPXWS0doOEFuFar4/+8dAX/26Ub6I/PwCqOw9mqwV3bUJw8xseBiQkugYC0CZiscHWBVhPmletIfvoVcrfuoFCtIkFbDZ1SYB06ZZC03uD9Ej05tpwM6SlD618+mUwVy+T45PfKks+/60D/K3n/CNyHPFHii61APdZhnhw8K1TpsbG+sorbt24pgL9w8YJqVqCSSW4ftudCM030khY6bB+XL6Dw2puY/ukv0J2cQ9MFuq0uElubMDfX4FY2YLebKroKZqegvXEaqdlJHM0m8ZNsFj8tFvFaKoMxzVCWwHEpn3ylPxZwd2if22goECcwShm/RMGkYR4+fKhucEoHCe6kX/h7PHKP0zm88SVqJmVG1ZCAvOyfwC0JW3lNaB3pjMSx4muSsOXk0+100Wdv3EpFgTtpnfj23IaTEV9jIjDuWCkTDL8LgZ9P/q6An9JV0mjfMA3bPXCPeoBF0XsM3KVJBxP4gQPPBHo6UPEDXG008Ne3buOv7zxEtzQBmCkEW1Xg8RpQawGBAaQzQD4HTI8Be2egGR6ClcfAR58h9dlZjG1sYiLgNe4pOoY1H1E0pIIgmWh5zli8dPr0afzgBz9Q1anxZKqMDc+18PSjyH1IkBrYbATuQ46bgLtLcFfvCR33Qicm2psGcLo9pQi5f+8+rly+hBs3b+Lx6mM8fPQIS4+W0bNteFRnJCw4yTQyB45g7r2fo3TqDCpWCsuUC969hWBzlZoPIJuCOTaGxPQ09IVZBNkkxgzgnXQS/3F8/KHWTQAAIABJREFUAt8vjmHKTCBpCDHz5Jd5VeD+ZFOIJwXW8Qh0WzHDStVmM+xW1e2FfVFtWwG4cl6s1/F4dUVRGbMzM4orJ3Ayap+cmtouS1cNwCNg5I3PZGahUAztATw6DkbeJgEB20AyFapbGJEnkykFFozMqUDio9ez1f7C1zR02m1FH3H7ENyr6ifB27SssFwfFDU1cf/+fbUdeXXSR5l0BpaZUM2g+eRns7ozX8gjQXCnW2gE7hKmhy6N4YgJvG+P37cI5cPV5U7/VPLtfJCOYQemkHxnJzEXrhmgowNbgYYbvS7+++PH+K/Lq9jSEvD75NhtGO0uErUO9HoXbtdWkb4xM4nciYMwdA/dW1/D/fAjZC9fw0Sng4IRwNbZ3MNWY4u+D8PXYBqGmuA40bGgi1WpBPcjR46oCVwSznHZ6wjchwSm52w2Avchx3A7cpf+k+LLrsqNwhuIdI0quW80Ve9IAvrde/dw/uIFfHX2Kyw/egSb5lOGib6ZRDAxjYm3foAD7/8MzYkJ3GnU0X30ELA70AtZpApsFF1AMZlGOmHC0H3kDV8lVP9kYhxvjk1gKplGij42A9HgILe7m9FPvDFE2MsnehBE1LiEkx9/kJZiFMdot1atqQmwb/fVTwJ9z7FRa9XweHUVqQxVFHNq7EJwn8LE+ERY3cnm2FGDbAWUmoZSqawcC3vtLuyerZpPhJp0HZlsRr3GZhEEmlSKAGug2+sqIHbdvqLNNB/IsTbBMtXqi1YSXGkx0qxVq7D7fRRKxTByZ4ESAjQicO/atgL38fIYMpksErqFhBG6gybSbD+XR66YV8VturJnHuiCSEhnH4CoWWII8tHjdwH3+OyrgpAoEFHQHv7r6WyfB2z4Gr62bfyqUsU/rKxjdasBd32LMx8sPYG8lUXONwHbRc9xYOTTmF+cg+Y08Pj8V2h+9hkyD5ZQcmwkfA8tr4uW58DpO6rlXi6RUqsvUi+0GDhw4IDycafGnWA/qDSK02e8ZqWmYcjbdLRZbARG4D7k5SDgHgbrYYNhdTNG3d1V5KV4ZsBT1Xi28lIhaF2+chmffPKJomser6yorjVdz4ebySN94hTmf/GXsI8dxVoyCbvTVTwlo70JzcCCB8z4Psbho2jpKKcMzKUTOJDPYW+xgIlcHulo2f+0ZN2rSODF7WXppiPMtuFH4B7BPYGQNseOFwJpZbMKh5JPavltV6mOeq6NrXZd+YObSUsB+tZWRYHreLmMYr6gIvdUMgUraYWqC6YF/QDZXBaZVEZ5ibfqrW2DLxq3FYoFlErF7Qg9FY0RwT0daemr1ZqiDPKq81MGvU4btXpVTTguwT3qi5thQtwyCJNqoqo16ni08lg5Kk5NT6sVRMpKIelbYYctRqqZFPLjReRLBHdTZb3VyiNqDxgaNeuqyUvY5Fwi+N8V3ENlTLi4jHh2Hmm06vDYeQlACwE2fR8P+31c7fTwUb2Jjyt1bC2twLvxNbC+AT2wkC9Pozwxi2S+CD+RQDGdwN5SBt3VB7j12YeoXDiHxPoGUj0HBhOm9MFnxzFDw/hYEQvzc0rPTvqFkTopGDVeqdR24Vk88IhH7yMp5JDg9IzNRuA+5Pjt3C9PTyXGGyFIxSOjeNIAm1ubuHnzJi5dvITz587j2pVreLSyBpbY6Pv3ofjzn0F/8zvozs3BgQHdA4ousNcNcNjTsFfTMJc0MZEyUUzqyFo6sqaOPPXu+dx2Qm+wcbSafKKIftcjd05iijwKJzQ+2KxENSyJGF9WKPYRoOv3UW82UNnYgtPqwfIAqw8Erqv6zDb7HVQ7DeUeyAIw0h4+2/GxI5NmKM57ZnoaBFlVdGSz6KgXtrlLpNGut9CoNeE6rjqWRDIRauHLRcXFM6pPJljRa0RSyoT6G1Uz/ElgLxTy8ANOQo0wT+LYqDcaasJIpFOhfXMQoGPbqLca6vuk0mlMTU2jwKI1PYGUn4BJs/4ggJVJoDRRQmGsCCNhIAhFIyG4RzQMdSeD4L4duL9k5B4tlkJc37aI9KEFsrYKV1J0JrU1DXXPx3Kvhxv1Ji7WGjjbtnHD8dCtVOHevgP3wRK8ShNGkECqOA5zdgHp+XnsmypjNglsXLuIe59+iNbNq9C2tmB1HaRhIZfNI5crYHJmHEdOHMKJU8dx+MhhZaAmstC4emiYIqXdvHaHvN3/TWw2AvchT+Mw6pDwvgqpAfld1BmM4umMePH8BXz84cf48ux5LK2voz9RxsT7f4LsmTfgzs2hZySR8nTM+wYOGSkctJLYQ4lgQkNWD5AyWBASlqZYBPlsdruqUm6a+Fd6peCuAD4EDdUHnJG7gLsWNhX0dB9dz1WAWNncgtvtqR6yZj9A4LCBOO0ZDPiSNtB1tDttdDsdNBt12LajePeDBw4iR9fAAGi3W4rvVlWjiQSajQ5ajTZcNosAVz3s8RmOC3nuPi2ZI+qKyV2+R3H9VTa/7sGkoVsuDTNpqCI07p8A32w01XfLZjKhJz+j0n4/TJA7NpImwSyHdDqDZCKNjJ6GRjk4TcMSOkpjBRTHSrDSpupVqsYpitH5U7VIHIjcfxdwj9S6O375LJpTRJKvjl+BO4AugIbr4V6tjour67iyWcOdnotNw0Jf09HutlFnI461DfirVaDjQiuNI33gIPYuTCPTquHRV5+g+tVn8JbuwWzUkfY0TKSL2De/F0ePHMPJM6dw/PVj2LN/D8bGx7Z5dQk4JEIf0S5DAtC32GwE7i8xaM8F+JjpVNwiVgqLGMUTUDY3NnDn5m1cvnIN525cw91aFdmjh5E7dBjJqWmkMnmUzDSmjTTmzBSmDBNlVjzqHkzNVRrlQFMtQMJkICkIJu7yeQV2g5HQqwR35ugUPaWkdlArDnXzKi112BDCZ/QeuCrS3dzcUDx7AhoMWijTJlk5aFowEwn4ijMP4Lh9RWupoqW+o0B9YmISiVRSvW73qGZxkUzSNz+BbqcHu+fA9QhmVM0YSCaSSNLWgd7irqf4ehqtkTKzTEvlRjrdjuKGYWhKj22mTHX8ts2K1R66rY5aPRTyOZiGqbTi6twyiudEwt65XLGYFlIqL5JRiV0mzum3XyrnVeSeiHyAGLerBkWx2F0493g3LRXZf4vIXbXmjeS6/B46lTHRuZBUq4rcmRR2XDys1vD16ibubdWx2nWw5QNd00TFCvDY9LHBxHe9AzR60PQkUmOTKJs62pcuoP3lJ/BuXYPZqKKga9g3NoXXDv7/7L33dxxnliV4w6X3SHhLADQiRcpQpqSSKZVUVtXVs3v6P9vZH3Z2z27vWTOzMz3dXV3dVaqq7pKhvERPgiAAAgQIbzKR3oTb8158XyKQAkUnUmR1QicFEIh0ERk37nffffcdxzPHn2EZZnRyDJn+LEKxENcz/Nk/kvh0smPuAXzuY9MOuN/HTjvoLhLE/Z2Zcrv2bk1yZWxu7+DqjVl8OT2FLbLb9Q2gZ2gUmVQGSSOEFAzQtNQYgAB3FVLSngVHc+CQ9kEQwQ4RjTVjAniZYdLeDOKXZ76Lt9uSADwpl4uS5BaSA//80VXkp7ZcE7ulAja2NlArVzxA5GIicUoaaKJBUXXOFWeAolGEVPZjZxItCTSoFAymqaLe4Y2JU8glpKowTQu2TcDrvTsKuyIwJ5mHvrxQL8+GSAVWAmy6KBFAU1MaJRiS20/RPdjl1ER6PNPiHoKwEeSB5Lwq4fZ9bzaoIgCe0xUNHWrA4NdL83KNgIZ0OokkFWODVPCma4iwQraB+96UU9+80/sBdy6Yiguut3YUhW16j548Q++76boo1hrY3C1ifbeEnUoduw0L+bqJvGNhWTExHQBu6Rr3YLi2CoMkF9WAtrmJ3B//COvqOQRKu+iPR3BiaBAvPnUSL598HmPDh9CVzSIcj3CAHs0dIGnsdvLL3cgy38Vn9t/jY3TA/Ts66n5wP2i4Q2tIBUkVjoOmZWGzkMO569fw+YULCEXjmJg8jL5UFjE1gIitIAqar+qBoAkTDeoq1F24FEJGfmmLW0y4KUSy93ZpRjb73Olttuua8v182/2IGIpFxF4Rr3UH0fSlOGjaFnarRWxsb6Ak8mFIXvHGEOqwoMMhEKGUccH2eVXAY+BcUBGQtP19M2ldb8Czw4BNFxkCXFFjEPM75UvhfS/4Mr+vVhyP56XmgeU8SdorQBJ/NxQNGgG54/IYRMMFqJQbgAZdgDsVhhVOqiTkBmzNhU07RKWu2BAymSTSyQSC5HQiPz1dcFqquxe3y8VhUaXYp8nfI3WXkownwrRohbBG0o7xLoh0Mx0LO4UidnaLqNbIkw40HRV120XebGDJqmHarWHBsVGwFVgwEFCDCDsuautruPXFZ1BXbuFoMoofPnUULx87huOjhzDY28+rF40u1gTqIpLa36HlX0l2CqZ3Oisf7O8dcH+w/bd3GrVlgUtw9DcXeS4bh4tatqKiYZs8qOPMl5+j0TQx1D+AwUw3koEQwsSWCLwFIzbJjaaRhc2BSXyXCoeO57Sg8X4E7nSTLgT5wg5umvnmm74fcPdE9RYmth5UZoizJKM4qDs2titFrG5tolApi3mdDs9TbsJAUwnAhAbb8eZuklhDk3xI5aEJVuSvbtJwcQIm14arKsyOia17I9xUZpfee5VFZN86gli+eHWtLmMGfLq/yhcQep3E3rlxhsCdpCPbge4oiGgawooKw1F45JwH8vR3Af6qCp26MklwVyyOu42FQujpyiCbTiIaMBCg+3N+urc6oO9soW2Vn+XvBXt/YHD3RMSW850uOuLzR1LUTi6P3UIRVoPePRUEdF5FVR0bOdfEOixs2h6bL9dtNJsOnKaJZrmEZmEHvYaKZ4b68eyhUYz1dCMZjSBIEQXcEevZO+m5/Z8/eXGh3/klmU7B9DsCobaH6YD7d7Rf/cydTyrBktofnkCJiloWTYmHi1yxgMvTU1hbX0NQ1zGc7UE2mkDYVaFZVLEULgddgakraGhA07VZkqEB2+QllvGz5BsmaUYWD+8G2G+nyd+JufPfhSQjg6m8FhmvaEeg3HAc1OGiZFpYLezi5to6tstFNGBzzn3DpuKegZoSRNXRGdwJ+CiDpyFAva4onK3T9K4jLNcQuBP4szRD/FchhwqhuqdpM3Vuobls3iFk9W6ki1N0MzF1AhleHZCgotPQcY0dJgoBN7t/PCCngDaNAjwpoRkK5/oEbRea4zBwB1UXEcVC2DURgIN0JIyhnm4MdKWRCgUQ4W3ArJ8uyHQBoZsH8N6X1Nq97/LidHcfUHkMWHyhZY+8mJHkxDdi7tSHYaJcraBIrJ2yc0xy1FBhV+WlEh27pqqgpqmoQUGpYaFQbaJcb6Bar0NxbHQlYhjpTWO0J4NsPIowRQ3QvuRVpveOWHYTr4NXR77zQYJ7h7nf3bG936064H6/e+429/Pr63727rGoPccCeY1JdqBGmOX1Vdy4MYv8zg76Mln0Z7KI6GSr85pP6MQ1KeKdWKbhDdyGZUGxLc4MoX9SMwgVVSV7ly6EOxVUHwTc+f2JE5iB1wVqjoOyZbMbg4p2uw0Tm9UalopF3Nzawla1wquPhqqgDgVVJQAqsTYcDa5CGfUabJpmxdkngKmpvC2/ZwHOFF7FKN7yp9LP4nf7GO9eHDIfLrq/jEgWwyo8qi8uSzoL49SN5l1J6Iu1IYeLp/ReVQcIQkGCAJ8KuDYVuul3QMI1kXRMROEgFQphOJ3CSDqJnkgQ6UAA8YCGqKYirGkIMZNXmM0LQYoB3evAlREF9yC8txpQvWPSuuCqrpCdHNiOiWqthkIhj1qlynZTuhrTe1I9Dcy7n0LuJQ22oqFuK6iaNJfAQs0UowMHetHTnUQsYoCmPXrWV06y4ftKBxBdGOWFSp4XBxX8O8z9OwYhSRbcO1G0h/O8f7GP2s7g/W/UU25cBkG6kV5s0jJ4N4/rc7OYm5tFMhLFcP8AktEYs0Y+QVwFFHvgkPygE9MkPLJBPIvGpdEXuRFIkpHau38gM59zt1nmPyi4s+5NbM91UbFtbJQrWC1WsFKpY73axEaljrVqA2v1OrYbdZQdG01d5QHgDbIpwoCr0I2M4MS8VbgUI0BDSFjLFjeuWgpwFn/3qp8C5Jkx+sGwDRjl++fv4qrg1aVFHq7ngvEe0wNygVke4tF+bulNxHa5UuuxU9ebGxqm8XGOhRDdVAU9uoGBUBD9kQD6IkH0hAPIhgPoDgeRDYeRDBgIaiTzOB7AM7gLseYembvMcfGkMmGb4bqGVyymlUnDqqNY9mKSTdMb2MHALlZgXHag3UBM3lHgKhpsaDBdBQ1yAZkWVEPF6KERJFMR6AYdL69W4RVs6fm8oDJdePilDCXPg4M+hx1wfzhw2GHuD2e/fuNR9/pKaNlMeOCBIrXnF2sVzMzN4eLlS7xEHx4cQm82C53AjutznifaY1UC4FpnpUwT8YZPk7ebmkVkW/ftwLv9hLpXzd1jYl5RkySYquNivVLF+aUlXF3fxo1SAyt1GznTxa6rouSCGbiraXCJ7ukaXAJuklQY2OlGAO4BOw3/bjF1/p1475K9S6BnX6LHOv2uE0EjvePQAvYWxPiOj1xPye97nZ1eh6f8t+/3XO0VNFdeCAjoOWOIAN8rtEYdmxM+KQ+oX1fRH1QxEDYwmorhcHcXRlJJpILU1eowwHvMnY62V0fYf7G6wwfVKyZ4N9JWfMNTqWBswUKtUUG+lGdbKg8n99R2b7Ug3j5/rGjV4nifOTo+pqui1rRQbzQ5VmHiyCHE4hEyMXnXVin9iIUOvVJPdpIl470O3Ed0unWexuuel7DT2R8PdQ/I6fS0ZObWTo9dka2x0qxjYXEJ5y5cQL6Q5xb8oYFBhPQAHHJk2C7CgaCXrUJQrymwyRLJ5nIPA6Qbh5wzUnuX7N3/vm6nw98buAvLIidkOlzwzFsWrm9v4zfnz+PLtU3cMlUU1BBMPQRHC8JRDbY0gvLBSVYhwJbf6Q0QmDFg0zZcedwP9LQN/13KM/S+qRAowJ3J+LexdR+w79vMx+IlwrHUtCc58T1lEqiUovgKLUFeAKvcRsg4JJtptomgbSLpWuhSbAypDiYTIZweGcSpwQEMxCOIsqzjrQaofqDw7QHAnTQ8ebETeThNu4FypYTd0i534Vo8HckjBDyHlxg3gT17KT2UJhbvQuP+gUq1gaZpIZ1OYXxyDLFo2EsiFcydiud8fRHXCa+eIMCdH/seJKaHeiL++3nwDrg/qmMtzeFeVbC1dKbOTGraWd3YwKXLl3FjaYFTCoeGh5CKJz1ZxvLcF4amM5un88RSHbbeeSeXN0eVbnJKEenv7ezdL8/IDsH7k2W856ILiuXaXDSlhpeza2v4Xz/5FOd2cihpYdjBBGBEAD0MqDqgkh1FhKwQMzcoc8VX/GQzuNDOJTNnBBKrldaqRYC/bOiXgNQuy3gisA/z/T+3HXgv4tO7tRg7o5v4kjKNJ8PsAbucSyruThcG1udJp7cA24TimNAcE2GniV63iaMBDa+NDeGVsTGMkxdeUxAiYOWcIq/ceq/gzhStxdxFNgSvhERnbaOOQrHAuTilagm2a7NTSDOoh0DzJDAu8Ij1D10fLJpdQE1jJkqFMq82R0fHMDY6zEFsUjnyPoPSmeNdb71Lk2T/snHrUZ1snefhT36HuT+iD4K0Sko9VC6bqWHHcTgOd3ZuDhcuX0a+VEJPXy+GBweRjCW8gp1mcEMNG8wIWGlJTFpq28KLmBhp7wTuJNEQe/fP9/RbM+md325S07cu6ES0LNs6aQi462K9UceZxZv4nz7/HNOFMqxQFAjGASMKaCFADXhMXAKwZO400IFongRuyeDp71JnlxcAcWHbs5UIkZydHm3MXQK7X5ZpbeJnkQK9aRXEfxcucZZdJK5L0Bd6fIuxS2AXLL+ld7PuJqQbKlqafFPtBuJWA5OagndGBvDj8XEcyaS56zNCwM7X6fuTZbxFg3gd4jMm2TJ341a8Yd+lSgnVRp1jH2gFyO4gquOQZEb1IPq9kGtIu7dNB+XdEgrbBe7sffrpkzz/NCgaszxQ9+rZraYp0YVL78QrDnfA/RGhzL6n6YD7o9rrEtydvWYS+dTEjuq1OlbXNvD12XOYW5hHKBrG+PgEBvv7wYmGdNIJC4Q3nMJDKsITf6MSneBUXCVgbx8BJ5m7H7gfDNypOOyB+1KljD/MzuA/XTyP+WodTjAKBKIea9eIuRuCtQvjn5RXCNxJnmEAl9KMX6aRbF7IMBKsW6xcOGXaZZl9rF2AeQvT28CdMUhQ1hZzvw24c2HVJ9u0tHdCV3LZCOdNy5tIj2MBVh2wGgiYDQypwM8HB/CLiQkcp+HeBO4ta6QsqN6bLOMtNjwbJFshZScTOa0aTVRKZezuFjmThyQZ0uG9ojVJg+TA8rqBHeojcCwuEBOZIFmwkCswwCfiSZw4cRLd2W7oVDeh+3vzQLwVpKdfea5U4eFnQYZJSefrUe+BDrg/qj0uwJ1OHk7U5twPwhSvw9KxHBQKJZw/fxHnL17k2NnRQ2MYGxtFMhlnVwJDuXgcT0Xwhh9LZs4yiWUx2Evt3Z85852Cu2CK9G6o8WW+VMQ/Xr2M/+v6dSzVmwLcIx5r14OAQnnoXlxASzdnGcYrrnoFVB+4s0wg2bu4IDDz97N8CRkilUtCiPx1yyF0l+DO2CSBe6/Pc19h1Q/msrAqwZ70NpZsxHcBdizPUIaNVYdqNdELBz/r78OvJibwTLYbWV1DmNVt0bUqXEP3UlD16r5eNo/ndRfvhYfINFAqlPhGKZeSafs7gCnBk9i87VAUcwMKZfdoOkcwFPMlBvm+3j4cmpxAnORCioKgngGhu3szR+Tqx7Pnypz6Drg/KpDZ/zwdcH9U+12CuwB2ZkiSbYpKFAWLXb8+g6/PnsX65iayPd04NH4I2e4uGAGdNVmXnBhiyIO4PrRG7Elwp7dE2jvH3qZSXjqiAMb2gup9ae4C2AlMqJu04tiY283jv168gP9v/iZWmzacQNjT2wncNR+ws+4uXDEE3gTqzN4F0Pt19XZwl7IMvUE/0O9rAxIHVKxsxNVg37f9oCliByQQy9pIqxHI55g5CNhbBVahxUurSmtb0sKJuZuA1YRqNtHlWHintxu/npzEC7096DY0hFwB7gTs1L5/j1ZICe4k03ljID2rJgWl0TCTYr7I0gxJgPIa6GX4EKiTrOLJfaTFUxQzgXuAhptUq6iWqpx+OTI8gkx3tzc2UOT6MLjztVVcFH3XUa/+Lf97VCda53nkHuiA+yP7LHgnHC+dRRt4qx1bgBOBMw3zuHTpEubmb0DTdAwODqCvvx+xWJTzZGjak3f+eF1/8ks+lsy1ITZPBVUCd3LPkFQjmbtfxnlgcFcclB0H1/M5/N/nzuEfbi5hg7LadSqkCtbOThnJzOk7FVXFdwZ3UTTlwqm/oOpj7iydyF5OX0MSg6AsyrYxdD9z9+sCfs+/ZOp7Aru3SyVAegfNV0AVck2rqCp0d5JjJGuX0g4XV4Wjhtg7gXujji7bxDs9WfyHIxM43d+DHkNncPecoATuXpTC/TB3D6C910SflUa9jnKpjGKxxKmke4sb2Xok5SjRVc1JN14ZhC4OuR2aI2uyzj46PMoZ9jwnlrR66jwVBWsGdyHN0O7ydPYOuD8yeDngiTrg/oj3vr8NWw71kF179Dcqei0sLGBmdoZPLAJoAvdsVxczJgno/vt4WLQH9BLEKYaAWPu+Ic0COO7U+n1nh6yXMEiBXmXbwZXcDv723Dn8880l7FjUiEQ6exjQA4BO4C6YOTE+9raLG9E7r03z7mWZdmlmH4v3HdB9jUsH/F6CeKt3WGjvrd+L+/gtjjJ6Un6XzF26ZORyin5PwG6J7laKO3CaUJt1ZAncu7P468OH8MJAD3oCOkICJCmEjKyJ99PY4++Ops8WjSqkiAGaJVCpVFmyk9KJvIDsO86iUE5FXfK+kz5PQ8IJzGn26UD/QGvYd+s13qY5zn9adfT2Rwwy4uk64P6I93s7uFMzidTM6W+kidKEIAL42dlZnj2azmQwODDABVJ5f2LidPO7X/wnqszvkM4Zuq/M1P42Bu9fCXz7rhEJgwAKjoPLO9v437/6Cu8tLiNHVh4Gd2LudBOWR2Lp0utO4E6ITuBOiwr2tvu6UGVDk/zOixUfc2+5a4TEIwF/H6pIJt8GL9/G3GVh0H+xvCdw9xVbuZ/Ba2zyvptQzQYz97e70viryTG8NNiD3lAAYVF0lKB5v+AuV25yChh9fopFr5BKf5OkoLU6aM9A8jlb6H50fyIHIyMjPC/2G7lFHXB/xAhy90/XAfe731ffyZbt4N4urfC0n0YDa2truHbtGm7dusWgTCdXNpttXQjoJJXgfrsXRo9NFw5ZXKXv8j7tzP3empiY2jLfpdiBXdvG2a0N/G9ffYX3l9ZQoJly7JIR4E6aO2vqBO7C7y7iBnj9/hcD7lJ39yQNbw6h7bF3yqtxyQ7ZRMa28GYqgV+Nj+DlwV4MRkKcPCkEJs+afxeg2X7cZe8B5+DbNg87oTmwBNLE4ukx5QVeHn8/2/fXY2h7Ihn01dfXh8HBwX3zAu608vtOTpbOgzzQHuiA+wPtvnu/s/9k8ssp8sSk39GJSSfl9evXMTU1xeyJZlDSxHgC6Bb74ojbPVbaDgj0OPS45HUn9kUFVpJ2DtLf7wXcvZqjJwM1XAc5y8QXG+v4X778Cp+ubqIMkmKk5i5kGWbogrlTQ5Nk7vTyGfjbZJknkrkLfZ33zwHgDgp7ayLlWng1HsNfjQ7i1aE+jMSiiFH2uVTZ247r3X7K/OBOK0CSYwig6fNDTJ6OO+vlvuK6/z5ytScvDHR/WvHRZ48GWxNr9wfS3a7b+W5fb2e7h7sHOuD+cPfvNx69Hdz9AC9/JuZFWunNmze5uErsPZPJYGJigr+NdwZuAAAgAElEQVQTWB/05QdoLqzZtpchoih8ktLUeSnPyBPzIJ/7nfR2Ce5eYJiD7WYTn6yu4n/+8kuc3dxBneSYQMSTZZi1kywjmDv9TAVVGXgrc2T+IsBdeuC/BdxdEzHHxEvRMH41PIDXhwdwKB5DQqdgCVHvfEBwp2NOMgzVb4i1cyFV9EO0F9DZ8WTRJCvvc0I32p7uR59DYu0E7kQMDgL2+1lhPOJT7t/t03XA/REfegnudDLRF50wEkzpu9TQaVlMA7WvXr3KDJ5+TyfZwMBAy9rYrrH7TzRpi6THoeci7Z3AnXTTdvZ/N7tg34VDeqpdoO462Gw08NHyLfzHL7/EpZ1dWCTJBGOAJvztBOYyTpc1dxEWJjNlWK6RzN0X3dvqUm3zudMLfhDN3bfy2Hvvvr779r/fi+a+r8GJOohEQZWONw3zgIWwY+K5cBDvDvbjrdFBTCYSSOqa16jLb+3ggqr/c3K7Y0bHnVg7sXUCdyIJMnfIX5/xdqEXW0HbE8DLf8siLH1OqJBKAC/n897uInE3n6HONo92D3TA/dHu71ZBVEomtFT26/DypKO/08lJ7J3AfWNjg9kTaZ8E0CSvyC8/C5fLbMnearUaszjahlg/STuS/bezuPZVxO0knz1PNeW321ir1/DB0iL+49mzuJ4vwtIiQEiCuxfly+De6kQVGTMiddALEHsMwJ2RS7iO7qugSkXTPY+555aRWTM8V4onNemuiRNBA78a7MNPhwdxNJVCimawyuEd3wLu/s+KPD7+i7wspJKkQjduWhKkQR7f9hUe3Ye2o9/T54YuDMTeSYqRhVQp5fnBvcPaHzF43OPTdcD9HnfYg24uT05iU7Lg2c7c5UlIJ9jOzg4DPDF4AmoqqhJ7J6CXJ5d/sjydnMTWCdCpoCZZGD0fXRRoMj0BPFks5YVEvic/cLTLNQcxd8Kuim1huVbFv87P4z9dvIDZQhU2MXeSZcgpw552Yu48RFT43ekf3phsLx1ShIlxh+r3yNwfFNx5+MUB4E4FVepaVSxvDB9MTBoq3u3vxS9GhnA8nUEmYPAukhG8t6uBtBMB/+eR/iYlFb9D5nYgLJm6lO/o/vTZIXCnFSURCblS9D+Gf+BGB+AfFBEe3v074P7w9u1tH/kg9tW+sdTMCdA3Nzdx9uxZLC4uMmOnk66np6dVGCVwl6Auvc0E7HSj+xPA0xcxseeeew7j4+MszRwEIPS8cr6lH/wPAncipSXLxM1iEX+4MYe/vXoVC5U6bLJBUneqEfTSIDligLBcZsgINk/gzqz+LwDciemblAIpmD/bH8UILZ76RMH8Ft9U18SYoeDnPd345cgwTnZl0RUIwJCOUCGZtAO3vOhLMiAJggRb+jcBMxVRCdyJjfsLqPJ4yvv7mb902NBnhYgBNb/R54xWef5VYvtqsQPu3wOA3OVTdsD9LnfUd7nZnQqW8iSWujktr69cuYLLly/zUpuAnfR3Ko4SqNN2BOJ0YtPJSTf6N7E4qe0TUyfmfuLECdZRadaqLJDJk15qs3cL7qbjYrfZ5OiB927M4f+9Po2lagM2OWUoDZIyZcj6KDV1Ce6tgqpk7qKU+CQzdwJ3ydw5gtjxZiNytroP3DUP3Id1BT/p7sK7I6N4JptFd8BgcCf1ijNZ2qyQfkLgL8pLyYWOJYE5uaxotUcXdjr2MhVUbsczY2UDViuPxhsUQvIM3Y9+Jp29t7eXPyf+jmb52fQ7tr7Lc6PzWN/dHuiA+3e3Lx/4kfyg75dvCKSXlpZa7J0saaSFEqsilkU3ydDpO92k9Y0YOkk41KlKAECMTI7iowIr/SwbUyQASA3/2zV3qhU62KnXMZ3bxu/mZvHf5+Zxq9mEQ7JMK+pXhIKxQUZOWBJSDTN3kQrJwzieYFmGO1JFwxLJ6/Tvpiiocp4LjTgi5m5CQRODmoIfdxG4D+P57m70BgMI0Hg6MUf1duAuayrtqyr6PR33lZUVXulJYKdCqNTL/YzfP7Sanks6tOizJO2P9Plo74voMPcHPs0f2QN0wP2R7eo7P9HtwF363skWSeydWsKl84X+RuBPjItOTPqiE1IOzJZTmQjst7a2WkU2Av3Dhw8zkydGL9l6O8D7T2b5MwkPXme9g61aDVc2N/G7GzP4zdItrDZND9yJvasky9wG3On3PNRapEL+JYC7HKQtowfIHGNSDDCBO8kyNqCZUNwm+jUXb2Qy+OXwCF7s7kZ/KISg60CnaVucCrm/q9bP1r0YAZFDI7ajvxNrp88IATxdyAmk6Uayin+mbrusQ9vSZ4jkHPocUE2GsmT8rP2gGsztXD13/qR3tngUe6AD7o9iL9/lc9wO3GXXqvS9z8zMMDOT3mOpz9PJRgydTkoCd2Lk9DcCfTpxl5eX+TvJNsTojh49itdeew3Hjh1rZYZI0DhoSn0L3MWgn6ZjY6taxYW1Nfzz3Cx+v7aGNdOGy5EDBO4BMTZPWB39zJ0baQRzJ03+LwLcqRvVV1AlSaZJ2rsAd53AnTpFm8gqLn6YTuHdoWG80tOHoVAIAbgwFAVaKxVy74PTDu7+1ZU8/uSo+uSTT/g409/pAk6fBXmjf9Nxl3IcXSSkREOSHpEGWg3SRZ8K93RRaAdw/7874H6XJ/b3tFkH3L+nHX/Q094O3OVSnJjZ9PQ0yzOrq6vMxvwnLgE7ncCSiZE+T/orMXa6L90I2G3bQiAQxKFDhxjcX375ZV4JSHlmT2Olgc0eg/SPWxDjKNB0bayVyzi7sozfzs7iT1vb2CRwb43WEwM65EzUlltGMHZZUCVd/m7A3R8E5ve5y9/7s2c83WL/bv5Gpox/LSJ+bs+WkZZIDggT05VoU06AbJutymP1xKAMYusE9CTNUPQAFVQZ3Mly2ERKcfByKolfDQ7jtZ4+jIbDIHMrgbuXDClGHPleIn8OaCg5F2i9t8cvgULCTJMjKz799FOW8KiwTl8E0BLkicUTIaB/c2yv2F8yaoBWf2NjYwzuMkm03W4pHTb0vZ0APEanUueldMbsPV6fgYPA3b+EpoIZnbhffPEFrk5NwbRMdGW60NPdzScjsXUuquXz2NzYxPb2NnL5HPK7edbg6cayCy39dQ1dXVk8+9yzeO2Hr/FJnYgnYAjfPYO50H9vB+4N28ZKuYgvbi7iN7Mz+DCfxw5NAmKnDDF3Aneppcv0RwHsrfgBkTdzO3D3lhJ7TUsS1R4E3NsSNH2DUluxta2B2Azkcq5qWweqzHxn+yMtZw4Ad2pikgVVjQCeJJUmYoqN08kEfjU4hB/19mE8EgWZUxncKYpAIrcf3GkQB1loW8NBXFi2VwSlnoidfB43btzg4076O/2e5BZ6LD/IEyEgoKfvJOHRtkQEiCwcOXKEC+70WWqPKZAvhV6DdOF03DKPF4b4X02HuT9Gx0YCuR/kpd1NLstp6Xz+wgV8dfYsNjY3kYjH0dvdjUg4DMs0eWm9sb6O3PYOqpUyTJqsw8yRBjcpPDeTzNRE/gLBIEbHDuGlF17C888+y8MYIqEwT4cisCLtlwC+fUga/xlA3bGxsJvHR/Pz+KeZGXxRLKJAGd8M7hQcJiyPUo7xx/5ScqRflpFZMu0+dz+4y2MlGXr7ZKY7MffbHWsJ9kz0fYzcn+Uuc99bQC/mlba6V0WzEue6y+AwcszIyUzkc6eiKh2LJoKqg5PJKH41OIB3+vpxNBpFjIK9RNwvTzaSM+zExC7FdqHw8G2y0zt8cd/Z3sLCzXmsbq7DFgsVWoHZtsN2SJktI11TMk1Usnjalpg7ATld4CnigiQZf/pj+26TSaYd5v4YgccBL6UD7o/R8TkI3P1aK71UYmMLi4v4/MsvcO78RdRqVcSJgSkKquUKKuUSGnVyy1BnIg1cAxzRvU9j1ByauKN6igEVM1OJNI5OHsHrr76GZ0+eQlcyA0PVGeBZktkH7p6HmzCHhIGKY2E2v4M/zcziH+fmcJmsmJQdQ7NTDcqVEYybs2Wkz11ED9wruEvGfjvm7o8Glsf0bpMV93WjytmpHoiKCSt74/dacoxg8SzXeKoLSzK8iwRbp4sqg7Fk73JDE7pq42gijF8M9uLnA/04kYgjReAuBkrb5GDh6dMKz8BQHQWq7ULlfHgy5tD4uzwuX76IL85+geWtNURTCaQzXQzO0agX8UwrOcnMSVeXcRT0N2LzUn+nAuoLL7zANlu/TfZ2zVTeYbi/3PnH6JT7i34pHXB/jA7vQeDuqQJedjp9setlZxtfnzuHDz74CPM3bsA0mzyCz7FsMaxIRM/ySB1viDYDsuqAZ2XSWDT2YgNBPYT+7j688coP8forr2GofxAhIyCmAe13bchxIBLcS46Fa7kt/H56Gn83e4MHYzcpFoFG7JHHXc5ENQS4079lrgyBO0UDS7cM590eYIWUzP1RgftBwzi8g7A3jYnxW8yzlcOoJW5LcOc5qqJjtR3gFROaamMiHsBP+nvwy8F+PJtIIqOpMMTQDgJ3mrklry8E7roEeNtBs1LD2tISvv76S3z69edYWFuCFg4gmcogk8kKN1W2ZXWVrirZsUwgT8BPX1SroaL6iy++yNvL9Mi7kVzuZpvH6BT7d/VSOuD+GB3uuwF32qZSrWBmZg4ffPAhPvv8M16a81JZVXnWKg0vZq2bZ2MCNk24J3AXzJ3Ypcq2axWGqyERieO5k6fwzo/ewVNHj/FIP5UcG5J5i33UukgoHlEtOiamtrbw26kp/MPcDdxqmLAo1oAkGdbbBVgbokN1H7jrgCt97t/SofrEgbsoNzPDJ3AXeTMcQcAmUo4gIHAfjeh4u7cLvxgcwAuZDLo1jTV3WnBY1FRE+1ksBmglpcvjZrso7eQwOzWFc2fP4vK1K1jeWIPl2jDI9hgMIxKJ7puhSwBONz+bJ8mGyAI1LD377LPsnpIBYf4EyMfoFOm8lHvYAx1wv4ed9bA3bQf39gKrfH7TtDhI7PPPPsd7772H+fk5VGt1LpIaIQN6wIBqeDMuianTTTJ3+k7LfN1SYFiAYWkIagZGBofx9ltv46WXXkJPthtaQIR7iYuEECj4QkHarqkARcvElY1N/NOVK/jt/AJWLQd2iPR2ypQRSSl0gaDH+oYs85cE7kKa4dWQmMREzJ2Cwpi1iwAxuVyCBVW1MBzW8GY2hV8ODuAH3d3oMQwEBLjLfUzlV1m35T5e7oS1sbq4hLOffY4LX5/D8vItlKoVr9hKKaNQeP4uAbTseaCCO3WcUk8DyS6y74HuQ6BOkgzFU8icog64P+yz/eE/fgfcH/4+vutn+DZwl/IMKwK2l/c+OzOLMx99iHPnz2Px1hJqjQb0oA4jFIQaoNx0lafak/LO4K6IIcwuQMaNgKnCMDUYrspum9PPn8ZrP3wV45MTiCXi0PkxxAqAdXYFlgR3KCiYJi6sr+OfLl3Ge4uL2CA5OESSTBu4S+Yux+zRFCaHwF0mRj7pzF3q7kK6kSI8s3YSyKUe3xLnoSoW+oPAD9MJvDs0gNf7+tEbCCJIBVXaXHF5X5ug4ye+REZ/tVLC1QsX8cWZj3H96jWU8gXPHkk6vRhaTXNQpf+dgJr0dSqiyoHpVAwlWYb0+dOnT+PkyZPM7KXFsQPud33aPrYbdsD9MTo0B1kh21+e1N9t00I+l+O0yI8/+QRfnv0aG1ubXMQMRELQgwG21LHrQozEo585dVCAu2ap0C0VqqOyO2J0ZBgvvvQCnj/9PIZHhhGJhlkSJ2nHuzh44G5BgQkVuWYTZ1dX8Y+XLuP95WVsuQocYu2stxt7DUyGiPyVbhkGd0PIMncIDrsXWcZfQL3dcOxv7lDvN34/O19BpYyyB6y8jV+Tbw3HFtvy/GnZBSBG68miKkcSiEIHbKiKiR7dxUvsmBnEW0OD6A+FEfKDOwE81UiEa4e+N+p1rCzfwmefnMH5L7/G+q1V2A0TGltLFZBWL1LhW7Ua+bkiQCe7I9kciaET0BOov/rqqxwmR3+T4N7JjnmMgOE+X0oH3O9zxz2Mux0kw/h/1yJwjsNL8Hq1hvn5efz5/T/jo08+wdLqCmzXQSAURCgchsYDtGUZ1DvlCdjppjgKXFuBy9VVL7grGotgcnICr7/2Kk6ffha9PV1Cv/fwgnR7AnYJ7lvNBj5fXsE/XL6Mj9dWkYMKh7pSiblr1J0qCqjUvMR57nR1IblHMvcDUiGlf13q9fcL7nS/uwF4WSj1sWP+0Q/u/m2+Ae4+1wwBOP9d3BzS3A+SZSioy0RWs3E6Fsa7g4N4Z2QEg5EoQiLanlZZXPwmSY3gnaNrLBSKBVy4cB5n3v8As9MzqJa8oC9dNdj/7vDV3PNEHmSpleFwpK0ToL/xxhtcSCXJ5qD5up2C6cM40x/NY3bA/dHs57t6lnYgP6jAKjsEqYBaE9LMH/74B3z6xeccGNW0HRiGjnAkjGAgyHZG1mmFXsuFVGLYioKmq6IJ0uVJHvEAIZVK4oc/eBnvvPU6jk2OIRw0oGrCAsn6r+fioPutNxo4s3wL/+3KFXy5sYECaKUQEIOxRfQA57X7wJ2LtMTapeZOYWIE+G3NSv4Zqu0dqO0NTPLf/r18ELAfZI30+9b9AN8O7pLd+10z/vuyFi7ZPn2XBVXSquhvfubuQFFNpBQLz0SC7HX/6dghDEcluJM7imSWFkwzwFND0uraCt7/8/tcb1lfXYftOFBpLirtQ+GLV1xPkmn/PMkpTfTZoZiB559/Hm+99RaOHz/OxVd/09JB4XF39SHubPTY7IEOuD82h2I/09rDmT3m7X+pMsWPcmbe+8N7+Oyzz5HL7YCKrQQK4WCIbxxCRRntULwoWYE/pqqiamio6QGooSiCkQgX4qgAeGR8DO+8+SpefvYkuhNRBIlxk+LuEtP3tHdTUbFar+Nfl5bwn6eu4sLWNioE7hQWRuP1mLmLSF8C9NawDuGQ2Qfuwt3D+r643a6ZSTLygzpUD5Jl7sTg9wE0I/h+y2M7qLcDuv/fpHuz9EKPQVZI6XMn2i2anojVK1y9QAwmToRoIlM/fjk+juFYzGPurt06Zhr53GnV5NooFQuYujqFP/z+95iavoZipbIXzMZBbC5UVwX9R8q9zI1pSXlikAv9m1JFCdgpfoJ+ljkydJ/bDWB/jE6Vzku5iz3QAfe72EmPapMDJZhvtMrLSBMX9WYTC4s38eEHH+D9f/szNlbXYFPkruPA0HSEAiEENG6LAQ1xC6g667eUw15TgXI4CCuTRrynD8mubhjBMMqlCjTYeOH4Ebz90mkc7u9Gkpw3cFoXB2KIpLkv16v4l6VF/J/XpjC9k0OdrI0tcCfNXQzDJjm4NaxDyjK+Idkye0ZaL9tZ++06Uv0A7wfx2/18J+buBbV4h9uXeb4XP9CmubcDfwvcJcgLcCdg9zc4eRVWhGDiqYCGvxrsw68nJjAcjzO4wzFhwIXuqPDGZquwLQubFAz24Uf4/e9/h3Wyv9KfqOhtaCzfOE0bmkv3oeP1TVmGCqjE/qm+Qmmgv/zlL1mSIRYvWXsH3B/V2f7wn6cD7g9/H9/3MxwE9ow7bL5w0bBMbG1v4dK583jvd7/H1OXLaFbrLZYYMoIiP8SAbdperreiouHYKKkuyqk4tNFhZA6NI5roQiicgGU6KBbyGIiH8drxIzg9MYqhRARBx+ZgK2aSNvFOYLFWwT8u3cT/MT2NG7u7DPigKUxyMDYxd2bvIleGh2SLDlVi7nIkNIM7/U3oEE88uAvWTkeKAJ+1eGFYl153WAjQuL2Agr/q78P/MDmJ0WQCYaqR2ATuCgLEwl2N7fKViueO+tc//REff/YJKs063IAGxVDh6goc14Jj2nwx0F3Ni47wLfoItGXjEoH7qVOn8O6777JThkLj/F/t8sx9f4A7d/xe90AH3L/X3X9vTy7PVSqamq6DpuOgUiljaX4Bf/yX3+PM+++jlCuy9utYFnQtgHgijmAozNtygVNV0FAVFAwgn4oDoyPomTiCeKYPwUgaimqgViohZNZxoieNVyZH8PRAFikAEcdl0CEbJcUXzFdL+PuFG/jbmeu4WSrBIqZO4E7s3dNhRAGViqnEMun5hX9+H7iLKuITD+4E6qKYyj53Yu4iH1moNd7fxTxV18QhQ8Gv+nrxN4cPYzKZQERzoVEzkqMyc6cqtlkzsbmxjbPnLuL9Mx9iau46u2iUgMLlC9baHJvK2V50Dc3h9mxSvIqTwziItdMX2RwJ3H/xi1+wv53AvX0wS0dzv7dz83HcugPuj+NRuc1rkuBOnYgmPHA3mybym1v4/KOP8ec//gmLs/OoV+rMFMnrrIfDCMTCcAIGSGdvqEBFAXZVF8VQAHZ/P8ITR5EYnACiGZgIIGg56HaamAjreHG4Gy+P9mMwoCHuAmFqgHIVrh3OFHfx3+au4/+Zm8ESzU4l+yOFhnkD4wS4iy5V+qchi6eimMrBYSI1klQa2TD1xDJ3H2OXIO4HdwZ4+h/VRTwUHtJd/LK3B38zeRjH00nENNp7LlSb6iMaq0PFUhnXZ+fx4cdf4MLUVeQqZYSTESSSUcSiAe4RU+wmbEqCzBdQzJdgUrew5Y1glH53kmUItAncyf7485//HE8//XRr2LpcKfrjfDtumScIINpeagfcn6Bj5wf3BmyYwmddL1cwd+UaPv3wI3z16RfYWF2HY1NAmAqb7JDRIJx4BGYogHoogILiYrdeRZ1O/GwvlMPHERg7BifWDcsxENUM9KvAuObgmWwUr432YDIcQEbTEIUCQ0jIU7kd/JfrU/ivN+awWm/CJsYejAonjA/cCazlgFB2xpA85HfLsKwson2FhfFhFFRvd6xbRdEDNHfe6TLy9w6aO1kfJXPnJE7hlBE/etKMZO4euA9oLn6W7cLfTE7iVFcGCZ32r82FUdvV0TQdrG7v4PNzl/CnM59hNZ9HMBVHb383+nszyCbCiGpA0LGg1GrYWF7FrcVl7GzlUC57c1TpRsAuJziRz5309p/+9KetYioB/oHgvmfZeYLOlM5L5bKTeztht7N/Hrs9sAfuDuqwYZG/hQLDmhYKG1u4dvEK/vV37+HSxUuoVOtwdQ0NBWiGAjC7ElB7uvhWNFTslIqoV6pAIgscOgb0jwOxbpZVaGmfsi0MaTZOpoJ4pT+FE8kITwvKUCOMAPer21v4z1NX8PfzN7DRtGFT8xIlQhKSc+qj1yXLjLzdLUPgLpk7s3bJ3NvcMtJBI/Pe5VHxg/+dbI93Soe8E7jvc8j4Cq7fAH4Cd+5WEm6ZbwN3qlpY6FccvNOVZnB/rjuLlEGaOXUSaHBcHcWGiWuLK/i3L8/hk8tTaAYDSPX3oKc7iYGuBPqiIWQNFSlNQajZRG5jG4s3l7G4uITVlTUemk5yjEyDpEalgYEB/PVf/zVe++EPkc5kmMnLjlSCg31umQ64P3Y4cLcvqAPud7unHoPt/ODeJFlGeJk1AvhqA9srq3jvn3+HMx98hK2dHEmvnP9SIOl2uA/xYxPQD42gmIhgq9FErVKHqkWhpvuAcBqukWT27RZK0KoVJGIBTGSjeDETxfPpGI4m4xgwApw7Tq+FQsP+y5Ur+M38ArZtG44e8MBdsnI/uLcy3duGY1MdgGNoqLvKx9pbQz6Yg3joLxt0JODzNnsdmfsmL93OFnmA+2ivO9U/YUlE/7Zif31WRv8EJj+rp8ong7v0uYtiKhUoWJKRaZ00KJsknCZ6YePH6Qz+ZnwCp/t6kQlq0FyLC6nE3DcrdXw1dxN/OH8VU7u7UDJJRLqSiBku0jqQVR30KQ4GdQ09qg7NUZAvVrBwcxFXrk5hZXmF6zLNJiVRqujt6eGQsHfeeQfHjz3FU5m8uSxeAijfVIp79uyUvOvbBlo9BqdC5yXcxR7ogPtd7KTHZZNWQdVxYVFBlUauEXsnjDNt1IolfPXpZ/j0zMdYurmMfLGEtd1drNZrwOQokqefhXVsErvdxN4NUOIrBYeF3QC0igmz1ES9VIe1k2PnijLci9RAFsdiQZyOR3AykcChSBjZgIagomBuewv//fIUfrewhBy9FnLjGEFAJw1GTFzigR1SVxdzUxnFhQdeF4mR1CjF3bSky4vGp1ZoGecVey2yBPDSMikvGC30EcH1fD3wIZL/5/aYAaG6ePPqvgXc5bQl3l5myPgmNNHvWEcXujtHAfuz3n2dq6oFaHQhaCLrWPhRIo3/8dAEXhzoRyakI0jFUktF01KxXKzi44Vl/OnmMuYMFbVEGFpQRcSqwtjdgrG1jnRhF2OKiqcz3ZgcPQQjEsXS2hq+OncO01NTyO3k4No24tEYTj19Em/96Ed45tQp9Hb3sC1yD709cCdg58PHVtMOuD8u5/+9vo4OuN/rHvset5fg7jgubAZ4rz2dQJEKZ06jgeWFm7hy/iKuXLiEG3M3sbi2icViGZWhPhgvPg/z2adRGRmEFQxTriwMS0fCUqCtbqE2fxPVlQ2eyamM9MM9Og6lK4VkyMDJUAiHA0EciQQxEg4haahY2d7GH67O4IOlVeRVykEhbZ2GdRgAgTZH/MpB2J5fuxVWw+BO1UMFCBD4+3x73NEq5Bze3wTsYuoIRSXIiwUXaCWrF9vJ43O34N4C9TZw5w5V8WAyQ4Z+IVO8Ws1Kvq5UGTtA7F1iOV2M2A4pGD0xdgJ3nRIjG8jYNn4YS+I/jE7g5aFBZCNBToZ0TBeluosbuSo+Xd/BR8UCrgUN7BguFN1GuLYL68Z1mFcuIbS6imGoeHV4DG/+4BX0DQ9ip7CLcxcu4NzZc9z/YEDF4MAA3nrjTfzknXcw2N/PU7eIn7dWRGIAh7fLRRBRB9y/xzP+wZ66A+4Ptv8e6b3bwZ2bHil7hAcnk+3OQqVYwPTFyzjzrx/gwlcXsLGzi82GiY1YGLVDo3BOPwvn6eNAVw+gBKFSMmSlBszegLVwE1q9jq7+XoQPDaPQlUCeEkwHIqAAACAASURBVHsDBgb6+xB1XAy7LkYNDV0KUMvnMbe4jMVcEUXFxZZlok75MwEDLgO8SH1kBig0eJlE1upeJYukz+PO2rrU3SVz9EKxvAQz+lE6cKQsIxn7fTD3b4C77FBtY+eyqYlZuy8gjGMGhNwif7/vwiBH7pEUI8bsqeRVbLKfPem4eCESx6+GRvHa6Aj6ImGOjNhumJgv1TGVr+BSoYorZhO3VAVlxYJruNCrJWBmGs7Fi1CWVxFXFDw9Nop3f/ADHB7qRa1cxNTVqzj31Vmsr6wgFozg2JHD+OVPf45Xf/AKUskkDE0TIxXlKsfrhu2A+yM9rR/ak3XA/aHt2u/+gf3gTvhBjUwky9iMNtSyTv72JpZmbuD93/0Rn7x/BmsbOeSbJrY0FTvRCMxjk8Dzp4HDx4BEt5d5srUDzM1ArVXQn81geKAXNV3F4m4OheIulEQEoVd+AFdVEK3VkWo0kaxWkSyVkao1EFE01GwLN3cLWKvXkFMU1IMhIBQEaNlPDJ3za4Te3vpZsMNWsVXQRAZwAewyQIy+cxi9YOgcSiYuAizzCNC/X+be8qGLvcxg7ovwbQG4D8ilti7BnPOQZQA79RXQqopeEB0sCe6OkGSIuVuIOS5OhqL4xcAQfnxoDIORCJpwcaVWxUeFIs4VyrhVqiPfsFDWddi0WtEVRJpNBFbWYE7PwF7dQDRoYGxiBD8+NolTqRis3W1MX7yEi2fPYWdjE5lUGi889xx+8dOf4dTxp70B2Jw75A3E3ZuTK9BdLLQ6ssx3fx4/qkfsgPuj2tPfwfPsA3ce8COSAzkVhrR3BwolB27v4NIXX+PDP/wZly9NYadcQw4OthSgkErCGj8EHDsBTD7lMXhqbtnZYIdibzKBuNlEkYqk12dhmQ3g8CFob70Bh0LEqmUYuwXE8wVM2C5OxmIYicZ4OPfSxhZmV1YxWyhiW9Vgp1NAVwaIRL2sGQJ5lmMoOMxLomTwoF9TLDB3r4rp2/6xe9Jxwxgu82eEPCOLrRLcWyT0LjX3dubekl1kQ5LYgMFd+tglwMv0R8JvWrIY8ALvZW47+dn3Yn5Zk+e8ZREqZtmI2MCxQBTv9A/gx+Mj6A2EkWuY+LBWwJ9qBUyXC6hs5WBv5mCTAymbBeIJBKEgUW0ilCtAr9TghgIwuhI4HdXxShBQ1lYx9fVXuH7tGsxaHSMDQ3j9tdfwxmuv4dDIKGvtXDLtgPt3cGY+ng/RAffH87gc+KpaEjDPWyadneahEnMnyCNwd6E4Fux6HWvzi/j0zx/h3/74Z9y4eQsFx0JJ17GtKahSSNjQGHDyWeDpk0B3Fxf3FF1BmPzSNxbQOHcZ1soGlGwXAs+dQvDEEVRcC3Ypj2A+j4F6A89Gojjd3Y2RWBxuvYmFhSWcv3QVV5dXse66aPb2wBkdgdWdBXiIR8DTzxncyecu3qYsoJJOzyAtZRmh20tXTLtdUqQgMuCzlEOALx7zfjR3umsL7KXrxQ/uPqsjF07l8GsJ7kHA1IW+TsAuXDGc1kZLJOpMFTcRBRx2VEwEoni9px8vDw8iZulYrVZxxinjE5Sw1ijCXV8H5paAfAXo6gOGRqEmUgjpIYQsFwZ9DkgGM1ycrO3i5VoBWFrA7PnzWFteRjgQZGfMO2+/jedOnUK2KwudkiSJuXOR2sfc/UVUnxHpCTpNOi9VngIdn/uT91ng/hhqUqLCKhFFIUlLp4Zq26jkdnHlq3P47T/8Ez786GPkanXYoRA3MJUogTYaB8YnPInmxDEgmwLCAaBaAy5fB64vQFGCiI8fQj8x/SBQqBTgFneQtZo4Eg7hZDqNiVQScago7+Qxfekqvvzsa9za2EY5EITZ14v62BCqA32wkimaxOwBO/nhyf/IVyXS24UfXr6P1qBsaZuU8QTewG+PrItC4D575H2C+z5QF58HaWk80OpIxQ4J7lKjp4YCAzA1L3SMgV2AOzc3NQH6zoHJLkKqiqCiIegoGNBDOJ7uxkR3L5ymi+1mEzNGE5fNPLYau0C9CqxtAgur3sqgb4gBHukuqBpFwqkI6Tp67CbGVhcxcGsOzZtzWJ+fR61cYVfMD156CT95+23OcE/E4gzsB8oyrZ6B1syPjhXyyYMIjyN1wP3JO3IM7uSdFoTR1sk1I7RdmvLjOLBqNSzPLeCPv38Pf/d3f4/1rR3UXBd1KspR6BglkSRSwMQk8PRxqE8dgTI4CEfR4S6tAbkygrEUBnt6MRYMoLy1ClR2EbdrGIsGcTiTwnAqgaDroLS9g1sz85g6dwlT56+gVrcQSHfB6e1GsSeNXG8W9d4euNkuIByDEYoioAY4GEtnL7yBKlzUFMtz/7DTRkg4NI6PA8kEoPOvhVbPRVbJ9KVM08bc2xuc2q2QreWQj7XvWV083bw1cUl0oLLGLoZwyNx3ThWguXgc6+hFDJAzxmkAjSrfDNLYdRXJcBjpcARhjWQch3NkUqEYwqkMcqrGLLzh1DG7eB3rxS0gEwOCQWBtG1jaAOquB+5jo0Ayzo6kjAs8VSjBuHoJ9tR51FduoVEsIKgbmJyYwNs//jHefOMN9rmHAkFhefTJMq2Vjs/+uFdnffJOks4r7oD7k/gZaJFKhhGXm0G9qT1eEVBxbLiWhWIux6PYfvcv/4L5m4tYXF1FrlpBxaJcGpKJDTiRBJz+AejPnkL09Gko/YOouSrqNhBRDfS5LhLFAoyVZe5YHYuFMJaOYiAVR0B1sb6xjqnLVzF78So2Fm6hvlWErgURTmeAdBK78TDWUxEUaarTQD9C2SzS8TS6QjGktSCiShAUR3bLsjFjVVBVyHxveGyeIoRt+u6zP3Lxldi+AHuPo+xp8f6Om4M6V+UB3xfpK9m6dMFIbcZXVGWA50KHiO8VUQQc5eu/AAhtnuQXYuuVIrC1DiW/jaQLHO7qwlMjI+hKZuCqGor1BrbLNezaLurpDG4lEgjHYkjm8lj9+Aw2VuaBQ4PAU0eAQAhY2QYWlgEaRD5xCMpQD1zFQWYnj4m5BZTPn4W1eMOrjUBBVybDnvaf/uQneOH500gmEl46KO8+KqN6CL6XIdOaELJ3anSamJ5EmOiA+5N41FqjOAXZtGkINtmpuYlGFvtcmI06a66XL13C9PXrOPPpp5i5uYhiteaZN5oqnKaCph6CemQS/W++jvjp57HV14tNTYdbryOQy8NYX8epUhkvdadxrCuJ7kQYIUqVLOzg64sX8Mknn2Ll+jz0ShP9kQxioSjUUAhmJIhy2MBGSMN2LITIYD/6h4Yw2NOH4UwPemIpxPUYLFvHbLWK31dyWHfrQIhG9QW8CANiwgTw1MREjF2O65NZNQw8fnH4gELqtzUx7WPuPn3dayndA25pc2TPuvi9DAVjO6RoYCIpxjW9C4FZZ2DH9WmoSzfRHQjipaeewhsvvoyubDcaDrBVqWJ6axuXczkUs1ms9vXBiiUwtLqNxp8/xPb1a3B6M8DpZ4BjR70pViTRNOrQMwmoqRjs0g60S1cQP3cBzYUFJMwGEjQQOxLB4OAgXnnlFbz15puYHJ9gl0xr+LXfI3O7C2EH2J9EiOjIMk/aUWu1+chZEAQ/PNtUgvseIJFJkoKiCvk85m/M4fPPPsOf/vXPmF1YQM2i5HUdatWFWyHdPgRlaBCJ088g+vJzyB0axqYGNPM5GPk8uusN/CQSxwtdWQyRD9tpIpffxtT8DL6+fBE3bszDLdUQdzX0BuKIh6LQAgGYAQ3lgIpSUEElZEDPpNA7OIgj4xOYGB5FbzyNgBNAqWbjWrGED6wKpjQb9aAOlyQLkmQszbtRcUFEFnPjE99IovF529t9e98myfh6pvaKqD4wPxDchWe96UX5km1dYbD3/OuO1oSrmYBFjL0Eg/bf6grchRvsXukOhvDckcP4wfMvYHhkDKF4AgXLxvXNLXy5soxp18XWwBCcTC8mGjYC87ewMTOH/G4Odjrh1UaGBqjxAJrtIGlbCOS3ULl2CZVzX0NfXkLYbKIrEEA8EEJ3pouHnb/++us4+fTT6O7u5iEurewYydr9J0J7Dk8H3J80mGi93o7m/gQdOr9bRr5s+h1LM8zcPR8fNzXRbx1v7iaN37t86TLOnPkYV6anOJbArFto5BtoliwYwRiiQ0NIn3oKwVOHsdydxGI1j/LGGmKNBo6F4/h1/yiOx9OI2A7WV5Zx6doULsxMYXFrDY1GE2kjhIRqIO7qCGsB6IbnyTYDKuoBFVZIR7K3BxNHD+Pw5CRr+WE1iEa5ic18CXOlCqZCKr4KqdjUVFjky3QD3o2LlDRGTjQvsddbRAgTk98HSN/C3P2DrtvBvZX94pNkpJ7uDxYjtt4woTtgf3+A56NacFQHVa2GhluBWy5A29xAYn0Dyc0NKDtbMLe2EHJtDGS7cOzwERw9dgIj45PQ40msVsq4uLaKr3N5zBlRlNM9OJzqQhY68qubuDU3jxKN1BvpB46MA31ZhBpNxJZXoF6+iNr5c6gtzUJ1qogHDCSNIBJGEOOjY/jZz36GN998A319fYiEKY6ZGod9OTJ3Co7pgPsThBD7X2oH3J+gQ9fyuVNgmF8mFgyeZ2V68C66Vh3YtoNGs4GdrW0s3FzA4tIt5AoFFKg5ZmENN2+soG4C6dFhpI+Mo9GbxKzaxFJxC838NtKWjWfiKbw7eRzDgRhK61u4dmUal69NY3lnE3XNgmYYLANEVR1BW+H2eU3XEIyEECZtPhmBFgmhd2gAE5OT6OntRtAw0KjUsLtTwlaxjG0X2M2mcT0UwDU4WLddNFyi5kFPlmHtndwzvmHboqFH9jB9w9bRzkL9oWGtwqrQttiOTgVaCe4yI0Z0oFJ8gONAcxzELBfdegBDRoh1dLdRR9WuY8UuYr28jcbGGoKra8hs7SBVKUOrl9Eo7cKqV1lZSqfSGBsbx4lTz2Jk8gjcSIQB/srWDi7uVrFkhLggnUhnodgq8ju72C5XYMUiQE8GCKrQVlagTV2DfukK9PkbQCUPJ+QgFNQZ3PtSGbzw3PM8kIOmLcViMdbaD0x9/LZzoAPuTxBCdMD9iT1YEtBt5uXtX55zhLcR+rBLHasiOZKajGrVGkqVEiq1BgqlCq7PLeKLry9hZvEW9EQCMepMjWhYbJSwVcrBrRQQq1QxBAU/OnICWS2MzZurmJmew9LKOuqOBT0ZRiASYLAO0XAQ6tFxqSaqI5GKY2B4EAMjg4ilU+jq6eJ5nQp57ctlFPK7yBdKKJkWrGgUxuAgcrEYLlkWrtabWLPgAbxk8AzuotGJUJKzZXyF1fYclHsBd7a1UxesL3PdsyV51kbbhmZbSLsORhQNE+EoxsNRZGhwSaWCXCmHmcIGbmzdQoW85Zs5pMsVRM0mFLuOullFpVFBuV7leaipRBpPPXUCp555DkMTE9DjCawUSri6mcNUtY45TUM9nUUknYWjBVC0XI5vdu0msHYLuHoFuHYdxq0VRPK7PLLPpiFYusrs/amJw/jZT36Kt99+G6Ojo6CoXzk+rzNG74mFgHt64R3mfk+76/vd2A/uFDlAAC+8Dp71m+absu+bHDNeB+tenK2XUmg7NiwakN20sLK5ja8vT+Hzi5dwK5dDU9fgBg3kKgWUijtQqmVopSKCtSqODgwhrgVR2Mpjc3UblXIdatBAMB6BFjag6woCqgaVJ0B54J7uSmPy8CSOPXUM2d5uhCLkjHFRKBawtbWFAmXKm02YxPJTKaSHRuDEM5hpmrhYNzFtOtiwVTRIXFepAUrk03AMgfC+cyz8AemFDPQ+2imveq0lj0+XoR+5HkoBZZ7QxU1H3HhE4G6Bege6XBtjcDGuqBgPhnAoEkeWagPVKrZyW7i6tohrN2+geGsZoUIF8aYFwzFhug3UVRMVmCjUKyhWyuyS7O3qxtGJI3j61ClMHn0KCIZxq1jCVD6Pz8tlzCsqzFQGelc3lHiS9625uozGV1/CvXQJWFmGVqkibNoI00BtjeR4HalkAi++8AJ+/etf46WXXkIylWxJMX5Jxqu6fTs17xD37/ecf5Bn74D7g+y9R3xfP7jToA4vU4Zc4DTaQYHqCGsbASxjlKTy4iJALJ7DDr2u1kqjgcW1DZyfmcHX16Zxc30Dtu2ivJtHeWcTbqUE1axBcUykiFmrGhq1OholGsKtIBgIQA8aUHSVGaOmq3C59Z6Sfw1ke7pw9OgxnDhxHNlsForqolQpY2NzAxtbW6g0alAovzwcRCydRibTC9eIYrFuYlExMGcEcR0qNhwFNPrZy4kX1siWPVJM9BNpBh5gyVsbuO+TYnzgLiUZm6rT9AAkyQjXi2tCd02kFAeTKjAJoKfZRMa0MBKOYigSQwgKypUypleWcGXmOjZv3AR2ywhbDhTXQk1pomrYqAQclOwGSrUa7FoDuuUgE0vg2ORRvHj6RYxOTqKm61goFXFuJ4evdnawrCpw+/oRGxxCVyAI5+ZN5D76GJWrl2Fvb0N3XUQ1HUlXRRo6ujMZjIyP4PmXXsAbP3oT4xPjCJBHXtgdZWa7/HcH3B/xSfwIn64D7o9wZz/oU7UzdwnuBOkE7jSogZi7IkFdysdSoW+BPRVgFR6/VqzXsLqzg0uzc7gwdR0b65vYXl1DYWMddq0CXXWg6Qr0gAZVVWCbFpymzc8VIOeFpvLFgjpG6WdaGdDTGsEAa+vHjh3DkcOHEY/HYdkmCqUCNre2sVsowHZtBKIhhGJhRCJRdvCUKk3kbAVWdy8K3b2Y1nRcb9rYsRWY1GDFFhmST3zZNP6YeO9qJwBegLufrcuAMNawRBMU7yfR8coZ7B6w604TIZjIKBbGNBdPhQLoJ4ac3wV2cuhSNQwl08jG4nyhWy8Wcf3GDdy8NovK5jbUpgnTqqNoVlHWLFQMr1GrYVtwGk3Y5RrQsJFNpHDi2HE888JpZIeHUFYVTG9u4dPFRVyplFFJp5EYGsJIVxZRyu25cBFrV6/CLOSRiUUxmExhwAhjQItgfGgYE8eOYOzIOIbHRpFIxqFSZk/bVwvkO8z9QU/Lx/b+HXB/bA/NN19Yq6AqNHe/4YNlGcHcafQeM/fWTaQTijsQGPPQZMeGaTuo2yZWt7Zx8fIULl++ghvXZ7Czvg67UYemKpw5QzcCb4eov+Vy/hU1vtOTcJY8DXXmv7uMkwTu3dluTEyMY2R4GEGKI7AsZrilMk0GasLQNZ4EFAoFWYfe2trB9u4uwukseg8fQ2BkBMuqgQs1E9dMF+uqjqYSEPHBvhxymT1OL0qydplqSLvRZ4Dhn2WWV4vmC7pPj0PAbpFObiLlNDHKwO5gRHUwFNSRVhWY+RwKyytArY5sNIqBbA96e/q48WpjeweLN+aR29jkLuFcfge3NtdQtptoqA5M1ds/sGyY1TrqxSo3nGWSKTz97CmcfP55hLrSmFtdx5fzC7haLGI3EkIs24PR/gGkFRXF5RXcWpxHBA6eGz+E05OHMZZMo9eIoL8ri+6+XkQSMT4GfPH1FZL9A6+9YRwdWeYJgoB7eqkdcL+n3fX9brznkGF4budiXsIsIwfnSvj+vn9br95K4E5uGhuWbSO3u8tj2T799DNcu3oVO9vbDLi6RnKLxjfu9ud6I6VQis58Ae6s89NAbttmfTcWj6Ovr5cteLFoDEbA4C5IGtRMDh5aBVAbfFANwDFN5HZ2sEW+8EgQw+MT6B8dgxuOY6PpYMkC5rUQLkPDTUVFgyOE+XIm7JFysIQc1dfW1yQBfR/IC9YurYAi7YCakZRmHUnbxLjq4pjioLdZgb67jajdRF8yjgDl8+zsoJzLQzEdpBMJDPYNIt3Vxe+9sLuL3VwepUIRc/NzuD47g1qjTkqWF6/AA58cXgU1qnVUymU4jo2BoUEcO3Ec4WQCixubmNvYxJblwEokGdyzpL07LnYLeYTg4MTwEF4/dRKnJg6hJxZDVFUR0QMIhULQaDA6ZfTc5qsF8h1w/35P6of47B1wf4g792E9dDusf2PJfYcNmH1zP44H7gS4m5ub+Oqrr9gLPzs7g93dXdiWzS6LUDjEEbG0PV0U5JKeg8tIhvH9jhqnyHLX09ODoaEhJJNJfg76HT0GOXjoZ+qUDBlBWA0ThZ08SqUi9EiQ5YSe7j7oioH8bgUbpRpKgQjy8S5M6QGc1VRsqyosToCUhVWZCimuOLcjoy1wl8Du23Nk8aGbY0NtNjDo2HguoOK4oSCc30F+dhq1/Bbn3Q/0dkNTFOzu5PhGyYrZTBe7UrJdXbw/8/k8drZ3MHVtCtenp9GkmYayB8EXfUDb0hDrUqmEaDSKnoFubgDb3i1ip1KHFQgikOpCrKcXyUwXN8dSh+nx8TG8fPI4To2PoT+dRETX+aKjulRY1aEqJNTdmZk/rM9o53G//z3QAffv/xjc8yu4I7hLKeI2j0zgzsydhlo7Dmq1Gqanp/GnP/2JAX59fZ0Bh6QTAvdEIsHAIy10EqQImOhGvyfgbrW1KwpSqRS3vqfTaX4u+js9lqapCAa9iwU9frVahevYiMZjyPb38kXBqpvY3chje20HO/kKKloQZncv8l1dmE/EcV3XsEWrBJkmyWP3ZJiYPwDsoB3QvvcE4pO9iO2ONrrh4ghcPK2rOBo2kLaa2F1awI3pq6iVCujKJNHf38/uoOJuEZVShaWerq4uDA0OsN2T9u329jauXr3Kt0Kh4K2oaLi472JI21GjWbPZ4NVNKEJSio5qo4lirYkmVBjRBJLdveijomp3N0bHRnHiyATG+nuRiUYQC+gIUUGb8vy5/KFB5SpMB9zv+eT6C7pDB9z/gg7m3b4VAnTJ3IlpF4tFfPnll/jtb3+L8+fPM4uk3xPwEGCTLk5NMLTcJyAnQCdAohs9VjAYbGWWSOCn7QkAySVDfycwp/vzkAhVZVDP7eZYpugd7EX/yBCSqTQbVXbXd5C7tYndtTyK+QrqrgqlpwfuyDAKfT24FglhVlOxq2pwqVhIEQRcRBWMvDVVyb9HpB5P6CcAvpWk6UUIaKaFlO1g3HUx1mxioFnHaCiAYbJ7NutYmJ3GwvwsF4b7enuFTELZYBVUSmW+cHVl0ugfGEDAMHg/Li4uYmZmBqurq7w//Zo3N52JiyytaMjGSB5W2j9kV63UTTRplnYwgnRXD8aPHsHxE0/j5MkTGOrvQSzszVsN8MhZAnbvvqqqQ5HM/U4dqHf7oels98TtgQ64P3GH7MFfsAR3AhYCcWKYZ86cwW9+8/+z9+ZPkl3ndeB5W+6ZlVn70tX73g2gsREbRVGmFtqyPLImNHZIP0w4wvbM/DGeGccoPOOhYiSNLY5FiQRJCSIpcQVAERAJEjvQ6K16qa59yz3fOnG+e2/Wq0I3FhIgurqzEImsrsrMevlevnPPO9/5zvc1vPbaa8LkybIJxOaLUgpBmuBBUO92uwJWItvkcmpsm9bc+TyyWOrtZP18DG98DF+HiwlloHanjepEDYdOH8UYM9/DGJurm2gubKCzXEd3rYluvYMgsmBVK7BnpxEemMXNkRpez2RwFRY6BHfWA8zIPQnb0UXTHbtKDRJXc0wNuPNnbAiI4AYhRoIIB8MY070uSutqKMmE6+Dw+ChGh0ro9VpYWLyJjc0NWJaNYq6AbCYvNYheu4NetwPHtkWKymYzAuQE+Lm5OVy8eFH2m2Ht3DTuP8PmeS+DqLjxzAoCEAQxQr53O4NSeQgnTp3Gk08+iYcfOifpjp6wda5tMSwJjSO4MztmAO6/+Fmy919hAO57/xh+6HeQBneycDYUfec738FXv/pVvPnmmyKXUIYxUgwXAD5OMmu0Ts97ArVyu+SE4RPcuQBQliBrpyTDx/G5BHfaIfkY/r21tTVk81nMHJnF1KFpJBkHKyvrWF/aQLjZgdUIYLdCWJ0AYZQgzLiIR2uI902hNTWFK0NDeMvxsGhbCIW9Mxfe2Bm1NLMb3Anq7B4yViKZkBRL52k1CHAsiHCo10NufQPhwiLi1XVULWB2dATTk6MYHq1JH1Wj1RZNfWuzLs2rBebTu56Au8+0RkfJVEZ6un79Oi5cuCBXK+bLsHYuANx3CuS58FAyU7O1uNiFATOCbOQyBRw5ekxyYj795JOo1qpwPAeWHcPmBC55b3wNdj2kNPcBc//Q58fd8oQBuO/BI5m2tn3QzU/LAWlwJ5ATbKm3f/nLXxZwJxgT2AnGBGs+l48jW+fv+GVkFv6eIE/Q5nNYVGQhlQDP7SRD540Axp+RyfPKgK85PDqM2kQVSdbCan0DN24uo7nZguvbKEQO8pGNjCQAxOjFEdoZF+1qScb3NSamMFcZwjuOizVL6++MJjDedQWX2yhvWLtmuLT9WAn9+jFKcYT9YYCT3Q5qmxsIFpfgLy3DqjdRgoVaqYCRkSFMzc5gbGoCludhY30Lc1euin0zn81LQTWTdREFPsJQLYS8kbnfuHFDbkbGMpKYkWlUvYJhXmq+Kv+jo6jdaKHT6kgXQzFbwr7pWTzxxOMSKTB7aD9yhZy6EhFwJ8Oni4mvQ5OqGmu1PfhaOaQ+7Ff6c/Nhnzt4/Ce7Bwbg/snu/5/rrxvguN2T05f+tzo5zUluWDVlmW9/+9v40pe+hFdffVVAyOjsvOeNr0NQJsgbhm70cwI32TtB/dy5c5idnZXHLy0tyWJBzZn/pkxD8CejZ+GU4B7EPSyuL2B+ZQkra1vwexHyThYlJ4+Kk0PBduFECQLfx1bYw1oSoVksIpzm+L4ZXCoU8VZkoUH9nR2s/RSxdDqk1ttlMpKag2rFMTJxgnIUYTKOcCTqYV9jA9bSTbQXlhBvNZANQuQtIMN4hHwWw+NjmD10EOVaDVGS4NrVG7h44bIUgMdHRzExOQ7Xs9HtdnSR1BfJi8ydVyq8AjKOI+5HI9MoySoHx7OROIk0d3XpkV9dQ2uriYyTwVBpCOPDYzh95gw+/08/j3MPnUN1dFgcn9mP/QAAIABJREFUPmbSIMUcFlMduLqt7d22ofcC+PTnxshFA3D/uU7RO+JJA3C/Iw7Dh9sIA+67T1TjxDA/N5bF3SfobnCnxPD888/ji1/8In76058KABHQCdq8USvnjV8GAFThTskPZPiUYdiNun//fnkurZQEdrpvzp8/L6/D3x09elTAn9/XalW0OnUsLt2QpMo2q4d2BoVCCcVcEUU3qyx+9NYHAVrdLta6XaxGCdrlCoKJKSxXh/Gam8OcnUHUB/dUghi/lXAxqtgREAawohD5KMFkGGN/FGIq8jHaq8PbXEK4uoKo3oDXC5GRFMhIPOkEULeQQ3V0DKMT46iNjiHwI9y8fhMrC0si70xNTyJfzKHX68pCKHn6W1tSTOXVEcHcALxxCvFKSKyhxbzcIoTw4wDddkeYe9jzQbim7FMulnHkyBH8zu/8czz1K7+CsalxYewG3Bko51quPL7vltn10UoTA/O52P0z8/N0VMGH+4QOHn0n7IEBuN8JR+FDboNhfwZsDctKv8x7Ma704kCwabVaAuqUZV5//XUBckos/Pn6+rqAEv9tCqppYCcLJ1AfOnRIWDkZPJ936dIlAXa6b+bn5wXwzeOmp6fFJkknDTNcNtdX0Go1ETsusmzlL5aRpQ+eLhz+jLp0GMHv+Gi0ulj1A6wlQL1QxEZtGOdLNbziFRBw+HY/e8D44LV/neBO1h4FMmN2Mohwwo9w0A9Qbm7Ba63Abq/D7rSRjWJkYxse6wthIJHJfhiiS7DPZlAbG8XUzCyGqyMIOwHWl1fEOkpgj61IpJggUDZSHgcudAR4snc+jnKMsUCaRYBNR9liFqEVgSDNXCCX+nmSIOj6kunDhfTIocP43d/7PXz21z6L6Zlp2Ax702nF7BImrLsJ/0/t/b27T2/F4nd3sA6Y+4c8Oe+ghw/A/Q46GB90U24F7rsB/v3A3bwG78kiqQkTjAlCdHsQjKmV0z1DwOciYLzqxiFDRwyZ+PHjxzExMSFgRicM3SEE9Zdffllej1o9X5NSDKcBcUHg4yfZmFMuwWXRtecj8Rxky2W4pQLcYg5eNous4yADCzm2dwYx/E6ALUYV9AIsRSFu5vJ4c2gYP8lXEPSTIzVzZ4GVjUlSbNSj8CJmxkQ4FiY42wswUW8gs7EGp7WOXNJFwbVQcjzkCJNaDmJ3KUPW6p02/ChGJp9DtcpmpinUylUgiNBuMe2xjpvLN7G0siT7iu/V7Bcy9ytXrsj+SAM89w1vPAaMy0k85viwJ8BDhl2m1N7bHTQbDfl4HDp4EL//+7+Pz/365zCzb580LCV0KemOZSehQk9o//DgvvszM2DuH/SMvDMfNwD3O/O4vOdWpcH9dg98P3A3zhfJhYkJIG3Rh3lv/OhknK+88oo4adiIQ5ZJVs/CKNk3JQICOxk7WT0XA2r2fCyboghklB34HDY1kf3ztXkjwE9PTmFmfApjQzUBMtDal8/CKeVgl3Jwch4ciwwayCc2MqGDJIzRiYGNwMeNXhsX4wg/zZXwYrGCwMkpDUZCxcjctSTjqDF4IstEPtwoxOkoxtl2D8Mbmyg0tlAIeyjnbFQyGRQcFxk2AUV0+oRo97qS5LjeaKDZaiNKYsnKmR6blJsHFTlwY2keF64w6/6avEfun7Nnz8pVCgHcuGZ4T4A3x5H7iPuWWrvjuZIJQ8cNt7/X7aLZUHk8/GJWz7/+V/8Kv/mbv4XZWQ3uFg2UKk9IlVBZVr01uBu2npbu0p8h8/N3RQPvwfPkXt/kAbjvwU+AAeTdhdO0hmre1nsVVE2HKh/L1yQ7T2vqZJMEohdeeAHPPPOMeLX5dfDgQdx33304ffq0ABdZPhk7Qf3ZZ58V2x/lHL4+f0fWzqYm6u7mbxLwJ8cncXD2AA5OzorbpFDKw+aUoWIWdsETeyRz293ERi50kIuZF2+jlyTYin3cDDq4EPTwE9vFC14BW04eMRueEluy7WPLRkLWLuAeAhYHV/soRwGOd7s41mhjkuFfSYya56Kcy6CQ8ZClYk1/OfPTNbjXWx2s1bewsbmJnu8jl8lgYngUI6UhBO0OlhcXcX3pJuaXFzC/pBY1FpA5BemBBx6QxY0AzqsaFpgpVVG+SkdA0MHDoC/TL0Dtvt3poNNpo9PtitXz1KmT+MM//AN87td+XRZY+uopy/QlGA3wbOi63bE3bqk0M09LdcaeOWDuexAcUps8APc9ePwMIBj2bSQZEw+Q1lJvx+D5mHQTzfZzlH3Q/JuM89q1a2KVfPHFF4Vxkqnff//9wkzJxqnJcxGgDEM5hlcAfG3D2E0jE3/G1yPI8WuYeSwzB3Bg6gBmp2YwPDKEbN6FnefQEBuxy2KhA48FxVDd+B9tkZuxjxWrh2uI8EYCvBZnsBZnkCQOvJjxx7bEGvs2EDkRQidCbPnwrACjoY/pRh37OGXKsjGdy6GayykpxHHhJpZIMhZlGV4p9HpodrpYb2xhc3MLQRigmM2hWiyJVbO+uo7FhQWsNTfRiXrYqG9ifWND9gGvbB5//HGRr8jmWWBl1+rly5fFTcR9IQyehvlYxQdQb+92e3LFwIA4ZuWHEXsNQhw/dRz/8nf/JR579FMYHR6Frbtyec/nytMpR+0eVqI/5+Yzk46SMIt7+nOUjpLYg6fIYJNVeODPYX4d7LpPdA8YcCfTJrs23nN1wjK7RMULKObFy/NdXzKUSckxBI/tBUCxPXZcig+crDBRkg314tffeB2bG5uoDdcwMz0t0gpfnzG+CwsLsggQsAj2dIDkcqowS5ufTS96yBwVXzpT2ahTLJQwXB3DSHUMo8PDGKlWkM97YKpvzLGpnIstLTkuvNCBG9pwEgc9RNiCjw0nxIoHzMPCQuiiF3qwIxvZiI8joyW4J+g6MXpOhMgOkLVDDIU+hlpNjAY+Jh0Xw9T2GWrGRizHkSsF6XWKEkRhDJ/5L0GARq+DNhl0EiNHXd5ykHR6aG1sok5GnwRytdELA7ly2dzaxFC1ilOnTknBmfuC+7PRaEp+D/eVJELyeMWJpGMq9SiRq4MgCZEt5FGslJEwibLZlKuBRx5+FAcPHEApX5ArFH6ptGPlnJFpgQbgdx96WQDY0aqGZPNf9NQTBui1384AUk1pg4LqJ3qq/0J/fADuv9Du+2SebCQUgiidGeryPukHezE+lhSO4Ez1VeX0ErhNTw9PbxUbLMBCINdB6Gox4HPUT2QOaxxK+iMHbHR6bXi07uXY3GTLAkEnCRlou92CLw08kMe4rgeHo/fE9WGrmNs4EpBngdN1OJ4vC9vJIONlUKQkklFdl5GdILYTDrkTKcYhsEfk7RZ8K0bXjtF0I9Q9iMe9E7uII1dA3eXjY0vAnXXY0I7hWyHgxrARIhMGKDCvHQnKADLCclXSJFv3+Rpk7gRakxbMyVe9JNIzaWO4cnUQw/EjMACGwMztTVxHipvdXhfdXk8WC8Yf0y6qmr0seQ12srZbbfhBT41FZNNTGMmCwpRJCXezLTi5rDiH+D2lGdY2OGC7kMvD5WLETTeLsRxgTq1Sw1NU1o4Oh+5H+24v3BLhLA1TtHsm/S7iYonOKIa8OQNw/2RO8Y/krw7A/SPZjb/cFzHMnYBKj/rGxmY/R50gH+vMEhYjpbCog7TEEy2dk7p5U1rdzSg+M7VIBvYJwKiRc/R4xzK0IxaTXtTHDRlmlLBMmSDkAsC2eUcX99hGk7hK/45VcU/+Y4SBDPlT7fIEYGrjovPyORLjqxpzIt73QxstkUsoPXDUaWgl8HlzgIADNHjVQr1d/oaaJ2uGLTGcTOyFkilD73qMDBJkZeAIpRD+PS4G6r0LcHP90X+bwMrdwasASh7cZ0bK9yLA48JqJBHuNr5Hs5MFZG3dOKvelxwWiUrmdYnKxhflXB83/kS2R57HUDRVe4gJ/NxHsmASu5UTSOokeiJJItRdjqAsvmpoumriUkdYN3TJpR0fysU7kjkA+UIewyMjGKpWkBFwHzD3X+6Z/dH+tQG4f7T785fyaqagqhIdG6Jx0ydOTZbgLsM0dPQr0YT/3lbfFLLLJTfBSks4yoenYEaN6lPAIIAg7e3ElxhWKptFsC9OECYxIsbNEtgJpAR5AgwLoIkDJ6GfhHIHAScWQEksauCKVSaENgEfDcjvVpGUm1Fvj1p3OCpQM2suBOzUTAlQaSlKj8cwb0YxZfmrGlTlCmX7vdOdo0YWqg2RhcZOEHA0odotans4vjVWNzouZVCKDDNRjxHmTGlLPyeIQ4TsjmVUgFrW5MYMdocLhiwiaiExi57s+ESWPbWNKm1A/U9n0cgAkP5KxJ4AOn3U9piLNUYayKvK66uBKiLB8TUsIMcaAoeUj1RRLBVkOMtAlvmlnM4f2x8ZgPvHtms/vhc2FjpToKSHenl5RYp9LFjGnHQkJ7b2e2tdViGVyRchvJhR2boLRqgcdXY1i9V4MIQVkiHa5OhknOTBLAIqN0mn20G7RytfKDoxG3I4E7WULyFjZWHHLqxYSSqS7eUocKeOLICsQcjMyDPA2GeaIj0Y5rlzvxI4yfBjyVh5v33ep6/yQF06VkCqgZnv1eUFiGCnBkcBd8o7ltQB+PcMnvKxBuCJn+pKQ+27/ohWXjzZHGwSwo9CiQz2JTK5iyQKpZDKkYOcd5rN5VStg2xd7JxqQKwlAM8B5PoYGtbOqy8B+e2ViLUJqlBysSLMXx1pYfhcWCSnTC2sruugXCnrHoRRFAjsGUd+PgD39/s83dm/H4D7nX18brl1Btx5srKYSt2d4L60tKxYfLMlI9xE/ZACqymumoHQSjYwbE7+CDVqASbN4A0y6QRF9ehIADxOlAavJg6x+3IeK2sr6AUd+FEgk5smxqcwMzWDankYnp1TDJ7ua8uCzdhyaS7S25W4ujCoFyN1uaDHe2q9Qyf2allZASjfDq8+CO7K5K1p7fZu247KUo/fjf/94UzyYgq06ZwkkzbhkXKlIFcHirmHanSsPM6NEgF3aYANYtZFtwubrDHwqka0+gi9sCf1kY0tSmnr0pjkB75QfTqLDh85jPHJSWHRlkgi1LxVlIAZwKEWQktZPHVomFp49TVQaMEOlRVUgN1IMkZ1466xGfzmyHEiWx8bV81W1doQ3CzH8/GCQ1kyBwXVPQgQepMH4L4Hj52RZQSTpcNUAfza2ro0Di0tLqFOy15XFTcVUOqbOGUMuJOJ64KbRK9oBJBipJlopKQbgfYk0tp6KPe9bg/LnPV58QJuzF9Fu9uWRMRMLovJqSkcOnAYU+MzyOdKEmZlM/fEtiUgy5GB25ToaT1MZ6HoK45bALHS0Jl+aHi3HqMqFxxaJ9l1PPvgbuoMt/i92Qe8kiCgE7DVhYBaWMyuCYW1K+bOHzqMCCDL1wVNgnsUqWI195nsL0YNUI6JAik4M4KAi+HqGhvGWmKr5DpFV80DDz2I/QcOIl8sqP2k/7NtBw5BXm4KcEVSkWx6nZvDhVInGgu4S3FYOaXEPWWadm0brueiNlyVDtrx8THUhodRHiohS1eTMlz1gX0A7nsQIAbgvncPWhrcjW9Z5JFOBysrq5i/cQM3b9zExtom/J4vOjydGoqhqyKlAmtVIu0XVc2QCymUSmVQFg8FVoy0iuGLc0Yxd84FXVlaxoV3zuP6tStodZqIw1DyTmojw5idPYB90/tRLtdgW56Ak0ug8jhw21bWO9HiPWH2AlomplYaNPViI2CmgF3NTaVaoX7Hx7A8oNir1lpShza9SN3qiCu+y0KngngWV5lCyZsMGe+De4LAZvFW7T+xDnK/hnoh4ILJ3Pkwhmjr3Ef8LwoR06Pu97C1tYnFxQUs3FxAvbElziKuC/Bs1EZH8chjn8LM7CyydMIwlC0Rzg6XSY9SRFVWTQF4XSvn+5bvzaTBiLUO059qrlOU1u5lGFBWELY+OTWBqUmy9ZqaokWXkokd1jbaAXPfuxgh58bA5773DmBallHgrvgp7wnwEjN79Trmr83LkOZWqw2yP9G7BYQ0uAu0E9x11jdfRwO8LAAEd8PyrQQBIvhJLMAVsqM1CLGxtobLFy7gxtUraLW2REMmkOSKBYxPTGLfPkb8jsNyPCkKyna4TJu0FIDRxR6Z/HEdGUDphhRSF1kFyA2wC5CRvWqJxbaVBVEXLW99NFOV0Xcxd6X3iIOHY+o4YFrAPRadX+yijJRHIm6ZUIrQapEkuDsh75UdkTHAISMLokAKp5SwEu4rZuG3mlhfW8XS0qJMcmIYmbIs2rCyGQxPTeLcI4+ILJNxM/AsG5mE+0fdJESMUon24utqsCp0O6qWwVwZkWOkZmJ2iOp6Za8BB3xQgqFXfmSU2fplucri741EpkvBcgwH4L73sCG9xQNw34PH71bBYUZXJyCzqLq+ui7gfnXuKm7cmJdmJ/kyDFOYpXauaLCS5iUxVdBxI/glgKUep/zlQaJuBPcgjFBf38D1K1cwf/UK2ptriENfUJcZKZXqsBrqPDoJy6X50BFbH8GasoNLNpm4cFhwTSjEG/qpbXyi+arNVtG2+vcCdJrX0/0hZQKda/4ex9O4cXY+RIv5tHgihsdh3uJxJyNXRUjukp4Vyy0wvQESV6PBXbP8SGvsBHblQqIsE6DXaqK5sYHN9TVsbm1IMVWVpnnFYcMu5jG8fz/OPHQOwyOjyNoeuBQymTILIJuohHZbzdTTN7XgEdzlR6o7AbbEL5hsGS4GyuI4NjaKfbP7MDU9hdGxUeRyWblyMoPF6dTZ3dk8iB/Yg+CQ2uQBuO/B43e74LA+wEex6OGb65u4cW0el69cwerKqmSUsONSmqAiyiyRcpkITU+QRAbcNWsXeNJWR9tGJ47QpeODz6cFMgzR3Krj5vVrWJi7jNbaMhKfTTlkk7Y031SGx1AeGYXl5dQwDT2Oj4VVslHR2wns9MRr0JZhomLVJJjr4UpSC6aLRLP4/v221VCXF7Q2syvwtq9QbJdY+yxVQD1GFjFyFgGVnnr68ylIqQXOR4xm0JP3H9CPzoHaUlCNVVSB3ifqWkiELIHvkNnu9TpaWxvoNpsIfNXhShMkDS1MdHSHyhg+cghH778f1eFh5CwXectFAbbccoklYC8LnJhneG8WOjU+VqVBKn+/QLvtqMawUgkjYwx6mxJgZ4Y+JziZ+AFlcdW+JBaR+0qYdkv1m5/24Ilyj2/yANz34AfABD/dbtNFZuFoup6Prc0tLC+tYHFhUVriO52uGhhBIYJyhqq4GZquGnp00VW6O+nIIbjFCZbrW1ht1NHs+dKST6baaTSxfHMey3NX0FldRNLraqZNgHfhFkrwykNIMjnAy9F7J/qxSDIEd7g0H0qGjAJ3GxYHXlOWceh/V4Cm/N/qRrYZi13QsHn1OFM07E9jMkC13ZirvtNCvCyGSOAR1OMI5SRRgMpUSClo0nrIhSxCJw6wxejf0Ec3DCUxks1LUnyNYgF77g8ppILPCRDzFvQQNBvwG3UkgQ+L0o8aZS1ST8yBKMNVVI8dwYHTZ1BmeqabwVi+jIlCCVUngwIseFJ3UPJTTHDX+0GYO/GeC42xsIq+nkGxWMLwSE2Y+sjwMEqVknSh0sOuXEdio7rlx0j9+NbhY3vwlLknN3kA7nvwsL9fHJA0LUmnKodNROi0O9LsxEyTbqcn7gnxh+uRoxJYxcYnrd0bKULGlwLwkwQbzSbeuHQZb87NYXlzE22f4JUg7HSxtbSI1Wtz6C0T3BkKpop8AkCcwZovAtk8kCkAXgYWW/wJ7rZy0ES2K12qSrIxOoP48ZAIkBmQJ0XV/zbMVbR53fbZByrN7hU+GYKugV2Bu3iENMjT9khw5yzVYgIUbRd5x4PHvx/F6AY+mn4Xm2EPzTAQOSqJIim6ZmiFJHvnFRElrCQSr38Y9hBHPhD0ELdbSNpNOBrYFbgDAZcWRhKMjqB04hhmTpxEoVzBcLaAk/v24759BzBTHkKZV0HCrpV5la4dWjP5vk1kvQpL2+4McLOeFEpL5RIKxYIatKI7TinViOQirqPbfymnzPs2D+zBM+je2OQBuN+Fx1mYPdUWcbskCINIip/9qGBdJKRn2zS/mKYcbYLs6+0h2+6TBDdWV/DsT17CC6++jhsrawLuwvB7PlorK9i8Ngd/eQFJr60shCZW3c0CHNGXLQCZvGbvnvi3VXaJAvdE8ssVoIuIbNg7/53W26lBEHTk8dsavOrMSVH1vr6QAndVOdZHfBvcVXE0Qi6MUIhjFGGj6HjI2o5EOTCdccvvoRGH6EYsklKWYVVauWrcQIE7i7Fs5SdrD0M2k/lA1AO6baDdUjEFelYUF82Qe8rzgIkx5E6dxMSRI8gXyxgvlvHkyTP41fvO4vDoKMq2g6xKZVBZOWLHVG+Xdy6zfMT2vt3hyyRJupIkz0ZnxLAuITK/ALtyIL236jIA970MDwNw38tH7zbbLu4Z5XfUDF4Z/oSJ6bNZaqfS2a5kGMHMFE/rZ8YkCXpxgksLN/G3P3gOz778Kq6vbaATRqrxqOejs7aGxvWrCBbnkXQ5VEKBuyCZp8E9R9aeAyjPcBwewdj2RLqRbkwp7ul7AXcN8koUVhsnNNUUXfl7E9SiF4X0O9DMts/cDagbb2T/3zovgOw7iOAxqjgGitTeJc8lRjsM0OC4vVgXSjmuTxZQqTjDCiJ5ri2MnjUNHzFBPekpcOeC12orF47exwR3Mnde2WBmEs6Z0yhyTGG+gNliBb9x9n58/uGHcGJiEiVYMo1KLkIkCE2Bu8QgcLariaxXYaDa3GkAXNctjOWTVw+6OUl9HEwbV/rDZD4JA3Dfy/AwAPe9fPTeC9x1WJjy7RmWt33ZrroulZ4tmeEKA+Rm4IH11TCBsNW3rl3H09/+Lp579TXcaDTRFvufBbfbg7++jtaN6wgXrgHdhlpYVNe8Aq8+c88BTha6RRWQAqsnOryyfBiQ38XeCeKqs0a/rvleg7t03hiAN1rMLRQFwTFji9RIaNg8dfOQ2nkk3vUsIwE07vWSWAG7pG2SsfNeATuYcBnEkgxpccA3mX3CoSAsLJO5d4FOG2h1xIXDbgO+m4DMnfs/lwcO7APuPwNrZh8y+QKO5or4zVNn8DsPP4zTUzNyJZGVcDAuxiYCQTfpatbuynAR1bC0Dde6y1dWFOX8kWO9A9z7K8KuT5OspvpnA2lmL8LEANz34lF7n2024WFylmtro5rMY4Bb5aRLwqGcv8olwWRClYJuiL8lINQKQ7x+ZQ5/+a2/w/Ovv4X5dgctSgoxkOn6wMYmuvPXEc5fBTp1lZzFLyIZwb2QB4S553eCO9Hf4Xg9L2XxM9KMLqqSwfOmQ7jUorEL3HkVYHT3dMZAWnPoM3YD8AbkNXMXFq4KowjCvhVSNTGpJi4ZsC1NAubKSC8IjP3thUAQKLlGwJ3WUzL3LtDuAK22gDtHeHP/CnPnlUGhABw+CJw7C0xOwcsXcThbwOeOHMW/eOQR3L9vFmUBd3V8YnbJ6k5ZyYhkR20MeAbcddyAHAHTlSteePMDvdb3WwfS7qEBe7+b4GAA7nfT0dTvRVklFbD3vesEAjnBdZKi5JPojJIUuPcvxCXKV0kHzSDAzy5fxhe/8U08/+Z5LHZ76Ep6JOD1Athbdfg3riO6MQe0thS75Zdh7sWCAndq7tTgydila4YAbsA9JcnsYPDUHYwf29ynpBmj06u21W0heneQTBrcZSekmLuJciRok4mTwVN2EWuo0ek1uAt4G3DXjzfgzucyCIzgTjmG7D3sAW0y97Zo7gR37hYumj7BvVQCjh6G9eADSMbG4eULOJTJ41dmD+B3P/UIHj5wABXLQZZ6Pa+2nETybSKZm8qGJR1cZsBdiidqN/SrCybeUtVg1YXc+4I7H2VafgfMfS/CxADc9+JRe1/mvg3u/TPcnJ/9Zk1jp9PJKqK5q18alxwh2k+ArSDAP168iP9CcD//DtZ6gXK3JBZcP4JdryO8cR3xtStAY+Pd4G6YOx0zBHdq7gLulGNS4N53yhh5hhq7BNDs1Nr7Hm/N4E0vvtHmU7EF/V2V1tgF3FNas3xL8NbMva+na4CXji7tHSKzTzN3gj3lGAK8AXeydoI6G7p4E3BvqQapVEHVt1zE5QqcY0fhPXgOyegovEweB7wsHts3g9957GE8euQQhiwHGVoddeYxwV0kNa3Ds5DK/Pkdx1pwWUcq94vIaVDfBvmUnSj1yRro7nsdGgbgvteP4C223/jgxcdtJHcBA2MD3E4uVL/Wfnf94DS4BwmwHvj4/tvn8aff/Ab+8eJlNJk4qRV6K4jhNJqI528gnrsIbK0r+UKYO4PCMwB1ZTJ3gruX0Zq7REMqoBdZhiCeYu8C9Py9Zu7pQmq/kzVlg1T983pv9LMJNILtcsykbJB9kNczTPuySx/oTUC71tqlEm2YvWbqYaiAXZ4TAPw30x4p03DSkmHuSZQCdwuB5SGqVJE9fhylc+dgD48i62Qx7no4t28S/+yJh/HIscOoOg5yjEVgsJlksCtZTULUiOHMztc5OP3VWXfwmqhf5Vk3gL4txdzeLZPalwM75J5EiQG478nD9t4bfVsffMoFaFieCs0yvuk0c+dlP9BLEqz0uvjWm2/gT7/5LbwyN4duwEkQyiTP3HCn0UJy8wbiyxeQ1DcUwIljRrtBWFAlwKfBXaYLEcwzqqgqTplbgLuw9hR772vvWqIRdNIF1Vv53N8lz5gIYc3c5U6DNcGZDJ7/Nvq7CtnRj9EALgCv7ZAEci5mIsfweQR2svkAYOSDgLvW3Jl1r0IYxAYZWBkkQyPIHT+J6v0PwK2NymzWmuvi9PQYPk9wP3kYwxkHeYK7GqWiJRfjfNKduBrcBZLN/95DTdkG9dtp7v1ruLvwDLk33tIA3O+N46zepTmPjZNGB/6KPG8GMWlsoAJAybmTxFjqtvHMK6/gz779bbx57RqIOyrHAAAgAElEQVR8atIEZg6z4GjSVgdYmEd46R0kZO4G3Mm60wXVLLtUs5qRa3C3M4q5G3A3jF2skcY1o+/TjUup+IFtbTjl7khT0h2FVb0TCNhGnjEALi4YnZymIwaUBKMjGvRgDfnZbnAnwN8K3AnwGtzdJJB+XGJuxPgBO4dkeAx5gvvZ+2BXR5BzMhhyHJyaGsVvPXYOj546jNFcBnkkyPTl9FSQWp9Vby/M/cuV9zax60/++4H7vXSC3F3vdQDud9fxfB9Kr3/9IcC9ncRYaDfx9I9/jD///vfxzs2bCIj6BHfGy4YJvHYH1sJN+BffQby19m5wl4IqO1S1LEOdXWyNlF1uxdw1ixdfu2lo0kXUfthVqolJAmhSxb901VAIqLEJpR0yuiiaZu4G2MURk9Lf+ylqKX/7hwJ3OmbacGNfmDu3VMDdyyMZmUT+5CkMnT6NpDKMvJ1B1bVxYnwYv/HI/Xjs1BFMlPLIW2rmqxq4pGMB0h2kKUltW4saFELvpdN793sdgPu9dPR/DubejiPMN+v4ix/9CH/x/PO4vLQsWTOc60nm7gQxsp0urMUFdC++jWjjduBOzZ3ZMgRzA+7a505ZhsVV05WaypZR4K5ZvPG5C4M3soxx5xt5JmUHMcc2DfaGsd+KuRtJxsg0ugu1L9OI/KILqrcDd6O/G1mGzL3TFbeMAXdlhbQRZYqwJqZQOHka5ZMnEZWryNtZDDkWjo0O4XMPncETp45heqiIooUdzF3EmAG430tn74d+rwNw/9C7bA8/4ecE96tbG/jz557Dl194AVfX1qSxSYXTKHDPdXuwlhbRvfA2wo0VxdxVRCUnLwMlnS2zW5ZJM3deCaTBfYcsozV3nfGugD1li7wdc0+z9jR7N1bG9L3R21lp6BdXd31PWeYXAHcnxdypvke5IpzpWZROnUb++An0imUU7AyGbAtHhsv47AOn8NTZE9hfLQu4s5GJ0b79gSZpcE85neQTuuN3e/gzO9j0n3sPDMD95951e/CJfXDfnkvKvBFp0klp7mpinYUosdCKQ1xZX8WffPe7+NpLL2F+YxORdL2KHw9OCAXuy4vovvM2wvVlINQFVTJsgnuxqN0yWnMXUDdxA1qWEVuk6VJNe96N3q7jBnbr7nwdM/fVxA/cTpYxGjvvBcyNNGN86/QT6uKpsPZ0oZWedvrXf37mbsd+SnN3EBUqcGZnUTx1Bpmjx9AplATcawAOV0v41ftPCLgfHB5C2QZykurAQF8zijAdD7BLcx+A+x48QT/aTR6A+0e7P+/sV0uDu6knEtgt1Rgj8b86S4wgQl24FQa4uLaC//sb38Azr72Kxa2GBJBJK05sS3BWwfdhLS+hc/5tBGtL7w/uYnHc5ZYR54wGdTL4NHPvSzPp5qXU95SI+rkyu2SZ3UVF4/l+X1mGbpiU7ZFSzQcCd1ohjffdV44ZLctYKeYeWw6i0hBczkw9fQb2ocNo50rI2BmMIcHRoQI+feYofuXMSRwZq6HCZEg2jaXAfWdq467C6ADc7+xz8ZewdQNw/yXs5DvmT7yLuasGJubMvAvctVuGEbfnlxfxR1//Ov7+/HmstlpCaFWwuC1hWAW2668uofXO2wiWF3aBe07JMn0rpHbLSGep1tzpdZfvNXM34N63QBrPu5pcJN5343U3DUzpAaofqqCaihIwBVVxvaiBHH32bpww5mfye+1zl65V3cHKBSAN7vS6a7cMIwlYUOXyE/P9VmvIHDmK7MlTCPYdQDdXhO1ocC9m8cSx/fjMmRM4OTmO4UwGOUl04FCOWzP3HeXTAbjfMafdJ7UhA3D/pPb8J/F33wvcTbY78TPmZB8VGsbogbeWFvC/f+XL+N7Fi1jvdNTwbF1QJbgXwxDu+ioa59+Gv3hTdWeKz90G8jkty6R87qagSimGwJ72uRO8vV1BYgL66SKqBvl+D/1u5n6LoqrZ37uZe1+iMV2oBtANuKfYe7+gasBf+9sJ+H1wp7edYWLsWmUTUwB0OkCzBUR+P7sncj1pWiocOwbn5Gm0p2YQZouSkimyTN7FYwem8Zkzx3DfzDTG8gUBd6ZD3g7cRWo373MA7p/EGXZH/c0BuN9Rh+Nj3pg0uGv9WQZzkLnvBneqEBI94OONhXn8r1/+Kzx75TLq3Z7inilwJ3P3Nta2wT3gNKZd4J43bhnjc9fM3TJWSLpitIuGzF0cMkamSWXLmDz3fpdqGth3ZaHcyt9+qxgC8blr9i2edg3w0nWaDhYjmBubZIq5G+tkTNa+C9zpntHxA/wdw79kPXE9uKPjyB8/DvvEKbSnphBkCrCcDEoADuVsfGrfBH7l1FE8sH8fpgtF5G1G/3J6lWbuO0Oa5XUH4P4xn0N76OUH4L6HDtYvvKk/B7hv9Lp49do1/Ien/wo/vH4NTbJRYe6qoGpkmczGOuoX3oa/MA8Q3CUkXjN3hmOlO1SN5k5pgg35ZO79+AEN7Lu7VcXxuDshUrtmpFhgbrqR6VYNPKmMFaUt6YyZfheqKahqADcBYiLJpBqXxAOfkmT6soxm6mTt/RuZu8qWYSSBAffEy8Abn0D+xElYx0+gNTmJgH0AdgYuYhzNOHhkagRPHT+Mhw/sx/6hKooEdw45UU53nSyzMzRoAO6/8Fly17zAANzvmkP5Ad7IhwR3+tkpw7x0+RL+w1f+Cv+4sIC2SBBGc7ck+5yyTGZjA/UL76C3eB3Qo/Z2grtm7v0OVc3cRW+/heYuwzqMq8aEze/2vGuphlcRurlHjSdKqc/8Pg3q78ncNWsXO2QqHbKfJ2OskDpmoK+7a9ZPC6hkymhwl4wZI8s0YZG580qJhyqTQWZSedxx/Dia4+MI9CATzrE95Fl4cKSCJ44cwGOHD+PIyChKnouMzJ3dBe7y3gdumQ9wBtxTDxmA+710uD8MuCecQZFgudnEC++cx//29Ffws5VldMU+uJO5F8MImc0N1C++g95NDuxQc1T74F4up6yQlGG0W0YcMwwS2xUcJgXVdM6MBvF0eJiJJhDwNlafXaz9VrJMmq2b7yW0XUsxEipmQsKM/s7qstbg+8VWU0A1I/e0/i6yjAF3gn2omHuD4B7IgGwB92wW2ekZFE+fAY4dQ2NkFIEsfJ4MKd/nAGeqBTxxYB+eOnoUJ6emUPG8d4O7sTgNwP1eOpM/0HsdgPsH2k13yYM+DLgzczyKsViv47m33sR/fPppvLaxhh4BU0zxKpDGEeYeIdfYRP3SBfSuX0XSNXNUKcvkgXIJiaRCcsweI3/T4G4KqrpDtR83sMvrLkM60k6Z1Ji9vlPG5LnvKqh+EOYui1bK526klx3xvyZUbJdTRh5Dpq+DwoSxpwCebplmU1g9wV0OQzaL3L5ZlM6eRXL0GOq1YQXuHBJuJZi0gBOlLJ7YP4XPHDuOs/tmMZTJImNZO5n7ANzvkpPzo38bA3D/6PfpnfuKtwD3mKPXdhdUSboTRpRHuLm5he+9/ir+49e/hre3NhDoNEjjn3TiBPkwRK5RR7MP7i1hn4q5E9zLSGTUXjpbRk9hsnT0AB00xvoohdVUMVWSIVMdqf1iqpFgTLbMbcC9z9BTY/ZM7K/JdTdFVWa0vMsKqZm9aOsmMTIV9ysFVQ3uaeZO1wz/Teauwd1o/VYuh9zs/j64b1WHEejaA8F92EpwPO/iiZlJfPbECTyw/xBquQG437kn1523ZQNwv/OOyce3RVqb5XQm9a0ajk0iTseMCn/Xo/YE3BOJG/jWyy/jj775DOYaWzIBSJ4g44AccFBENgqRq2+hdekC/OtXgS6H8NFPqQuq5QoSumVYVBXpQQ/pEEukGZatwT2dCkmwd3cBuxmSLVVFDe4iy6QzZnbp7maP3pbBpzLb0xJNv4lJj+Azme0mVyZdVJURfDrLXSyQzHgne2fkb0uBO4FeF3KtQh75AwdQOnMWyaFj2KzUELouEteGZcUYshMc8Rw8PjmGXzt5Cg8fPorhXA5ZYe4qm12uT/q9S0ZzTxeXU6FpH9+navDKd+geGID7HXpgPpbN0uBGti7ArkesigaswV0Nb1NA0Q1jXFxaxl//5Cf4z9//Oyy06jIgQgZ5hh4QuNoxE6HY2ET74jsIrs/B6rXUKzu2MHarQuauR+1xjqoMxNY3OmZEe0+Bu8mOMZZILhL8MhOZWFEk6PeNIuyWNV5O/VgZmp362g3s6X+LCm6y3HVTE32gZsyezFdlEUJbITmA0AC7yXOXyF/9c5mnqoupLC63m0C7ocBdMncgc2XzBw6icuZ+JAcPY6M0rMDdY30hQhkJDjsWPjU2hn9y6jQ+dew4RvJ55GxdUDWTs3a8D1Vo3XYODcD9YzmP9siLDsB9jxyoj2QzU+Aunaly6yO7aL0EORuRSDXtIMJbNxbx9I9+hD958VmsdBqKLUcuEGaAgKDKpqcY+cYmehffQXhtDug1t5k7R+yVh5BwEHSWc1Sz2s+uZRnTpSosXksx7Drt58xouyMxi+BugN0QddlkAjupvPa894dV7Ir6TTP4PiiqqxU1MTY1Qq8P7vyxZu4C7rSCao2dgE5wl5x3Pl+P2jPgTga/A9x72iJKcC8gf/AQSqfvQ7L/MLZKVQQep1IpcM9ZMY7CxuOjY/jsqVN4/MQJjLKRieCugV2Ol34fO8N9UwB/K0voR/JhGrzInb4HBuB+px+hj3T7dAONFPUUsO8Ad2lPInMnuFto9UK8Nncdf/n88/iLl3+MlV5TqR/seAoI7q4AnZVEyDS2EFy8gPjaVYCLgDB3B3ahAKsyhEh87iyo6shf0dd1/ACHdcioPd3EREAy4N4PGePPNMCnFRgBN/6CqG8amt6Dsd7KCpkGd35vGLvcG3Bn1ymDwwjkBFXjjjHgnmbunMLEDtUQ6DLLvan2CSUaM8C6WETu0GHkz5xFPHsYrUIFIfcNkRsR8kmMI5aNx4ZH8aunTuPxUycwXtTgLm+PI/d4vFKZMv1vB+D+kZ42e/TFBuC+Rw/cz7fZGtz1BCbKM7cG91iYe6sb4mcXr+C/ffcHeObCG1jw24gtSg8Ed7J3Mmay2BB2s47k8iUkZO6thvq548AtFOFUhhBmc4jI2jME8tRg7D6w65+b7BgpoKakGmHu/JkGblFdDJrxH5zJ+h4F1f7Dt9mu7ENTUDUA3x/Mwfelgd1MXiK4i7ZO0Nes3TB3GbOnf8awsD64+yp6gOAe+WrRY92gXEL28GHkztyHaPYA2oUyYs6X5XtMIhTjBEcsBw9Xh/GZEyfw5JlTmKgUkXO0W0bKCgNw//nOg3vjWQNwvzeOs36XaXAnRhlwV9IMWWBac290ffz4rQv44re+h+/Pz2E+aiMU6cFSkkyogEhArVkH5q4AV+eAZkPJFJQQcgW4JcXcoxyZu4fE82B5HhIpIGorZF+HN+P1yNTT4J6yQRoNQjzu3HYdVfBeUb+79ffdDN5UIAy4iwMmFQlMjV0Kohrc5d+7AJ4FVS4ABPee8rtbnRBWq42421LPtzii0AIqZWSPHEXm7FlE+2bRLRQRy1UNC9UJKqGFI4mNB8pVPHn8KJ667xSmh0vIu44elG2U9RRz3/FZ3rXQ3VOf88GblTM6ue005cEOulv3QKy91tua+7vBnRhXb/v4h1ffxH995u/x4/Vl3Ei6CIS50wSvhnWohh/OCW0CV68qcG9sqWRELhheBk6OqZBFQIqqOcl4dzIerIwn9r+IIC4M3gSGpcbrmS5VAW4WXtOgxb+vC6sm5313d6q8tbQinR6QnYofSFsi+Qb7w7I1wBtwF4ZO6YayiwF4dc9IX/g9JLQ+dntAL4DVDWF1AyTM5EmYc0/mDqBSQfbYMWTO3odw3ww6rE3wqsayYUU2xgIHh0IbJ/MlPHr0ID597iRmx4dQyLhw7UQFY+olWX1Od4O8HkO4nTZzt36cB+/rNntgAO734EdjB7iLa0bBhE29nZf6/FlsYaPexbM/fhV/8tVv4I3uFm7aAQKbwMeiKm/EFN2p2a4DN64BV68A9S2VjEi8kQlLWcDLKZ97Pg8nn0M+l0cmnxe5pu14CA24M3aAurOxQJrpTALSpmiqQd40Lxkdm782X30WrxaunRlbGgj7CZEm9pfvx1Qi9LxUEyTGe0YLmOAwifXVBVQ/hBWEcMnMe00ErbqyP3YJ9gmsQHW4JqZoa1mwKlXkjh9HgeA+M4VmIYuI4M5RHLGD6cDDYd/BIS+HBw/P4tMPnsShmWEUcy5ch3q7GQu+M1tmewcMwP0ePLV3vOUBuN+DnwAB94RQo+yQEuEr3mk6ZQjuSn1YXW/j28/9FP/Pl/8aV+wAC26IwNOBWwR3gnycCGO1Og3EN8jcLynmTnDveyxNtC8LhmTyBeQLJeRLZdilMrrZHDpeBpHnIqIVkCCdYaaYds0YP7spnBqQF4eM9udzfFQ6IDLN2HcAfYqtm2Of1tYJ4rw6IRCnZ6qaYR0EdbFFxgLudi+C2wthd7qwOy3E3Tr8zqaSYcTvrnN4+sxajR+0KsMoHz+F4umz8KcnsVV0EWZZN3BghS72Bxkc7rqYtTzcd3Aan37kJI4cGkE5nwZ3Ex42YO734Gn8vm95AO7vu4vuvgdwkpJIMqK5E96V1EHmbguyK8ff0lIDf/v3L+KP/+KrWKlksZiL4WfE+yhNTFZow4kBNwrgdrbQmZ9DdPUi0NxUDNcY6ZV/se9qse0sspkiCuUqstUaUK6gU8jBz7loexYSJ9LgTqDXEg3lGII5/fDG9mjAXYCdoNx/Kxr0P0Cue98Jyfetm5kI7LZ2v/Q98HrMHkE9BNCL4fRi5PwYbstHstlEsLUKv7uJKKwDUVcN+5CFM+3bJLjbcCvjqB49i/LJM+hMj2Gt5CHIqaA0gvvhXg6HOw6mIgenZsfw5GMncOrkBMpFT2SZncydf2Mgy9x9Z+ov9o4G4P6L7b89+eyd4M63oBp+WFCVSUFxgtBPMH9jC1//m+fxhS9+FVsTZayUbfg5Be5WaCEX2MgFFjK+j7C1gfriVQQ3LwKdTVVQ7Xst+fqUHMwcIQJUDlm3jFxpGJnaCJJaCb2ih2bWkgUkyXCmXKJy3SXDXcJlUsCesj6ySElwT8e53057f1ch1djcKZ0YWSZU4N5/Axr0ZQgHGXsCp5sg1wXyrQjWVgfB2iY6rVUEwSZi0AqqPe2Cubyk4MbplcRykClOYPjQGVSPk7lPYKXioZWnZZ9dvx6OdrI41LAx1gOO7xvBU58+gTP3T2OonNHgzk5iw9zNa+urKrPKDQZ27Mnz86Pa6AG4f1R7cg+9DsGdgkyku1QTAU4F7mxIIhEOewmuza3hK3/1LP74//0qmrNVbIxm0SsqluwEQKlro9wG3FYX7cYqNtfm4K9eAfy6ljV0b5CADcHYjJrgvQcXeWS9IeQrY/DGa4iqObRyFtr5BEEuQUIJiDINAV5IuI4ZiMneDbjTKbML3NOSzK3kGR3DIG9aunX1dpoaAqk5awu8mcuPvhQTwyKod20UGzEyaz6i9Ra6jXV0w3UESR0R6oClp1FpcOd1keLWypefzU1idPo0Rg6fgTU7jfWRHJZzIfyMDcfK4ngri31rMWqtCMdmR/DUZ4/jgUf3o1oluFM+495Q8L69cAzAfQ+dhh/7pg7A/WPfxXfeH1DgTl6a9rkTP2NYMW9A2Ilx+eIqvvL//QB/8qdfQ+tgDa2ZItqVBLETS457pWlhaD2Bs9pCo7GCzeZV9FrXgZidrJQ1DLhzH3C0M4fE5QhtsOXGwRR55DM15EZG4E5W4FdcbBUStPIhYkpA1N4NuJt4X4I7u1J5IysmazfM3exu2kn0kpUaT5Q6GBrUJUsmDe6Ud1LgboLE+JheAnSBTNdGqQHkV3zYy10EjTq6wSa6aCAEwX0LCR/IHanBnUCseDv/7yLvTGJk6CRGZk4ge2gW7dkybpYibOUs5J0sjjQzGL8ZYKju48jsMJ769RN4+MlDqA1n4TqUzwA7sWH1ZR/KPVqa2qFP7exdvfM+jYMt+rj2wADcP649ewe/riqoGnDfdlsocE8E23rNGBfeWsRX/vz7+OJ/+Vu0Dg6hc7CCZjVB5MXIhAmG1oHqjRDWzSaa7RVsBDfQjeaRkLmKrKGVDQE4gjsBPQ8HRbjICbiTwWesAnL5GnLTI0gm89gsxajnQwR5gjulGaOl69AyEzdAkBePu9bcTZxMP1Urpbm/y1SSAndTHJZNprwTqqKqMHcN0GTuPQsWGXvbQWktgnejhWS1CT9owUcTAdoI0ECADSRgvg6fzy9OPeXG6bhfZFDAFEa8Y6gNHUXh4D7Ex2tYnrCxVLFQcrI4UPdQm+uitOHj8OwQnvyN4/jUZ49gZCwH11VWSAF3hrgJmCfqCsZEL+zQqO7gD+Ng0z62PTAA949t1965Lywxv6azXpQJU1VUkowdAM11H2/89Bqe/m/fx1e//D20pivoHquiOcLMsBjZKEFtMcbQOz1goYlWtIbN5CbauIGY4O4QINPJZNTbDbAT3Pl9VsY9C8A7JeSqo3AOllGvAVulBH4xBrKUZrQTRrCXursurrJTliBGMFfjiVK3XcXUW3ndDWtPM3cByUixd2HCGtxpZ/Rt2B0XQw0bhfkurOt1RHWy9S4i9BChCx8N+FhT0oxUXvmVAmDZxByKBHccRdU7hPzEFJzTI9g8VsD1EaDoZjC74aJysY3Sio+D+yp4/LeO4YnfPIaxyTxczzB3R2yTqmirt9V08A7A/c49AX9JWzYA91/Sjr4z/ozuUNWRv30HoGycEmrEXNhLsLnYxs/+4SKe/ovv4e+++SK6o0PonRlGY8JG4IXIBTFq8xEqb7aB1Ra6yRYaWEQdNxBiU60QiqzqOqInrN1GCS4K8FDU8gwLrRrgc2W4+6roTOdQH7HRK8UAC7geWbRymfSBXWQZnVBpzCgG2ATk3wPcdxdVhaBr3z73g2HtBtz5HtiN23Xgtm0MrcfIzTUR39xE3GsjQYBEend7CFBHF6sIRZph3EAa3PlC5PA5lDCDMRxHFfuRKY/BPlpD54EhXJ+24WVcTK/aGDrfQXnJx4GZCh79rSN48rdPYHymgExuG9y30zAVuKvySco2NAgOuzNOvU9gKwbg/gns9E/uT+4Gd22HTFT8FGUZGlOSboyVuTpe+Pab+PqXfoAfvvgaurUK/LMjqE+7CNwQhU6E6o0AxXfasNZbCJMmWljBBq6ihw3lFtkhhWREjnEE3EvwUBD27ooOT48OCa4Lt1xBfLCG5mwWrWqCOB8ocDf57VwxDHvvSxJmxmq6Wcl8fws7ZBrcjV1zO0VNg7v+BTV3SjK0fXZclLZslOd92HNbCNc3EScsnLJjIEQs4N5AG6sC8qK76/QedcyV7ZTgPoRZTOIkqjgAx60hGa8geLyK5cMeopyDsdUE1be6KF8NsX9iCA//9gE89XsnMXmwiEzedKjulGXYp6CwfADun9w5duf85QG43znH4pewJdvgTtAhJFGiiQjuqrdGGkOjdogbb6/iB19+Bd/6yxfx2twcurUcgjMjqM+4CBzmt0eoXO0hc6UJa6slQNbBGlZxHV2sIIGeo9pnriykEtDLcFFEBkUBeE+0dwXuxFfbzsEZH0X3WBlbMwm6xR6QCXVaorEUkrVrB006Z0YWiDSYm+/1ru0vNkZvT7llzAZwR+xIndSzU3sOMnUXU2s2cpfaCBbWEHQbiEV6iRAj0ODeQgcb6GELsewDHTnQ96FzKSuihv2YwmkBdxtDiKslxI/VsHrSQ1h0UF2LMfRGF5ULMfaVyjj3z/bjqX9zHNPHysgWzLAOSwqq6j+dC2RcRUajGjD3X8J5dWf+iQG435nH5WPaKg3u0mJPUI80uKsB0xLISDhqBbjw0xv4zp+9hB88/Qou11fQGc7AP1vD5oyDiMMkNmKU5zpwrzaBZkfA3ccmVnEVbSwjRlvDtbJBKr2dTL0soE5w501p75RsHD0mxIZTriI4PITNQzaa1R4Ssndq6uJzVzKOihTQLpm02G6Ya5/Bvmtk0fa+NX0/cq+1dbXCKG+9dHMxHCyB3XVQWXUwdi2Cd7mFoL6FMO4IuMfwEcmNunsHPTTQRR0h1KKntHdlX+QeVuB+EFM4hSEN7qiUgEdGsHbaQ2fIwtAmwb2HoTdjTDtFnP31aTz5Px/D7JkqCiUXFhuZ5PUUtEtnsQ6S2FF8GID7x3Qu3fkvOwD3O/8YfYRbuBPc4yQSrzsT3CXTRBPfTqOH15+/hG/98Qt44RtvY9FvojucR+e+CtanbSRWiOp6jMqVHqzrDSQtMtQuAmxhBVfREXBXbhG22tDPqCyQZO5KksmgpNm7kmY4X4iclvzXzhQQT1fROJLB5nSIsOiroqrMbzXdrmIXAdjNqkFuu3CplYk+e93F3HfvUZFpCO5KNhFwFwMKPaEcuAG4bQej80DltS7c1RbisCdsPRRQ70pRVf2bi1xTg3tTwF5eQNczGNhLaaqqwZ2au4UKrHIZeHgU66dd1EcsDNUTDL/VQ+XVEONRHqc+M44n/pcjOHRuFKWhLBxZfEwqEMHdsHcjy5j3PLBCfoQn0J56qQG476nD9QturJnEpDsvaYmMWVyVZEVN2wG0Nzv4yd+/gb/5wg/x0nOXsBGGCEcqaN9fwuokATDE8FqCylwPuNYA2iwq9qSIuIo5tEWWaWq5gixbWSBtYeqKsRPcs1p3J3Mn6NE1E1DGsDOwhiroHMpj86iNTi1CktW6u2leomNGAsMI+oaCm+SwXdq7Ef/TbhqzK8UopKu+Islw0dBRwowjYJYMve0NB+OXQuRfqcNp+RLVwMUrRA8+2sLayeDVvwnudM1QtuG+UexdqT0E9zJqOIQp0dz3w0YFSbkM6+FRLJ9xsT4SY6xlY+S8j8rLAUbaHo4+OYJP/btDOPbIJGpjRTiODVuzd9kF/QF7KTAf4PoveMc0qK4AACAASURBVMLs7acPwH1vH78Pt/U7wJ2grsBdIlUsGwlRIrHQ2mjjh1//Gb76he/j9ZeuoxU7SCaH0bqvgOWxEFaiwf2KD/taE3GbEoxi7grcl/s+70T0FOrqBe1vV4w925dlCPwEdjJ3V7ivjIDO5BBMF9E4mUNj1oJfDABnl2NGLIB6JukOh4xmr7sDw24rUfQFd53EoFFRCqmA07FRWrcw8loLmYstyZShc51F1EDeN62QlGi49R34aKGLJnoizTR1/cGXJcbpg/thkWUI7gT7pFxC8vAolk47WByJMNlzMXk5QuWlANUNCwceqeDh//EATj+1D+PTQ/A8DtJWzF0ZLVWv6nYVe1fS8Yf7pAwefRfsgQG43wUH8QO/BQ3uyteuR+2ZsaHkoRrcG2st/OCvfoyvfOG7OP/GAnp2Bjg0gfrJDFZrPqwoQm0dGLoSwL7aAFqKuQfYxIqA+5KAO903KlOmAKsvyZCxG/ZOwFded9XkowqrBEBKMFE1i+7xErZOZFGvhSqOgADPwDBjg1Q2Hw38KSkiDfYG9G7JZA3rp5VQLxTcCmkEYIiXg0Ldxuh8jPxPGvCWfXj8ufB2xdQpxRDUle7eRQ8sqjakqEr3jKo/9GR/cBFzUcEwCO4sqJK5l4FyQcB94bSNayMRpgIX+64D1Z+GqCwmmD6Tx4N/MIv7fvUAZg5Vkc04UgB/d/Tv9pscyO0f+My4Kx84APe78rDe5k0ZcCdVN3G//XRI4mWCOLawudDEd/78BTz9x9/FpavLCDMF4MwE1g85WK/4cKIYtTUL1cs+rH5BlYyVzP0KWsLc1ZBsdqVaKIkk44neTtauNHdq7wQ708HJUqOSLVhcpQ3SRXCgjK3TRWxMAQHZu6uTFumW4Zi/SHeoutTfDVDrouiHObYC7GlfJG1DNjI9D7VVCyMXArg/a8LrJPCQlWx2BeYE+A4CDe4E+p6WZbrYkn1C9g60VXYPXHgC7kc0c6dbRoP7IyO4edbGlRp1dgcHlxwMvxKheC3E2H4PD/zePjz06wdx8NQoslkHDhfj/sCOnc4gYfIDWebDfALuuscOwP2uO6Tv8YYEC1S0rflWDcpWGTMyTiIGVufq+NZ//gd8/U+/h2ub64jyJcQPjmNlv42tYg9elGB4zcLQ5QD2lSaSptKVlVtGgTsLqjL8QyQZ2h8J5nTKGHBXThk9EVSYO2HPAf3wfGaMyLEQjRfQOlnB2lEH7WqI2NNdnwT10N0Gd+liTUk0ZkCHoN/7oFyfsWuzu4SJ2fAiF0N1B7W5CKXXfNjzXbgBt9LTA8YD3bjUFt1dae5ddEWWYTPTFrrY1A1NZO+RXJV4GMKIgPsZbYUsAeU8EoL7/TYuj0QYDi0c3HQxdiFG7pKP4byN+z8/g0c/fxjHzo0hV3T74G6kGDmmzIqXO1V3GOD7vXSC73yvA3C/l459X4FQw5/NhEUydsHKOEEUJbj51gb+9v94Hs988Vks+g3EpTKCT41jYSZBq+AjG8aosYPykg/vSkvAPRbtmbKMAXcydzJVumEqwlYzAu7GLUOPO+Uat9/a40mQGG2RBHdy4xhRJYPesQpWTxewNRYhLOgh08yD4ZBuNjQRnCUe2MgqJobAQFsK5d4F9OoqRiXyMoNejwyPHVR8DyPLQPH1LrIv9+D0KDJxG5lmxmcZzb0luTJ0zlB/TzP3LjbgYwOxsHcWVflsBe7TOKtlGQXu0aPDmD9n4/JojKEQONR0MX4dyL7TQaUd48wTU3j8vzsi98WKB1vqx6b9TH9HcO/fBuB+L53eu9/rANzvpaOfBnd+H7GomiBxEoS2Yu2c73z5p0v46z96Dn//lR9hI+whqVTR+fQwbk5F6GZ7yAQJaisWqpcC8Xwnza4UDQliZO5NLCESKyQFl7ww1RxqyAjAm+YlgjuZOzV55dSmGq3Yu0pQDNnSn7URTFewdaaE1QNAp+orhi7FTp0MKeCu9XilU6QCtPQP0hR2N53tSzJqKLaVMKfexWjbQ+1yCPflFtyrPrwkiwyy4stXLngD7h2EAu4BfHSkmEq3DDX3DtYljoBJkWxo4mKWQRXjOKaZOzX3EpJyHuGnhnD1nCOaez6xcLDtYWYxQe58B/mFACdPjuHJ/+EYHvyNWVRqHht6lXuTF2NUkbhG2XTRGIAfgPu9dHoPwP1ePtq3AndKNHYEZnCFiQXfT/DmD6/ja3/0LJ79xs/QZATw0DDqv1bBzQkfvtOF58eortioXgqRvdwGmr0+uJO5N7GYAnfq6zUBdzbdK+ZOwFc32h/J71mipGTB/6SgKsw9RGgBYTWP1vESlk+6qE9wkIe2LlJ3l05VDe5ag35Xrsy7PvW7fmAslUxxZGZY5KLa9TDFqIE3fFivtGBvRcjINhtPvjJCbhdU2cBkwJ1NTLxtoo01sYaGWNdFVRdZ1DCO45jBWVQwCwtFJOUcwseGMPeAg+tjkeyPAxyztwIUCe6XfBydHMVT//ooHv0XBzA0noHjbc9fogAmI8ktC84A3O/ls7z/3gfM/V76GPTBXUdChtoOaUWI3BiRZaPXA37yzXfw9f/0HP7xB2+hS5Y6NoKNz+axMNKBb3fg9hLp1hy+FCJ3uQOrQeZOOWJdZJltcFet9hkMo4gRZFFBVrJlFLCr2F/VcUrmvl1OVX516u7s/ww8B72pPNbO5rF+1EFQDFUvkwSJ6WYmibvVkbdmApHpUn0/4bkP7rwisOB2XUw0PUzNA/nXusClDuwe0+hzcmWh+kFZp6DmzsAwFlZ5nwZ3svZNtLCKFpbgY1WDO5Psa5jAyRS4F5CUswgeG8K1B11cHY0Q2wn2+Q72b1ionPdReN3HwUwNT/73R/HEHx5EbTYDN2tkKBuRZUkfrGXrKoZIMwPmfi+d3gPmfi8f7TS4k+YR3DlP1YkQOhEiy0G3E+OHX3kDX/s/n8NrP7mC0MvDnh3H0hM2FqvMK+/A8y1U1h3ULoSSs2I1FHMnuCtZZlFa7ym2MG4gi1EUMIwcqn1wVwCvBnYoK6QyQ5LDE+TVRFeyY0JmgqDkoXW2hNX7cmhUQ4Q5FlBNs9KuZiaDaruTIW957LWuYfqfIgfFloOpVRfj52Nk32gjWfHhRUprp5NHKd1SEZD/1ERa9T0Lqx1dTG1jHU2soIUF9HTeDt8XwX0SpzCD+yRADMgLuJO5X33Iwdwoj0eC8cjGgS0bIxdDFF8KsK9VweO/fRhP/rtDGD+WgZfXSQxQ4M4UG0oy3C0qINN43+/lD/29+94HzP1eOvY7wJ355NRsY8RehJDSDGy0mwm+/19fwde/8BzefmMeKJZhHx/D1fsjrA61RIbIBDaqBPd3QmQvtAEB9/YtwJ3qdBk5jCGPEeRRQ1acM2TAuRS4s4FJj/nT6SsGlkIdphtlHfj0vD9QxOp4jFYxQsIiqmrP1M1H+g3uDg/7IMxdbJTK1z605WJm3sbIqwG88x1YrVj0drpk1FYqYFfRa9p5JFca7FPdCe6MQW7gJrri/acdkuA+LB73fbhPyzI5xOWMYu4PuZgbCxG4CYZiG/ubFiYvJxj6xwiTywU88rkDeOp/Ooips3nkKpYkMnC7WaoN2NSkw99sU1S9lz7fg/e6Yw8MwP1e+kCkNXdewxPcKS94IUI7RpjYqK+G+PYXXsIzf/YPuDK3DKdaBc6O4Z1jHWwMtRDbPrIBUwtd1M4rcE/qpqC6hhVc1gXVtrBwFlPzGEcBo8hjeAe4s4GJ1kcyd1X2pHLMrktCoOq7lCh1cmI3QbSvgO6DFczPAptDAWIO8pAMMR1pKS9i/N677m93nGVh0B5324HluxhZczHzDlB7uQPvmq/tj7zK4BWF4eu8nlCTlba3laG/lKcawt7J3LdwE1u4jg44oYrgzhLzMCYF3O/X4J5HXHbhP1bB1YcdzI1FCLwExdjGTMfC/isWRl5MMHYji/ufmMJT//4A9j9SRmHYUcqUMHcF7lzoOHZ2AO730ol96/c6APd76TOQ8rlL9S0wzD1GZMcIAhvLcz186z+9iG996R8wv1JHZnQU0UPDeGu2ifpQG4kTINuzUVtxUT0fIHuxDQi4G82d4M6CKsGd8F1DERPIC7jTMUM7JEPEyN4JmCoRUgUJqIHUJsTW5LwTQkMrQlzJIHhoCPMnHayOBQgKkUKyWA3BeJef/QMBvWb+0vlqw+55mFhyMfOTGOVX28isR8hph4ySYwjujDfjNYX6u6bDlgulL//xKoa57gT3eWziChq4jkgau+j8H8F0H9z3SzwDwb33WBlXHnZwfSKE7wGZ2MZUx8bhqzYmXrAwfMXByYeG8el/ux9HnhpBecxTQZmUsCjL6DGDA3C/l07q27/XAbjfQ58D42uXJiYRtHVHJiUZC/DbwNXXm3jm//oRvvPMj7Gy2YY3PYbe48N4e6yBbqkrE5ayXRvVJRu1t31kL9EtQ3D3RZZZFuZOzb0tlkHKMRVMIS/SjHLLENQNa1eZMgqVlDSj/q9SDtX30tBElpx1YJ+qYvGch/lpH82hCAkt5+JPV/JE/yvtZ39P7V1LO+Jzt+C0spi5nsW+H0covNVGloOwkdOZiwraqawbSUZtKasEyr7J4DN63Zkvw1z3OhawjsvYkiEm63JlwgVvGmcwi3N9WSYqO+h+qozLj9i4MRUiyDCr3UatY+PgNQsHXrQw8raFI6fL+PS/2Y8z/2QCQ9NZDe6MYYY4i7jHPMsaMPd76Ly+7UVp0j/jB3vjbt8D5lDLvUQQmPFDMeIQ6GwkeOW5RfzNn/4IP3ruTWwQyE4Mo35fCYtDPYRZXxwpuY6NkZtA7a0u3CtNoK0SEXvYxLIUVBekJZ+6egkTqGKfgLzKbydrp92RlkJKMkp+IXvfToc0QL8dkyDmR8eGM1zC1qN5zJ0MsDLaQ8wh2hyLJw81Bvc0izeWkV3WEZMkKU4Z5bKxQwfFrRwOvFHAxEsRcld7yPrcSllBtNYuIlFfkknnMUrrgI4BZm0iQAsNLGMdV+TWkiuankhTbGDaL+CumDvBPXi8jMuPWrg26cPPcINsZAMbkzctHPpxgumXIxycyOMzf3AQ5/75PgwfysOiHdJWzJ1XOGqcrD0A97v9ZP4A72/A3D/ATrpbHrIN7io0TMkgMSxmuncsbF4P8aO/uYRnvvQiXn3jKraGHPz/7L1pc1zXlS247pBzIjGTAAiCE0iKogZqoEZLlmQNrsmOetWvO7qjo/tDf+pf1BHVr+tVVFS9qnqvyna55JJlSZY1j5TEeZ5JECAxA5l5M+/Usc8+O8/JBGnJNkUJVgKCSCJv3unkXWeftddee/WBXlzfmkOzSMZdvH2h5mH4cor+Y9SsYwVp0FRpTyq3JykkJRFV4hVFFbWTIoQoGe66pKBH0TEE5uz3zla4FOdLgRDz71wtKq7lirDxC6juz+PcAwmmxxqIyW+GGlpz7T33WG1Z/HaAvYrgxUNGR+yqOpXB3Wv4GJgtYusHBQx9kSA7HyGXsPKeuy0pgwatjjGJVD5HZuBZPaMEnOqHtO4LuIQ5nFf9ZekeUWUu0TISuZMlctzjIiJwf9TBBQXuqiIJbuyhd9bBlkMJtn0SUlM+PPWX27H/P2/F8J4i3LyD1ONMBZ2DAXdyjeyqZf5Ynt3f5zq64P773LV1+h6BI/JxZ3DnyN1NUoTLKa4dq+HN/3YUr71yAGen51DdXMDCvjKmN3hIcxFXgZJwr+pi44UU/Ufq8K6swgnJppfEkGQcdlEnVJvKHKyCEVSwSWnciY4RCkbAndUnxC5QPE/ad9KR07eAO8EWuUUK1GewvDeLC/tdzGyPEJcbumGH9mBvUTMSvWspjYXzLYCXylT6M03hN3IYnC5g29s++g+nyK9QmxE6L+70zX1SjUKmlZ/WTQIZ/oWL5xYoRE+RHJIAnn5WMatWLSPYpRQzZYwp58yo7CB8pIyLj7m4MBaiQRp2KkZKXJQXXUwcByY/DDC2kOLxF7bh8f9jEmMPlOEV6eaRXTMnkKlDE52voou64L5On9Tbc9pdcL8993Fd7MUGd9Z5MDXjJAnqcxHOfDyHX/3NF3j3naO4Fgdo7OrFwp4CpnoTpBnd6s5xUFx1sPFcioFDdbhTVThxqlhn8lRZwBVUMaeiV7L2LWEDShhWQM/8On9xIpWlhRybU8xOXDxtY8Cd/87gznGzg5VxF1ceyWPmnhRhH4E7Tzr8ZfvJ2JG7bUvAsbaxKeD6/WyQw/DlLDa/k6L/eIp8jWCYIndWyXBEztWxcvf47zRNMhuvO9O2FD/0ShPLqnn4Eq5gBTfUiQxgAkPYrugqcoePykDz4RIuPu7hwmZKqPJqwkk9lFZ8bDnnYueHdQxdDfHQo5vx5P+5E1se60O2V/EwcDxdqUsWOwrYu+C+Lh7Kr/Eku+D+Nd7cb9uuO8FdRe5pCidJsXwtwOe/voBX/vZTfHbgAhZ7PET3DmJhWxZTpVCpZFT37NRBqepg45kU/QcD+Nfq6v0EykRCELCTIyJFuUTDEB1DxUskAOSonWGR6RcCd/4ds+5E1RC462bPirShV5i+Iegk38XVcorZ/UXM7PewspFa8OnKVNsDUapUW9aIurKnNSg67qbtFG3vomc5i42nPWx4P0TlQopCk9h29rphn0qJyjlbwXtgcGezBC5k0q2+WyZolIANlTRyTlWt0n2nil3KR1CCmSatsAw0Hiri/OMeLk0QuJMPggb3WhYTV1zs/LyB/vMB7t41jCf/152YfGoY5WGfGlfB1W33aDw9x4Orwf3b9hnsns+duwNdcL9z9/obP1IL3Kkqlb7FATECZi+t4O1/O4z/+MePcfz4dQQjPYgeGMb8uI/rhQbz2gQgCVBedbHxNDBwKIB3LYCXsO0XiwTJIZEbR7MDInVeoqidgNzEvALuAvisbCcY5R5HonlnYKX3+ipuJh1KzQ9Rvb+Aa0/kcWNzhLQQs1bdBncpZFLBvJVUbYvuCYfZtz0Tehic9TF6MEHlkwaKNxwUk7xKprI5gmh2GNaZdBGAZ7adwJ3vLJWD0ZWwDw1vRxYFVSURpW25QresKBl6V1gCgn1FnHsSuDQRo0ltBdWixkMxyGLzdR+7TzRROVPDtqEiHvnxTux9ZhRD43lki2QWZs6GgL0L7t/44/aNn0AX3L/xIbhzJ9AJ7jFx78RONB1cPTWPV/7hY7zy0w9x4eoqom2DCB4cwtwGF9U8tbhLOMiOHfSseBihIp/DDO5uwl6HzJ+zmRbBPNsPsIcMVxuxlp1ZcFbMsEac6RQjgOT0oLEj4B6rFBOrPkdegGBnHtOPFzA1mSDuidnuV75arpCijrTAXSSTSllD4O7CDT2U6h5GplwMHWiicLiBwhKZFRdAPpA0wbDbPUM3R+qd4E6vMm3D1A0TTXyNTOsQwFPlGG3HhVtkd+zxpJAH6nuLOPd94OL2CE0q0KJJiRwqGxmML2Swm3zlT69g2AUeem4bHvzBBMZ39aLU66l5lweTePcuuN+5p+rbe6QuuH97x+a2n5kN7opIIHAna/e6g/OHb+Bnf/02Xvvlx5iqR2ju2YjVe/qw2J8gzhN4akolAipLPkZPO+g7XIc7XYeXEJlCyVKmVAjYiYqgY5CenV5j4Oe2IByZs1qGI3jTAZRBnrdhBTlBK/Pz9FtqP111awjHfMztL+Dqfa7ymlFOkS1XSItfl+pVBZT6hxCQInZS1lDU3vAxuJzB+EWg50ANmTMN5GtEKnHkLlel1fb6WuzhEd7dngB4AiMhpeQa2LdRCqD03KJyCQli30FjsoBzL6Q4vytCs6CbdScOck0PIytZ7LyaoHR6BT1LAfY9Oo5HX6TGHUPoHcjCV0lhNg4jcOdkatc57LY/ROtoh11wX0eD9YeequHc2Q1SscMxEK4kOPXpFH7y/7yJN9/6HDM5B6v3jmJlVwUBRcVZ6hKtHRhDoLKYwehJKLWMc51oGYIvbnTN0MxyQC7NJwDn3qjS74l17ZSo5ASq8nRpUSqs4OHoXmyAKfol3t3hpnZOHY1igpUH85h5IovpoRhxgc5RkqS6+UbL7ZHuHJ0/WQQT4FHUTB7HJGdxUQqy2DSXxeihCLnPVpC5kSAfUczOnDunfI1ShlcgZnkgqiNR5XMEz0liOm+Rf/J1cVpYrAuY0Em5wnSsiHM/Bs7e3USD9PtELaUOMqGLDatZbJsFes6sonB1GXftHsYTL+3AfY+PYXBDDhmP7xfRMep9XXD/Qx+Xdf/+Lriv+yH86hfQBu4qck8RRynqCyEOv38RP/nr3+D9D45htj+HpQdGsLSjhFT1LSUUVHXuQNNFZS6D0RNA/9EAzmxdycSNlQDb4RoVOHs8tunqFR9N4C5RrTKIaSUnGQQp6uetKLqXyD1UpE+AwAnRvC+Hue8XcXksxmop4v6qtBsCeTop8YxRaGyBu0uVP76yX3CbVAWaw/ZrOQx+0oB3cAXZVer8SkZhFLXzioUnK5q0bO5H/m6KrTi1KqoZsSbgzIFxy+EVjJSRqepbMv/aUML5v3Jwcm8DDcojqFviwItd9DV8TMyTBUENudNL2D7ag++9tB0PPzOBkU1FZHxKiXAilQN2LQUV8dBX/5h0t/wjuQNdcP8jGcivchnCSisnSA23YTPF0o0aPn79FH72X9/FF59fwtymMhYfGsLKliygkqkE7tTSjjwKXFRuZDB2nMC9AWde1DKiCBegtiSJLXDXunoN7gzaBJ/yHpNwJSA04M4WBQoAQeZcCt4RT+aw8mQJVydTTPc1lbtlK3qnHAH5uxPAC89OLfnoh8Cd6vWbLrzIw/ByDjsvZDHwUQD31Cr8BpEpDO5cYiXlSXR0+rJJfX5drpZhm6YC1sOLhYLkE3gNw7E/Wyvw9op7Hy7iwl85OH5PA0E+kvlOad0LsYvRZRcjF0MUDy9hvOTjiee34smXtmHz9gpyWY7aFbiLjUPX0P2rPBZ/tNt0wf2PdmjXXpgN7irWTFM0GhFmp1bx1r8dwsv/8BFOnpjHjck+LOzvQzAOINsAHAJ3rUkPPFRmfIwddZT9gLMQtKSQQj9wspABkEGPgJmnE/4tmw1Iew5WyJjoXbZh2KfInX/DcshU8e4NUuQM+2jsL+PqQy7OD4eIc5T4laidDkvRr75qVbmqe66mGUXHIHTgNzPYMJfDrkMu+j4N4E8H8GNKg0o/Vzp/VsFwRE5XYVXBalEkl2Lxlzi9M2ibSJ8TxAzzcn+kspX2GSpwB47fq8FdTwAUvfuJg4Gqi81XU1Q+WcaGKMZjT0/gmR9PYseePhRIMaOlkxy0dyP379CjfdNL7YL7d/AToCpUlb1MikY9wrXzC3j1Hz/Fq//6OS5MNzBzdz8WHiohGiXXxQaQErhnOXJv+Khc8zF2GBg43gCWArgpN8pjkCbo4kjb8OgMZ7bfI4OcAXhp2MFRp+yNq0ONOp6Ak5pSNFXknuQdhPcUMfVsBqfGI+bdiZqhaF3RMlbkrpKp1HSUAD6jonYB941Xfez8COj/rIlMNVS+7fTNzbrZMebLwF1EkQbcjXRSIF6uVq6P8xNM+tAdDIazOP9XLk62wF2vEsinPQXKDR+brrkY/ngVg9MBHn54FM/9Tzux5+FB9PTa4N7q1tGmDv0OftS/05fcBfd1OPyW6K/j7EWgZ/26bWOOo9l+AIjjFPXVJi4dm8Uv/uYjvPnLY7iWupi5rxfz9+QQDTcBn8CdvFsyitJw6j4qVzIYPZxi4GQAd5leF3CX2JQ5ZjEFM/GqeD0K/ywAzzG6UBgM6Rzb816kBpR1NuS7SMQM2QCHO/OYerGAE9tJEkn5AaJmKETW4C6t95Q6hsCdKBmfwZ1omUYGGy442PlBjMEjEfJ1aqfHwM5rBmbRmXUXXxkmV/TdbKtXZcKF30GRPglDOeHKNBNPgbRnXqnIldH+asMezv8nDyfvC9EgWkbifs4uIxv6GJ3NYPyzBgaPreLeySE8+z/vwP3PDKF/mHMb6p5T1K6Tqrb0fx1+1Lun/AfcgS64/wE375t4662BnWFlTf7sVuBO7UKjBMtzAU5/Po1X/t9P8OE75zHbl8e1fWXM7gKiASrtJ/AmvaSAewaVyxmMHUrQfyqAs9KEm7LsTugGKUhicDeWuGyNyyCkY1IdpRPUMTUjFrpCx/C2oimhdzHvTq7pFME3t2Qw/WwRx+9J0ewTcKcmHhbnrmY0uj0C7hmgQeCegV/1sOF0jB3vNTF8Fig2CNaZkjGpYAZorj8VWkZgXIwIzI3mzII03jMdm/gquQE4V+Jyn1iO8VPUhl1c+EsPJ+8XcOdj6NuITOxjZD6HiaMJBg+uYteGAp7+yy146KURDI+R5JS8aNhNklsQdqWQ38Qz+m05Zhfcvy0j8RXOw07FdYK8RJG8G+GZWW3BNipGS6644BQImzHmrlVx+P1LePXvPsORL2axvLmCq/dmMbMlRNRL/u3UrinW4O7DqWfQe9HH6BcJ+k4H8KqRAnfbf53/xaBuuqIysLP0UQgb6bpkwN1UqYr9FW0t0kEWVxJwkmqGwL2xwcWNRws48biD6nCIJEuafIredeROF9/CXy4cQpwBAh9oZJGf9zFyqIlt7wUYuO6hFBHbThJNjrPFMExUMNJORO4zR+Wie5FDMd0i3Ltsw6p9kybmUi2B9gSrQ8DFv8zgxP0hgkLICWGez9RqxI99bFgsYNs5H0NHqtiST/HEn4zi0T8dx9h4UU1HZAWhZKvKa6YL7l/hsfqj3aQL7utoaAXQja9J+8kLg8vJPQ1quljH0dE1Qz+DezOIcOXcIj564zTe+MlhnL/WwNLOPkzt9DC3oY6oqJOpqvLRUwoTomV6z3nK77z/bBN+kBgXwlYS1YC7AL1JnjKfbrQ0hmHnbejb0DS8HZMcgnTGsDhCM59i8e4czvzQxbWJEKGSbpIdgdwlcYvUMkmlHc8C9SzclTz6C00avwAAIABJREFUyCjswwZGP2qgLyAHHNa38znaqwZOj/KPgXYmYcQXX6ZVae5t0qU8LTENJaVZ8l6RidaGgMt/kcWRh0LUye2SVEo0OSuaheYrHwPLBWy9msPGUzWMRA088vQwnvrTLdi6pYIc+cnQqZEHEEXvXXBfR0/37T/VLrjf/nv6te3RBvcWwOtfSuTOsEJARuDuwKEWS4nRaIjYkDaprTRx6tA03vz3I3jnzTO46riY39OHGxMOVisBkqzqw8c/ylfGgVej9noOhj8O0XshQlZZD0jaU8gZOR7rvO0UKYO3sMMS7wvAy6sMgGYKsG26dFMKvUKJ3RRLEw7OveTi3L0xgj4yEos4qarCZ118RQ09yNmSmmqT8qeWh3+jjNHjOex4L8TA0QDlhJT3xgeyNRGusfllFb/hy81EInog8Y4Uxb8QUTaBJaSMaGfqAymu/WkOnz/SRLWvDvi0aqLz9xTB78Y+yrU8xmdzGDsfYGilhgf39eOZH27FnskBlFxf9VRVi6MuLfO1PYfrZcddcF8vI2XIllacqHDd4mfEA12VubM8RbkdGnDnjRVeJ8DyXA0H3qHmHJ/j80PTmN1YxPW9vVgcSdEsNgEvUu9VOyLAiIFc1Uf/cQeDHzdQukS2vsROk6rEpmIYrAXIpAKVoV8MwoR9F8LIxPgSwRvFDUOpHTHLuyieXh6MMPWYhzNPO1gYbSDJ07lTUoF0+bzigEcn3wRILul6QLWM0uUKtn6Yw/b3QvRMN5FPJY1q2vVJrM53zmQ0pFBLLAkY7kWyKfSMKeUyyiEhpZjFV376+k41+oHpl3L49LEGVofqWqlE46dlorGLbCOHkeUcxi+HGJpbxd5tRTz3g2146J4R9GUyyn5AqVbVW7q0zDp6vG/7qXbB/bbf0q9vhyZy1yxuR7LUgLtE7ja4CzBpgI+BG1PLePuVw/jZ332Cs9N1LO8awMxdJSwPx4jyRMlQ9EuVqeQZnirfdgL3weMp+j9uong5RF5BO9EYJhlqGHgTyRvWX5hnI4Y0ang7pmf1jEwIAqYCl5JBIBebeiHEwl0ZXPzTDC5ur6NZCtgGWBUqUSWqqs0Hsk2gECjQc+sVDJ/rxeSvfYy9H6JQi7UZghyXI3O71takgddG7qw/ahFirchePg0myyDThBQvkYMkX2WzL8X153P46IkQq8M1XmmoL11dG7O6Z5AsgGdiDM2sYrLfwzNPTeCpx7ZiKJ+H2wbu7UaZX98ns7vnb+Md6IL7t3FUbnFOLfsAneajCJy/RETIKTpDy1BOTtMy4oJIrDH9KgKmzs3j1f/xGf7t7z/GdOqifu8GTO/IYam/iVj1S6Vonb1fiOYgZiNf9TB4jMA9QOFKpMCdOWrSahg6hc9IAN9E50zU8O/N/+X82+kaE/0zrArUytb0G+VBmQlRH8/g+gsFHL83wPJAFQlJCYnOCEjTnuFrIZop11B78us92Hqygl2vA30HIpDxJREyIig0R7MHw8Tf9mRjqkx5LCQn0DmMJo6nV6TESSJ3oNGX4MZzeXz0RISV4YBXGppeU2MQ+8rBshz4mJhLsHG6igknxlP7x/HCc7sw2luER3SMts5ZU0i7jj7r3VP9w+9AF9z/8Ht4x/ZgwF33UaJGG1a1o6mSFA6YGnGw+ZTaTgWX5OOeImwAFw7dwMt/9wl+8a8HsLyhhNV9GzAz4WCl0mRqg96jwJ1a/aRwIgf5FQ9Dx2L0fVJH8QpFu6Qtod6oRhnDR+MI2Navt7PtQsuI6wrramSqMmlXXgcIx81xrCmQIsVM6IYI+30sP1rE6e81cXVsFfUynb+rFDFokh2xqzn3UK1A8itF7P6igMnfpCidTpGLyAyBFTo8kdz8y6x/9AqozQiYtTU8vdrVqbIvex0gr0sX2RRBJcHs93P45HsJlkaavNKgGVUlgcnojCkmP3KxeTHFpqk6xldCPLl3FD/8k7uweaSITMZVuW9FzwiZf8c+od0DfZvuQBfcv02j8SXnIuAupfwSuZtiIaNzNxI9U4HPu0+QJEB1KcbR967h3//Lx3jrjeOo7uzF/EODmBtPEPQESKlZBH2RbJDAXfm+A8WlDIaPxuj7tIrcFEXuZIubb3N3NBSNQLQYCDAoiyaGI3ghXoRo6ZRVmmjZju+lAIjLhCLEOQfB7jwuv5ji1M4qFvprSIl3j4iWybHGnYDSi5RZ2IbpLHa+7WP8/RTFRQ+5lKCdXS0N6bJ2QOw6AoFqo4lhcJfInX3d+ctMFi1dpmXHwJNBUImw+GQeXzyVYnY0QkwrDZKi0rxJ508TLU3oMTC6CkxcC7FpOsTDYxvx4ou7sWN3CcWSC58utQvu6+jJ/npOtQvuX899/Zr2yhDBJS92AaPtdSIvSPxo9xfl1+IYmJ8J8MmrF/Dy/3cAX3wxheDefsw81IP50RCR4qw1uFPxkpNVyVSn4aC0mMXGoxF6DxC4h8ihoMGdrHFtlQzr3E1Bk4HxW6dU2+mbdli3k7QCmOzTqL69FM3NPhaezeL4vVVc3biCRoEiX+KgyDqBKlMdZfObqfvYctrDjtdjDB0EyjELIHn1wfeo3RWmHaB1rloTRYbAEYWMDfB2rG72YqYFKTyjMQ16Iqw8lsPJp11cHUsQEIVEFcJqeH2O3CkTnsYYDFxsvg5sPhfhPm8Q3//eDux9rIKBERfZHHm635xvV54z3a/vxB3ogvu6GuZbg7utxrDTfS2NiXqm+f1RlGL6UhVv/fQUXvn7gzg/vYr6vn5c25vHwoYAcb7OShlVAEXgnlPA6AQuygtZjByJ0PvZKrLXBNwLuuJSdB/CtQuMC2UjhA2XM4n5gA3pJn/AnIIkMe0JgaGR42PRnSdugmjARePBEk48WsPp7YtYrVQBWoG42k8myMCpZTE0n8e2z4DRtwP0XnBQQlFTS0L/dE6IZjLp/LjYUTtPvEa9Lt6b9nvM2OjciB4TmqaCUoTawzmcf9bHhU0JVsiRMxOw8oci94jGg64nQjbysXnew44jCe5aKOHRfeN46MVBbJrModjjaOOwtR/uLrivqwf+DzrZLrj/QbfvTr9ZeN7OyF2AkP/k3qisxlBSPVrHqyp2DufCJnDx9CJ+9c9H8NpPjmMmBRbv78HMdhe1AdK3k+0AvYf2R2t8ogTIVyaDyo0cRo400fvFKrIzEbIqcidwt9UyBtwJwEUHL4SLEUkagzAjkRR6xlAZBIid5I2tZKGrJd+XKA+EE3mceyrCyftXMb9xGSgHQFbnDmpFeIslbDtXwMTrTQwcDFCuey1wZ0pGrW2sgTV0kUwo7aMuBBifpVkv2WlVQ6gZ/Y1disZWBc18iPqeHKZezODU1gSLpQaQDdgMjVRLpP4hE3ovgZv4GJ33MHkkxbaLPu7dOoDHfzSGnff3oNLvcWJVqyH5T/l3N3K/00/tN3W8Lrh/U3f+9zquMLcafNqyfrIOd5SVL0eU2tfEiRXgu9rPvF5LceLgDF7+p4N4++3zWBou4vruPOZHYzR7KJFHXC/3AW0ZmyQc9fZey2HsUAOVw6vIzibIgcreqcWe2HyJYkY6oLJRlnGANIJCAXQugZLSfObhZRqzo9/2CJ9vIEfu3KoudGI0iy5mHnBw7nshru1ZRX1wlTtJRT681R70Xqtg20ceRt4KUL4aqfbdRTVB0TWYVoBGcil5A2NbbFQvspKSJCpPSOIXY1KuEvmbHqwc4xvlPo1VwwvR3JTHzI8yOL4rxVxvHchT5E5UjMuRO1kS+DHc2MXAYgbbTznYfDzGtkIWT/75GB58ZgQbRgrwfYremZXqgvvv9bCt+zd1wX1dDaFGc1qar/mywF3Hn8aSKgJZjqSRhzR0sTzbxIEPLuLnP/0CH5+ZQXXnIG5s9rHcHyIhnpo04vQldTlKaePDq+YweDmHkUMheo6uwl8QcJdG15IuJaDn5KSJzdksSwGNJlykHrUd2kUJI0DL05SGKP1+3kaYa2lepzq3OjGqWzzMPOHgyv4Grm9aQSMXwIk9lBYqmDjdg9HXYlSONVCsO4qQIWhne19DywiAG2UOU0Rap7SGb5c0qaFlTOQuSh9TENUik/T1cO6A3HLCvixu/FUWh/YmmB2oA0WJ3DW406TrJcpiv7SaxZaLHsYPB9i4GOCRpzfiB3+1ExPbe5HNUR/VLrivq8f7Np9sF9xv8w39WnfXErZ3usuI5s3owTmqFU9xpljipoOo6mDm4greeeMEfvHGYRyu1bFyz0YsbnDQKIdIqeRdFaVKyEfWA7QzF5mVHDacz2Pk8wjFU1X4K6lKpnK7PInU2SBMInlj39vpCGksB1gRb755AhDwtlltk1SV+2wid+5ySj1Wo14PtT0+buxPcG1XDUuVAF7oYeB6GROfZ9HzTgO56VjpfLjfkri9yKrBcO6yWjB1pWLgIASLET0KLcNgzloZI3iUNQj7RcqaQ8gn2p6sjKNyBnM/yuCLfTGub6wDRM0QLUPJYPpRfWETFcX79QzGr2cwfnQVg2cWcf/2Pvzo/3oAu/YNIV9wVSFuN3L/Wp/Ib/XOu+D+rR6ejpMTcFeceltozfGwwmOR8rGqhr8jxdHGDQf1hRhnPpvB6788iNcOncHp/iyW7h5EvQ9IqG8ncbqqyomQgYCdIkVyhXSRXc5j5FQeI59GKJ6rww9SRckQuDP4SdrTpmHYu1yczIXBlohepiXpqipad3PlRlrI27IiR74IYsVWjJ0YY5DfTNLno7HXx9L9qbIn8MMUvVd8lD+L4Z5tIFN3lYyTy5Yos8DpXXu/JqUrSh+e8KRoSVQ1tiJGVOsSt5vcgNBktv2YqOKFRIsQFV0s/DCDAw9HmBkPANLr0xhQvQINjyTGaXyaPoYXfUycrmLw8znc7Rbxl//3w7j36Y0o9bnwNDWjPhVdzn09Pem35Vy74H5bbuMd2kkL3Bli2r86wZ1jxyilxX6MTJpV4L54uYpPXzuDX71yEB/Oz+LSXb1Y2FpCVE6AHIF6DIS63F055JKFbqQMyLKLeYweyWPk4xjFSwG8mMGdvcmN9NFw7NJ0gyFUCpoYnkUxwxMS/VuoEREX8vWJLa70cWKiRCYxIW24pTZvSxFw6iTw+nPwxnNI+1zEYYR0LkR8JUBaj5BNufiKE8FSS8uThuHUxU3GyDgNjy4Ja5MiNd4y7Xol2ic36BNHeDtylyPSVBwhKgCLz/n49LEY01saADUgoUidxl6xcZprUeoZHz2rwPiVBrZ8uoJd01n88H+/Bw/+xQj6NvrwSRLZwblzDNBNqt6hJ/YbPUwX3L/R2/87HlyDO4thOhpziLMtAZzqGyrgzmU+fsLgPnVyDm//82G88fpRHM01cW3/IGbHfKQFStQRCjkM7onP/1ZNp7mqM7eQx/jBPDZ8GKMw1VAKPfaVaTcO4zidgN10QeW/G1pFSBhJr4rLuaFjePIylakMq6bile+dsNcM7Ly3CA3FYHuuBz+Tget5KqEcRaH6IftjAnYmZFi1zqlj40O5dmR4+hK4t6WYJnKXc7AVNJJslUZ9oSXglIw4X2VEpFIhweITPg58L8a1yQbSsm4dSEkTNe7a3J1WGbGDTJBi01yMuz9vYvexDB7/4QQe/V9GMDxRQLZAvLtOnAieK7TXd0odXu6Avtut7cxrcs2/46e1u/k3fAe64P4ND8DvdPg2cF8L8IomdxjcBXzilMCdONoMoiDB2QPT+NV/+QTvfnAGFyeymHlsEDc2pgA1uSCb3NgDQuq65LO+WoF7BCdKUJjPY+KLPIY/ipGfbsKjxs2qRQT7zxi3GOk0ZHceEjWNidrZx4UhU2gZghrJFUhGV2LjdkMyO6Fq7iITHdL9iH1baGLh6JkT0STNlFZ3TPEwyBrR481HpZMOstUwpu7USDgl+coxu1pHtRRMMm3ZZ05WClEuxsr9Hg49l+Dy3QHCSqTVMtrlkmwICNgVdZaoatWxZWDfUQeTB33cu68X3/vfxrFpZwmFIlkA6wlEO0S2UikE8Gr+NBOW1svyKUnE3/Uw+J0e0W/Txl1w/zaNxpecC0kcVbSqqhS1d2/i6DZ3uubITZG6RqmhgCVJEYcu6rUYB9+5hF/+9Sc4cHwK03eVcf3hChYGI5YLquU/GVTpPqMECLqjkROmKM3nsPWzDAY/CZXG3VcWuTkVudvVqaadHPci5Uie6Q9RyMg2jCJ2g23TV9QQJAydYj8gIC+3q1NRLqSI/F78JwV2xZ6Mji0WCDKRGJ5dipEM1klkL0lSOR9eJa31kzFTLIM7s+4E8JJqNS3DeUoKEXohghEXZ38EnNpfxzIpZpTOnTh3AnUN7OoDEKvOSxtqGdxzKYdtx4FtQy6e/fEEdt3dh0olC48maJ0fT3TTD0J1NRaqE6H2u1eLAsqxqLZdOoXzZdPdOnp4voOn2gX3dTToAu4CFKonR+LCo+pRinh1AjRxqXCJHmoXaeqoosZmmGJhqYH3fn0ar/63gzg2tYS5XX2Y3ZPHSr82qaLEqZo9NLirZsu0mxRuw0F5Losdn3no+7QB/3oCPyVigwqYiJYxDa4lCpeonjl5w1vbvUQlUqfD2oZgts7djqwlvpbqVoY47myqQMxKKTO4EpC118IK+HOAKu30GMwF+A2xZaJ6bmotOhgzUQmI07jYX+2ySK46YOsIIXJk38z1K3AnI7S8h6n/DBx5uorrwyumiCmiFZUeE9JC0k/soq+Rw475IrZcTLA5qeO5pzbjwfuGMTxEenceP5pGEtfhvh9OzM2dYgcuaef1PsmLJ/UJ3FNtBW9kqevoMemeqr4DXXBfRx8FAbAWmOlmHATutEynyCv1YhC4K95dq17S2EEjTHHlxjJefeUI3vzVKVysJljYUsHshI96hSohSXJHgEHLfwF3raUjIAgc9MwSuDvoOxDAu5Eik5IjS0FF56a5NadHue0FUzYMiqKnod/wt4A+gyLBj7DakhztlEGaRKAN7tIAzx5KAWe5Z7y9oYak0MiufDXn2F5pKvulc1ZznwZxSQrLJMIrBV6JSDRvXpMjtuto+Jh83RTVE7jHvoPp/+Tg0HNVXBtZ5s5SNCYheeQQuBNVRr45JJH0kG/kMbZawPbpBOMrVXxv1yAefWAMW7b0oFDwFDWjAn8Cd7JudlPVqMmAu05Q+wTu3I6QWZwuuK8jeFhzql1wX0ejZ8CdeqDqKNGK3BXXTpRMC9xZn47IRT1McPz8HH7675/io8+ncMPPY260B7NDCSJV5k7gTk2Z6T0eR++K36XIjrDERe+NPLYdSFD5PIA/myKbivWA0DImOjfgzoAqkTmDPTswMuiz/7nE3O1JS01D6ehbVB4Moczdc7RuixF5QI1exZA7drGUvMfeV6eKRNh7irbpNWpL0gnutE9TpMRQLcenSVjU7QLy/Lv285XjchlTU/mDzfyYwL2GqU3LTJlRDoSsi1VnLOLhtYom8eAGOQzW8tgz52DT7Cr2VjJ4/MFN2HvPMHoHskrvTreK3krUjIC7YtxCHbnTPVPgzrSMgLvJRKyjB6V7qhxMpbLW796Qb/0daAd3CRCJc6eB1BFji3Nn8Fc9VGMXK0GEjw9dw//4xcf44vISFnp7MTeYxxIVLlHXJfIOt8GdDMMIfFk8jkzDx9BMDhOfJCgeqsNfAHJpUdMyIoUUcCcIN1G70C0SszONY0sa+dYbTt3ArMCg0DomSjfpVbkvZh+2mNIWL0qTamNcZpK1vD+b3qH9MRgzXcXqGiGJaILhlLCBauGoObonAkbIGBvcpQeToZs6aBkvwY0/c3Hw2QBTE6vcGpAmXJXo5hhfgbvSv/uqIUlfNYe9yxmMXVvFeKOOh+8bwSNPbMbIpjJbEZBbsFrgOXCJZqPIncCdLk151hBlw+DOPbnljptr+tY/IN0TbLsDXXBfRx8IA+6khCTaxYAisSkO/U6tsGlpzWZhJJdLEw+zqw385v1z+Jc3vsCR1Sbmhvqw1OOhSU05qOMPVaaSEyQ95ypyV12WGREiIBdkMDqVxdhHEfLH6vAXXeUrQ7QMkTCifGEW29AurHkX5xj6PZf52/I6OxlrYl8j0ZPomvl5Bkzmx/n7t30JkWNHy5JgFfWLvX+J+Dn6Foadq4fY790czyRUGcxlEqP3SaGT8ZkRDVB7NC/H5omExJANhF6Eued9HPxBA1e3VIECrahcICR3y5uBu49KLYfd1Rw2T9UwcG0B9+zux9PPb8f2XYPIZh14NJxqEeZw72x1//Tkry6UVFY07ALuJgfS1cWvI5CwTrUL7uto3EQVTZ2UhApgey8GeqYqGALpR3l/Jw7i2MOVuVX87NXD+MWBszjmu5gfLqFRcJBStJ4hYNfLfKFlFLATyBO4OyjWc9h0ycfIB03kTgXwVz3kUEJGN+owDTpoSiAYJL8W5tXZFVLqVFk1I9SFUawIv2sGxKZhhB4gaCcHSPpTtPL2ELZH8RyRcrQt1aAyIUqcL9uYsxJg5z/N+4Szt9cZZhKQnIFMQPw+AXfaE68B+NxtukYmOgb3QClmFp/ycfD5CJcmBdyp/oDGhI5IPBlRM7rHbeCiEGSxNchjcipE//lF7BjP46mXtmHPfRtQKjnwqY2sy8oYnhJ12RcFBIk2atO8PNMy7cLTdfSYdE9V34EuuK+jj4KAOwftxoZKAK1Ff6Tt4B6GLk5dXsLf/eR9vHnxOs7057E0WEBKBmGkkFFLfC2FFHCnCkjVf9Vj062VHLac87Dh7SYyFwP4TVf5KZK3jPRPleMTkBOFQT/CvQukiN2vkR4KQWOSpe3gaagSdWotgEw1uOuQ1HJxkSG1aR4zHcpdNFsxb25+b0fk9sejnaiwpyh5N4s9eWyMKkZWDUYvI7y7MYBj1Q+De+SGWHnUx+EXEly4q4aoqP1+VOWwdoZ0Cdx10RmNRSODsSCPu2ZSDJ5fxaaKh0eeHsd9j2zA0HAGGZ8jdddhf041pdHnRK8AVbCgOHnd6tAx2qVu5L6OQKIbua/PwZKzVg6P+psLZDQdk2qYpeIWArskQRw7qNWBA8dm8F//9V18tFLF1bEyagNUgaq0lEy8CrirtTtFiDoDF7tw4gx6FnPYccLF4FsNeNca8FPPAndOqBoNO0fulICUCN4Ao2wlinJbWW7HzBxZ848BXuN0aczGeO1iIuz2acKsCCRipj1reLO0LXwMKamy9yHnbk8a7dAurzAwGj0Mn639O3H7MbkDSRqzF1ATdQXu9T0ZnP1hijP317FcbqhEOY+Lpt1ozKQuoenACTPoD7K4e9bD2JUQw26Me+7tx0NPbMSWLWUUMikocBf7Nlnh0eqOqlgVlURDr1s4mSm3C+3rFS26kfs6HDkCd4F3AvZIg7tjg3tKvVJTBM0U1+eb+M375/HfX/8cB/0Us+MFhH0Og7t6r+boVWZWc+4cxqm+nU7oo3c+j8kjQP87AbzZporI2cudIndjP8BUCcXsbCjG1IxUonI0KDw833oBbgOXAohG0y78t0TEDJhsaSCKGZt2YThmPpslfeaOGRAXCaJQXDydSALRBjX5ndG8y7nb8b5MRkaJYztBCugzrSQrEHviIuAPiZZxGmiMZDD1Fw5OPtHATLnGEkWVEVUhN0/IUlxLWvXIQ6HpY/tiFttnXAzUA+zYnMVjj49gz11DqOQd+E4Kz5VpmOk7ZuETpaTh1YO0RrRpmXX4kHRPuauWWY+fAW7GwfDeDu4EnETFEo+aIopTLC5HOH1+Sdn7vnn8Kk72ZbG0KYu0h7xkxDpYSxGlVJ2AXQEJVav6cAIf/bN5TB4C+t6vw1sIFXALuFMMbyJ3gnb6ZjNdoy0XjTmnX0X7LkoUw6kbaDQ6DVO1ylesEE43AGGEExhlgDaAL2ptGWczlYiyp5MOEpae33EriqZ9YpJVhnjq86sSnUty1ShmtEmYUuHIhMHgr8AdAZoVD9d/5OHEMw1c6a0hIRsIUUTRe5SOUb+dkDl24EcOhlZy2D2fxeBSHRPlFE/sH8GD941isMdDnnh3UsloJYwAuzoyzeXqnLvgvh4x4Wbn3I3c19VIallfC9wp0hJahsCYeGjmVmkCoKj98vQqPvjoEl5+4xBO1GNcHi2jusEDxJCqFXqu5aK5+48Pt57F8HQO2z5PUDlASplYATdx7pxQlQpVbqnHlAxF7mw9wIle8YU0vu3CTdv8u0TY9DuJnSXOFQiVicDWuUthFx+rPVLvpFUEtjW7rEG884MgRxfw71T4tG9vJgGzarATqu3ALuQMJ1dlEmFHywYnVUsOZv/Mx7Hnmrg0QOAemQMq3wCuPNUSGF6AxSkK9Sy2LOcxOt/AliTCY3cNq4Km8Q15lHIOPJdoGEOFqejdocid1znixiNrLTPBrqsHpXuyXZ37evsMaHCXsh9tFMhOIfRFxTb0eBLgO1gJEhw+dR0/e/kL/Prjc5gdHMDCeAWNAbC8TkWDtntwRxRLkWKYQaaWw9jVLDZ9GqJ0MEBmlZt0UOTuaxBnzbdoY6hyVbobiRek4eRFPUMHJ8dKjhl5AhA6xUTadC20VdRKoAqAc4zfrjwxpINEzu2JUkO2rIUtc/X8N/v/AsCdZI35BMnWDJyGa28XQzKss2pGEqz2tZKjpYrciwnmXsrg2HMRLgzXkVAdgtBmcqKyUFA8nY67Gz56anlMLMSYXGrioaEKHr9nFLsne9Hf58H3qEKVq5TclKkZ4vMJ3CVyNyTazafF9fbUfFfPtxu5r6uRt8E9VRbfioFpaa/JM4QY+ARh6mGuFuHdz87jb//pPRy4soLa5k1obioj6YmBPEkfyW5Alvbtkam6LQrcs8hVc9hyIYuh9wMUTtaRD0gGSdWpDO4UuYvNL0XrFLULuEsVqkTT4isjxT8E3NyZyKTwBLQlihd4FDmlQI5sZ4gcliOK+kWA38TgPC10QpatdZGoXsDc/njY77P32QnwnOC1mXczBQnXbhKpaWsSAAAgAElEQVSrxheHJzvyl6kjKIZY+EEWJ55NcG6kjpjqEYiKsRcSLcm9CtsBJ1Q0mtfIYeOiiz3TTexLfOzfMYQH7t+IsfECcnkHDrlK0LcCd9K1E8BLfyi+P16bFHJdPSTdk9V3oAvu6+qjYMBdETIK3KkhNhtayQNOAFKPXVyeb+CX75/G3/z0Q5yLc2iODyMdzAIFcoHU8kfx+1Zl7SZeVX9VGvcscqs5bDuZQf9rqyhcDVBIKG4vaXAnXp25dbYVIFhncCeYZ88Z8y0FRAzAlFzkyYi+RHxne8UI8Eqxj4CzbCuRvpT628PJ0bNxXhT+3faEFwju/BjcDLyFejExevtvbGJL3OiNDNJo3uVcJXo358CrlCZqqBUCLD+Tw7nngLNjddSoty3JVu1hUvOxnp1dGs9ma0IeWMph75UUe2cj3DtcwqP7x7BjTz+KFR9uRtsLJATw9JaEC5hUJz+e5H3i5tdMg+vqYfnOn2wX3NfVR0DAXXO1Ct21dFEF2mQY1kDsJFhuAMevLOPlt0/hX94+hSs9fQg3lIEe8m6nBhCkkyZtu96HJFHlfijMoKrIDPIreUwe9tHzyyUUZhsoII8CysiipMBcInfh2qUzqbH7ba/qFPUMNwBkWkaMvZRYp0W1iLlu+yBxbM4uNVyOw36KzLubL5kQ7IpYzgEwbN1a+94et6+lYtauBXRKunVwMRBj4ojhW0Ddjt5F2smrFH6liSqqhTqqT+Vw6RkPZybqWCo2lCkc8+yaMyJto+LelUkM4AX8Wuyhb7mIvZcy2HWpgd15H48+PIa9D29EZSgDjzpuafsBBe50ZEmoEmVDnvcqcpfsxrp6SLon243c1+NnwAb3iDmZ1FP2AvSwMrhTi2hgrhriwIkZ/Pvbp/D2uQVc7OtDs88HcgTsBASkbaciJtqH1rS3gF1MyahPZxbFpSL2HPJR+tUisvNNFNR3TyuZyiBu6BhRytBvOi0CTCpP9zvV0TVtR2CtFgyW+sXm1CX+77QcMJp/BnebPpFErpFFGmrGVAswtNpf7TG54KnNifBxjDd8u6iTO0MZkaVpsifpYYF4yRlIRStH7tVcFfX9eVx91sfpyTrmynWkNCG35kkCdhVe64ieOHntFJm4KC/nMTldwK7LEXYnDh7auwEPPjqCodE8Mnni3TXDk7gqYlcxgmbiKOGqvca0x8x6fFa659yN3NfVZ0DAnRo+REoRQ5RMCp9hRLXWSRAlwPR8gHc/v4hffHASX6zGuDxYQqNC2vYmG08prbQqWeQnmwzG1O901SrtUckgiyjPlrHvgIvc2/PwFmMVtdMPa9zZ5ZHrUfPqx5j6sujRGPkyIIpKRuSLkiAVQDVmWxzNCggbC1rRvUs5v6FeTF2l0eCIJZgZajutKnrCm38Qbs6tG7C36zgloJY0hkwZkvalVQrXpprVCUO9/U3p1BpqXg31iRymns/g9ON1zPZVkWZCrY6hsSJ0pqokbUWg/N25Nyv9l6lnsWGhiJ03gD2NGPs2V/DEw6PYMl5CqaiVNtprRtcz81SleHj+WLTMw9aqRdfVU/NdPdkuuK+rkWdw53ZtBO4ECh7SlMBdt9dLgUYzxfkry3j74zN4/cgFHPc8XO330axQlBfqiF8JnrUXrA7bpFqVmmLT8j/MILtawoaZCva+B7ifzsNdBfLoQR5lxbWL9JE49jzyiqaxbcIMuJsepXbMStdjLAkYRWxw54mhM3Lmfxuaw1gAc8s/hlXh623luvkdb2VPBvye9i9bNCjThQFxXiOYLKfsk38r+xLqhXswmXhe5JtGN0N/I3Cvo+bUUe/NYPo5H6dfaGBmwypSMnijPUcqXOfDUq2C8uHXyie1mktUxWqxWsDEsovd9RAPDGTx9D0bcc+WfvSXPbgeJ1HZ9JOauuhEqvpT32/Sw6ufdfWQdE9Wxq9r+bt+PgsCPQLu1G5PqdrJnle5+jmqpd7iagOHj0/jN5+cwYfX5nG6nMeNCvm2xwwGKnSUhbeuRFUt/Ii7JdpGwD2L0nIPtl2pYOuvU6TH5uEFrgL2jFLKELhzAlUaThsVO8fvzHEbCoOgw4A7AzBPMaYAqL0gyWa828fKFPebyN12bVxb/corAYF9Oa+10bnZwk4GC6izGkYmnM4Jgbs58bam6QcfV5SnfIUM9raVGDPuDQXuAYKyj5mnPAXuU2M1pMUGgzu125MuWTRWBO7KPM44hVJ9gt/IYajqYLIW4sGCi+9PDuGhySGM9uWQ8bihC9Mx0pfVjIK6Ag3u1vy6fh6W7pl2K1TX02dAYIRldBy5K6vfxAdZD6SOi0ac4NLMAt799Cx+c/ASTkQxzg+UsFKKkCg5HcerRLloop5lEoqsJlDXPjMUroU5VJbKmDxfwdjLIXB5CV7kaXCn9npcrEQMPIG7dFbitthi+8usuz6qAj7mn00MK2Ng2wSYcbmVnmWtDt0eSzsCt6eHtbG5gLT82TmZtMO7ALaAtawR7POVa6XrYUCX9nsM+lxVTCMoqnfj/c7gHqBO4F50cP1RD2eeC3F5Ww1pmTh1a2JWkbsN7mZNoTp+NDOo1F1srYW430nwxKYePLlnFJMby8h6CVxlO0FBgdV0216HdMF9PcHDmnPt0jLraPjawZ2kkAk8krOpNnsEJC6qYYzD567iP947infOXMeVUhFTgyWE5ZAbciiKWfzaWzXnnE1TqgtS0bB/OcI8+ud7cNeJMgZ/UgcWVnXalCJ3BneK2YsoKognOobOkcCcLQjsyJ0PTeDI8aqJ2tvF2+3kiDEW6Ex48sCxpPJmhIo9sBJJGx6+c9g5xjbb2XTLWvLFOFXa4G4DudTlylqBVwk8yQm4s77HLmqiNVlTVajWSeueTzB3v4Nz309xeU8Tjb4AinVSslVNqykFjc6hqDmElTAqug99FBouxuox7ooaeLgvi+fuGce9E0Po8Slpqt/HWVktq7Q4GFdfeZeWWUcoYU61C+7raNha4J5S1MeJRgrcPDKOSl1EKTBfD/H+0XP46QdH8f7MMmYHerHcR14yMXf0UehC7oJE5Qi46yV9yyGS+FsPCPIYnOvB3mMFVH6+CmeprpOmnExlfxmSRRYV394O7mz2y+lUGzTFtpeh0ChbDNUh1ykUilR7tsfY4uDI+75ZfG+ibFuoaFxwJM6Vj8BaDBO3STuqt8+4/cMjskf6LTcQZEgX6olRl4uFOHIXgo0JGiFldOyOwI+wuC3F1FMOLj8aY2EwQJKlaFuDO62uVGGTtg5W1Jr+0u0V/dBDfzPFtkYd+3IOXtwzjsd2jGAwR6OXthq8ENSrd4u8Up06c+7dr/V5B7rgvo7GzYA7gwJxrEShk1ydorkwBi7OruCNz0/jp4fP4dMgxNJAGXHZAcoE7gTaqfKLQZLVtAypYghzKGq3foiTr+cxdKMH9x0toPiLRbgrTd19qQwfeUXJEKjTN8G88Osia5Q2HZJcFJiQ8nuOvFnhvlYnLnBtXlnLvvNvhPSw43c5lihVrHimJc/sjMjNe0SNY3zZ+VxNg21Jo8qfhk/nHAJvb6dy+Xd8PmISZsBdYnjylqE+qhS51xGgOpBi9okMLr2QYooqVQtSyKQbnUqvvLb5i8qWyReIWyzmYwejQYB7nQTPbx3Bc5ObMF7Ko0xGYnpCIBBXvmSe1kh2wX0dIcPNT7UL7utoCA24czKOnB+9hAE+jR0EYYovzk3jlc9O41dXZnHUd1Gr5JAWU65KpTCffEhi6sXJSVhOrmpkEKAgVKLovlrAhqke7DuUQ/7X83BWY12ZKuBOsE7EjHi3S1kR62W4/5IpYJJbLVwzAyDDOwOfiZD536aIyYCpiSR5e7uHqQ3hAqQm7cpbGxMzmXQEdttjVNtCgMSCRtVuTwoG3EUFI+cgZ2d093J9nLoWR0+2AA51LE+kDIE78e6KnKkkWHokg8svOLiwuYZGKVK9TrmDtVQi8UTP6Kxljqo9Ije/Juqur9HErjjCU/09eGHbOO4aqGAon0GWvGZ0oSuDu6Z7RCXTjdzXEUK0n2oX3NfR0LWkdQlHfOTXTqtyAvc4BlbqEd46fB4vf3EG7600cKGcQ7PkIi2Q8JkKYKSvKkXu0jFZUJWWABS5a093iu5XChi5VMbDBzJwP5iFV3OUDJIrUwvatZ2NBtgLkqWR4hLDVmIiC2TwkwIlilQF3Gkr+0vUJjaXLsSOIXhMdN0pXzS0jk2UMKcu3zyp2PsQ+2PmxkWeaSdgO1U1dvQu+hoD4JwwtqcEmbroT74PNv/OrjIE7fR/Zt5raJRDVPdlce05H2d2VrFcaSKhDloK3HlPKqvemh11YZO62dpTIAGKYYzNjRAPOA6eG92ARyY2YmtfCSWfpuGUG3aovCpRPTxxqOvtsjLrCCG64L5uB8sGdxWPKqVMqijXRiPBzFKAVz87hV+cuIzP0xTXK3nEBQC5FnfD164aYIsEUop4tEe4rxOLYQbeUhHjp0q4/wMXOHIDmYCYdgJ3jty5YYdYhPHfWSdjXElUnVQLzIwQUXh0O3Jvj4hN0lJ0NYaWkQlD4vu1nLu9RcdHXsf7nRoaA882uNtb2bSNjXk8SZhpQBKrwrW3Twp8lTzRMcjTRE11xQLuVOzE0XsdzUKAYLeP2WdyOLmvjusDNURkH6GGzUxPRqCvAVmdINEyfCBSS/bXm9hZDfBEuYgX9mzBvZsGMZilqZk2TTlZS7SM4pO6fPu6BQp94t3IfR2NYCsiTTQfrSpUgSgC5pcDnL48j9cOn8fr1+ZwPONhpScL5MlLRppC6MSpwkQd1VFStfVwU4UqwY4LNLIoLpSw7VARO19PkUzNIhcRx15pgTt7upMvpFSomhSqeKVzdCuOg6x9kS9+zUC6RMIMSwxcHN0yPdO5LU927SsCea8hewzdY4baQLOQRnaE3u6EY7Ztp3E4qDWA3w7uZk1gMgE2tdOaqHUnraZSuHPczioa7qfa9AM0NztY+F4Ox58JcGW4ipAkrfZMozTuAvb6KtViyIA7UTT5Wojx5Sruj2P8aN8OPDG5CWMFotZ4jBS4+8K56zVSl5ZZRwjRjdzX7WAZcDcUAilkakGM89cW8dHRy3j73DQONEJcLmVQL3pAliJyDSUKV3XSVAECce6aEqHIjbajf1JU38ihd66MnR/lMf7zEAiWkEtJGdOrwJ2kkAzuZP/LbjJi/EuwIBoZoWLo3EX+SGdhmkEwCBmGunN4TOdT04aj3bdFcom0paFdTIRsTyY3G/zOKNzexsZQm/5pn4j4He30EP9LaCg9g3ZUxHL0zpE7gTsBOrHvrJxRyVWnjnAwxeKjWRz58wYubaqimW9w8lsQ3m6opTG9VROmZkeuavXrMUZWA+xcreFP7tqCZ/eMY/tAET0umUhwQRNTMiZy76pl1i1cdIuY1tPQtWLDhNNxBCeNxMFsrYnPT0/j9U9O48OZZZzPZbHYl0NElIyqVTLcKzfEDrV8jsBdFzNRxK4SdVoHH+TQP9ODXe9nMPLzGpykjgJKKKIfOWUaRuDOjfRIJ2PYdhEAGkKDPSxFsW6A3ejeBRiNHNIA8lrm3bjN2ISNxMX2ZGEAV+pfjZblZnG8QHD7n7KlTCKCnwL8nbQ0/9skWEX3wxOCkYbKhECmx6GmZkgrI8JIhvoaot4ECw/7OPLjEOe3rKBJlaqUH5ETUty6dVYqb6JfFO499JSt0HA9xpaVGp4cGcCze8Zw76ZeDGVpcub3EMCz5YD5WU/PSPdcrc91135gHX0cWjpmKmAiCEhRjR1cXm7grSMX8fKBs/hsqYG5cgFRXxYo6j6bxLGT+oVAgIDdp8iPXCXJuoDAnZbiOmqXyL1WxMBUGbveczD8yjIySYoCKiihX/PuZD9ArLurOqhS1M5cuyhSTDRrR+wmyWi8ZoR/tqNfGzgNs9xJ70isLMAuZJB2OGzROca/5lbg/tui91t9Qm4G6u38u4nl27l78y9JqoZIW9E7jSzLRYl5ryKshFh4wMXRH8U4u6OKZk+dI3faveLUtfmbEEWqDZ++q5SYUbJIH27koxI62FEPsTfv4PuTw3hk2zDGy0zNSGK1C+7rCBN+y6l2Ofc7NI6dio7WYfULnXzuzZhic6okbGdwX2oCJ2dreOXgBfzH0Ss40UxQ7ckBFZcTqfRFVgNRhpfn1NAhW2cDMdXynvTulETTkbvKfvpAtYihyyXsfC9G/2uLyCcZlNCHIgZQVNQMRe4E71AJOXFJl9YcVpq2w8LLRMWdka+0C7QpDzsCFiAUdxihYNbSIcYHUlY7skq4GbjTGUni147SOz8a7edlXjVTjB2xm7Nay//L6kbwmZKqQJNWYto5ki3E6HsVjXKA+fuBYz9KcXZ3Hc0KjR/JWjXloiqUmQxTe2yBu0hfPR7/KIN86mMyBLbGNTw50YenJkewvb8IKoWgoibXSeG6bityX6OWaV2WpIU7PqmdM56+Tfbkdoceue/8Ybrgfoc+AjYAtXG3vwX1174kMS7DXJSkmA0ifHJlAT8/dAm/ubyIK66HZjEDULEL+bbT06ke7KwqaGFwrwEemVBRNK/BXfh2wgclgyxi+HwJk+82UXl7DuW0iB4MoohB5eVOdgOkalcCC/1DIEbgzlZhhjWwwW8tZWESk0ZVYgOnROsCInY0LFREOwViEq8Gqm2lTed9FdA21mXtgNV5/jZ+3WyMbCJJztCQJrK2MTlRrliFomYCdg1SrDtpZhpYRVCqYmFviuN/5uDsPXU0+jS4q8idfIL0FYh6Rqybk4hrGJQ6Ksv9cGMPo7GDLVGABwdyeGLrMO4b7cVwwUeR5n43VS32FNfeklvKfeS6CJ1qbWVK7GS0SO3NO8zWd+hR6x5GJtQuLXNnPgsCAjZvqx54K3JvixpJCaNTdCZY0pE4VZOm7Nt+ebWON85fw78evYxPFxpYyuaR5l3dkIOoF+JjfdULVUXq1NBBgTsBv3aUlKYPCt1YKeMtlTB2oojJtwLkDt1AT1pBD4YULSONOgTcmbVnN0Rfg7tcZ9tE1koBcnLVMOYMfaI9N5BtrAo4fWi6A/E2a2GW75rt2mi2s1dHnedlwNesLDo/GbeaFOztzDZm/EQhxOdvNDOyumFwJ949RaDoGGlkQnLIKur5KpYmE5x+ycPph+pYHa6xtlH58BPlpsFdeHZ1MVTkRuCuTIMY3CMfTuSiFDnYnETYk0nw2GgFj2/bgB0DJfS4DrIu3z1pos232KxZqKk2Azx98+dRjTW16tOb0p/2FLZ2sr0zz9x3/SjdyP0OfQJscDdaFyNk6YQp1YjDqtFUQC8PUOIgjYFqmODE3BJ+fuYSXr40hTNBhDCXA7IUS5PHt1ZUqMiNCpeIcydjMN0cWxWpUDQvjTqYm3VqefRf78GOT/MYeStAen0OZVRQxgDKinOn/qncN5W6pJLSgm3LDOduX28ncLJyxljvmjSj7d4uFaa8rYF/WxJpBq/z/tkTh4gtBYh+25Db1MuaMdFAJtt00kqy//bVCU9zNJkxcWIKpERyKeBOtEzTAnc2EasjcOuojiS4+n0PJ54NMLN5FTEVpUmLRQJ35f2lP1nqD1JD8TTBSXIaf54I3NBFJU2xOQzwSE8Wz2/fiP3jQxjKZJAnusdJEKtuHToZ32o77sBNXa5zo6YeFGQoRihFoj6bnJBlcO+sFrgFX3OHnr/v4mG64H6HRv33AXdWmPA7FdA7GhLJRyZyMLvUwIeXbuDfLl7EO8vzmKWtCdjJ/Ek9dfrilJadonQduyqrV510U5yK6Nt9HbUXsPVSBXe9l0fxgyrC5qICdeLcS+hVRmGUSqVkKkXqQs2Yx7dd9dL5WAuss4pd4jobgu3K0XbDXIneZcLge3OrGF4G13DctxpuERb+Ngiy6Rl7wpL3dL5u8gVrr8G+DsklELATwNP1kGaG61XZiqBRiXHjEQ/H/qSB8ztXEBWo6YqO3Gl8CXEJ8OlL2Q4ozkY3TSc01p8JReO4ao7vbTTwgJfiT8eH8Mz2MWwr51DwEjhewrY0siDQNhLKUiIlgHfgkBupRO5u0gJ3ih/43gi4d9ts3yGIWXOYLrjfoTtvwN086HRo0+/YwIqplZQmc1zOI40d4sRFrZni7NUlvHbsEn45N42jaYAa0edUYcjhlF4cC5OsOdTW9WpAV1y7BnuK7oIcCvMlTJ7sweS7HrKHq4iiuqJjGNzLyKOoLQcI3Jlz5+lDYtb2m2oKhfj3sphfC4bt0GomARswGDqEsrIZXZt2+arRuUTba7lzw4nfapubRfCd0Tzt116p3WpSoGmbgD1iUkSBu/jMUDFTUIoxt8/BsZeaOHvPKpoly9udInIaR6pcpYg9JBqGAF3AXQ+QuhDt5d+MkQlj7E1SvDhQwnPbNmLfSC96fIoNEkRuyuAuq42Ue2qpHxW104uaJnS64H6HYOR3OkwX3H+n2/X7b2yDu52A4oeknT9Wrytaxk5Kkt1AjMhJEaYu5usxPjl1FT/77DTebyxjuugizFPULmZgtwB3Gz/p7ypyV7aSqqDJCXLonS1hx2cljL+TInuxjjSOUcYgepRapqS8IEXXroWULXDvpGMYHPjLBlBjCWaDqDk5MwGYu2UKo7jhh3zJ739fcL8ZeNv0DL/ePikLSBuwNqsDO5K/Wa5F7oe9HV0PgTtbEjhaFslxu4rd8yHmd6c49XyI0/trqPc12VRIrCQI3JWDnIA7fag0uItfkDoggTs18iADuRS7ohhP5lw8Oz6Ep3aMoD/nI+fFSIhqaVkyS5tz/afus2pS3Inm3HUhVCtyF+Pj9lXZ7/8Udd/5u9yBLrj/LnfrD91WVYm3p1SNNE9znKJlV9YC9jRAwRgn22pJigtLAV47cgE/PXIaR9wQ9XKGE6lEyTBCWNG7rK87fEeUBFKDu+rB6cKpZzF0vQfb3spi41sRMktN+KmvkqkM7tSYg/xIKGpnyy+hGEyhkG3De3Nw7wR7e85pj3QNiAtE8OXdHnBvB1gzwHZUziO2Ftxla9rWtNYz+2gfaf49b9t+HInuKcXN0yxr3sVrpkHg7taxNJbg4jMJTj3fwNLGALGylWDnR6VsIYCnndm0DJnFCbirDC7lVbTCJgG2hBEeQITHh3vxg90TGC/nUM44cJ241UOd09implhNY+oGCWUoH7j2idqkvzunyj/0Qeq+/6vcgS64f5W7dDu20aAtj4OJeriTkHo4W0VK1ESB/pkiVdypgRF6nBfCCAemF/HTo+fxyqUruEbuvQWyGqDkqAZ3sZNpKR0sYJcITnxlVM9UBgqnlsPGayVsf9XD4NtN+GGi2nFUMKzBvaCjdpI8sr7drBEM922vOm4Wud/sltpXav7eDu4yKbRH/u268S8brnbyR+cbrVVSJ91yq8j9VuB+M1CXbW25pYA9/UnwKOAuzTyYmokV515DFSu9IWaeAk7/eYiZzWQqRtSMtpAQ2SLtSDVvob1KlyYyjtMzC00ExLsresbBSBSpLk0P9uTxzLZN2D1cwXAxg7yTwk8Txa9zkZtUChi/d0qi8pcZbbUVf6AtR/tOSvDLRqj7+u24A11wvx138avswwLuNl2w5lipuTWBubDW1ESBwZ2fHY6WHDTjFFdrDbx2YQr/fOoCPl1dQTXrABkH8Ek1od0eY2mWLPIFS7es6FLLV0a1c6IlvgO3msemK0VsezVF5f0GsrGLEkgGOYhe9KluqWzqS498qouXOG616RE7+r4ZXdIJsAJwX+VWCqAYEP3DwN2GJxtw28+lfRVlAztPBmsnts5rsYky+zX6vda16C5NbJYmVavk7F7FCqrlAIuPeTj95wkub62i1kNt9+guWAlzGledVzW0DKtaWtYSquiJFFRAOYoxETVwXwbYv6EfD44NYWd/D3o96pUrOSGz8nMcV+YFRcXY4C4TlywUtL0kH7hrQPbVP9q3acsuuN+mG/mlu2mBu4E9Bifij6kLDkVTHKWSxEx1yBETRyXlcJCkDmrNBKcXVvEPp8/jny5fxnU3RZIRekUvz5X8wgJ33qsdTPFSniI45QaoqxpJ5raSx5ZzJWx9PUb50zpycRY9GEAP+tGj7AeyrU6glPrjLqlctmR06MbO1s41tN8j47Ii4H8rGkPA1wZUoxE3oNuumbn1iNgTS2eOwNA07WB+s8nIjvB/V3BvX4/pYtOWDTDr3rlqNVEdmVawjHqphtoDGVz4oYMzu1aw2F9DSt21JErWUkfTj9uK3NUFaFBX7RV50vfCGMNxE5NJiL3FLJ7YvBH7xzZgNJdDmWoWFH7rq1f1EE4L3JX8Ub3E2nip8u2C+5eiwR3ZoAvud+Q2a92xOpbhJ5lrpfiXwF2W0ikcKjwhczACeNK0E0671EbPxWLQwGdXb+Bvz13Cy4vzCBUVox8+JYGUQwi4W5CoeFl7ea7hSZp0xC4ySwVsP1zE5jebKB4LkE/JbGAIFfSjjJKqS6UzFuMyLmRqB3e6Loo8O7lxPkv+v1HEr1Wl2GAuOQrapwCo4d5NIZTs76sMZye4C9DazLCRoJqg1wA/H8W+Hr4mcy02eNvndLNt1EJKkxssizQ/RMvU0MQqVlHPVdHc6WP6eQ8nHlzF9MgKIuqLS2iqdOzCpcvnQfdXJZ7EjtzFCZQovzBGIQqxMQmx00nx1NgwnpkYw85yEQOOj4x4kOmLUHZEbsq0vahrCdhTBndtQ6fXMVbquBu5f5WP5m3dpgvut/V2/padtUXuogVhcFeeKjbnTlxMHCMlkE8pYncRuy6CxMHVpRrePnMJ/3hlCh/GDY7apVRcUFHNGpZ3u0CRgDs9c0plQY2yTas2p+mhslDE9nfzGHknQG6qqaSPvRhGr5JCEt9OETenFwkvRB7HhxZaiRXQkoJsBzqOr02nI0kymz/lLppI3sBve4TM0G9oEQPbN4vObzU6sg/79TZFk37hZrkD26vGjuTtCVas6UYAACAASURBVMqaXtc0HezMMyjK3AJ3siSoI0QVNdTdVUTDLpa+7+PwMzVc2raMRiHQ3IkeT5VrEV5cS1zNTKQ/Z9SFiw6SqGYAThKjmMTYlMR4crAXfzYxin39FYx6WeS0YrYV+LupAncC9oiieB25E7jbOZh2oqpLy9wpmLGP0wX3O3bX5THmTKf6VsG1p2HSTqgm6oGjZCptEzseGq6D5SjFqelF/PLEBfzixg2cJGym5gqdkKF23EFyKATTkbuSS9LSXLfaU9nbBG4jg02zZWx71UPfh3VklkkCSUz7MCro1XWpdDxzDVJvyXDPk5YpspfuqO3SRcEaAnhevTCU2o08zLDcHKZN6ZMc0Y6mbz2o9l25GdVyM1DmIxgYbqdy2vdiR//23zsnCzr/zuie74F4vPPaiC0JYlRVT9VVRMUEtccyOPTDBs7etYw6OUQq7oRUM9r5U2gUlayxjmJH7zT5k3+FCiDo85agkkR4qKeIH20axlPDA9iWy6OYkq6dFodCIqZIfQeRxzp4+lG7bZmKtpsNtLIht7rZd+z5++4dqAvud2zMDbi3ms2l9IB7SKXgSCdUKZan0nGSPlIzjsjxsAwH07UGPrtwA/9x9greXVnGbMZD2ipasi6k5eXdAfAtWoZjZ7WUV+ts1jx7QQ47piuY+FWK8idVZKtQfHsfhtCrSBm2+G03RuDjchtqbpYhrfPMtENXtJbDtiNhA/LtbHQ79SHlXcLvm8njy4eR9yt3hP68lXyxE+D5HKSgzJxfO4zdfDoy18jvM5WwazMEQs+wWoZkr6R3F96dmu6topkPET6QwZGXYpy8ZwUr/TWAeHcF1pIk10ja5jWjz0/RIxR2xzovo68nTZCJI+zI+fiTDb14fmwYd5fL6E895FIHPrlFEvWSJiqgiH1NzWg2kZghpmV4apcJvAvuX/7J/Lq26IL713Vn1+xXwIWbWtK34tqJ/1QAy7EcJ6OYeWXFBBA4Hq5HCQ5PL+Cd89N4fXoep8IQkeexRM2wFhxCqbJX/dOig/QJUdSuGyCz5S+rJpymg1ytiF0Xe7Hp103kD1aRr5O+fQD9SilDCnd2gTR7Nw041hIidlGPwKNdyNSm8NeMusTINtO+ltu2I/+vMnz2xMG3Ss5NJod2rrwzoqaz5yxD+ys3o4M6z8dw7FKgxFu0t+zg3/FxeCXDRmJM0RDAB2gqOWQjGyDencXZF6B49xsbqoiLIXdIpw0dy59fpjN7CSEzl6LtdC2Eco5M4aUxNrjAo715vDQ6gIcH+zCWzaGcuEo541PwQZF+xmEXaZojZOCtyF1sn2X6Ekrnq4xVd5vbdwe64H777uWX7MmAOwM7g7sCVyoeSkmZIODBnZbo/0THrDguLtSb+PXZS/jV+Rl8sRxgiRhOl96rZY2yBFd+ABbAq33qB1k95Ba4K+MpVk54gY/+pTImT5Qx/G4D2ZMBio2cSqT2oR8VFFBQjo9CKjGtIKZetoOIAJTcEIMthoqQSJ9JHJFWGuMwAlJjGCblMLyd+bKj6LW/NXeTAdPu22TcGdtJrU5gl73eGtxlqrDPy45cZeJoB3dRFq29R3yeRMewDbCj/iSf9yrqqHtVxCM+rr7g49jjNUxNVBEWAyAJDbjThN8J6K3Zl4HcTCdaWUXqKgAlJ8FkBnh+uIzvjwxid4Xs4jIopQ6UOTQFC16qGD2yKGhJ6slzRtc92ODeOo0uLXPHkKb1mepa/t6pey7LcoatdnD3VLGIm0g0y5RM7CSouw7mUweHllfxs5Pn8OaVOVyu02tZBvdWizWtiCBZowrepBuPfpjt51n6ZCoLPy5H94MMhq+XsOPjAgY+aiA3FaEUkVJmAL2Kcc8i12pbTTtjoBaiRKJYGxwNiSJiPfZNEX5eOHZxSrQtf830ZiJdmQSEvrB9Je2erTb1woFqiwjTtBETKrYu/8s+Bb8N3DnqttHry8G9M3Jvj/AJ3MnXnSJ3V/1Qf1Xi3WvEu+dcTP/Ax7Hnm7i8s4pmqc7xvbLv16u5Ti/2VoSteXY1AYhVhXxGHGScFMNOA4+XM/jB6CAeGhrEeLaASgLkdTLdIfmtr5Oq0uFPWxKIn7892XeFMl/26fp6Xu9G7l/Pfb3JXg24s4mATct4yoxJgbuyHGBoIx+ZqutgKorx66kZ/Pdzl3FwtoaVJmWxVKt6Wceb41FbJPIYoR+VKNX5T5tSUE5fwruzpi2zmsPI5SK2v5FB3xdN5JeBnpTU7QPK7LcHrrL3FbCUyE/OVuBN9CscY+vEcZuihb1ThNBhuGcosAGP74Dh6Rn8TOQuqwaJxqU43qaMzERjVDVSZ2nz5bKdnDFf49ovo3Eyca9gpg3unTAvdAvfDUMJ2UcQcOc7Q+BOrpAUvftKUUWqGQJ3KmYKnRQ3vpfB0RcjXLy7hkYvtd2jzloaaVuNNqwzUX/ViXaiVkg220q8688C/TpNUEwD7MkmeHa4F0+PbsRd5R4MOR6KpIhRBpMcuccqchdNFJmJsUuoClRabp+6fqkbud8xpOlG7nf8Vn8JuNODpay32YSJCkSoV9ICgFP1AP9y+iJevnIDUwF1YJLeR/phlkJByWASsKunkCIyQSpL9662017uinN3kV3IY8uJIra97qJyKkSh7qFHCSD7UEFRRW3Mt/N1MD3jqMwAc9ECz/x3jsKNq6UBQSl5ERhu168LsPJpt9Muttu7aOhFj94ZCdurBkN9/PY8QOfU1fkRscHdvp72yJ1XXxK7G0paaLmbg7u8h9c1BOoE7kR7UTLaU0BfU607qgidCPN3eTj5gxRn9texurGGNNPQFF9rJrVU97YAX5uLCbgL0NOIqsK3GH4aYsSN8GilgBdHhvHoYB82Z7LoUYxMqhYH5D0WubSCFAksg7qfGMd6WhkIE9i2sLnjz95384DdyP2OjftNwJ3UMqkPhx4IAneK3HXjA4qIVhzgahjhs4VV/P2J8/joxjJWVTclglkrA2dTLioI042xJXIX8BewbGW4aGnOT2phJo+dHxQx8V6KnqsJilEevYqQIesBMgozckDmVhmGKaLUrjRWZG1IGgPh9ilzLNsezJnYt73MyyQ7bwbuEpPz+ZgviZblNrW/JjC+NkJv1/SYCUbAmmNvk/w0+zfxubwuNJOdgzBJxs6r5/srZ0ZqGUqqMrgTNZNqvXtd+USuDAAXn3Zw4gdNXN+2ijgX6FGhugUtXbnpZ1tH74orEcms9o6R2giK3pMYd2dd/HC4Fy+MDOCucgF9KqlKhyEpJCVTKQjhEVZySZJNJh7bAWven5ttt88zd+yR+44fqAvud+wDcDNwp2Sm1wJ3omQock/cBA0XuBHHOLpSx2+m5/Fv56ZwdpWYVx8glQy3wzEo04YV1sPdCn4tokE9j/LEUes1D72X8tj1Wvb/b+9NmCQ5rjPBLyLvo87u6qquPtAXLlIECR4ih0DjEKXhSgS5YzMjidSs2ZjtjxszrcZku6KGmiVHIHgDgiCSAHE00ED1fdddeWdEjL3n/tI9IiMrva7uAhkJK1R1lUeEx3P3z59/78LiWyEm1nzUI8oBqbT2ik4wIKVDNCGkNUxTckNp7AruFEylkRtxOEyKn65SpJW6OokLNrDaG4fRfOP7XhobYPdMemjTOdInG+jlvWx23X47MRWrZBLSb7UdqXubHdgOxIq/v6poJRED5ApJd6MvAvcO+7t30CR6phjg3ld9vPcXAa48vYletaUB1YpCHnr5RNQyd47mkM7/L10MIuSDECejAN+YKeOVxSP44uwE5nK+iljN+8qY6itSjHMMkUMAU4tqPnMNVruaU9pAPLS194f5oAzcH9q4y7FcBeYzUJKXTJBX3ouEaDrTTOCH2PKAq60OfnlvGT+4dhev39/Act9DmCNDKmlaTJAatTb2HonfpwE8l8xRvu5+t4D5y0Wc+5/A3NshJpolzPJ/FJWqDKmKMFJHACnQQT8r07AB7L2Au6x/Afc04E9qzbIB2Bp6EkdG4YoN7Er6BoQNcA/HoIp2ndy66Pc5S7M3dgi5u/RydI9IT6ezkMT/0j2kgDblmWmgRynE0Ch0sPZsDu9/E7j0TAPdyYaumqJL7g0eYT9r1GZrSY+acCm+ELO9Dr5Wy+OVE7N4bmEGp0oUsRoiX8gh5GIeihQTcCeN3Q/I80vAXXtn8aBl6P7QoEY/KAP3hyZxDe4UBKLBXUWJ5jh5n6rIpLS2nh9hNQzwu/VN/PDaLfzgxj183OyjReRIoaA1NKFeZCQdXmSAZvoH9pQpINco4dT7BTz2ow5mPggx1a7jKI7hCOdvz7ORTHpHfTS0jPRYNHVDrchWNtwrs8jlJ9Fu5d+itSfBN6md2/d2hQ4b3tLuH2f67b1T6ebmJDGc312CeFz7MiwbeoL4CdEpSNW4kpQEBO5N9LGOLWzkG9h6KocP/zSH97/cRnOuoYpmiyfUAEx30BudrI4Ms14vRLHXwWeKYGrmG4tH8OREFVO+hxI75FDqAXN2UuEVvi6/p88mMc19B/1wmMpZk/ESyMB9vIz2qYUAasRujorvVK6IHqdoVQuFtLSWH+J2t4PX7y7jH6/cxM/ur+M+fAQUUcqUjC5obWtELmsnqcGTNaxbRGm9hsd+ncep1xqYvgpMdadxDHPsJ1NmSkZ9tGc+a6fi3aHgSNwiTSdszTcuwHRwt9vYoMsHGmv/2g7gDdQkIVpAOd6/pB6r3skYgY2ebfzzzckhDu5Ka1f57cUXf2DqsDaF7XRn47QpJmrK3KPy/RNFo4yqAVbQwLq/gdZxD9deLuCDl3q4d2ILUbmjSXE5le0gpwsLT7xpVG4iL+jjBAI8N1nBN48fwRePTGGxmEPdp4hVUsbJu8veooUpVFQPSyLNc2efVlR2m+0lkIH7Q5shBtw52yN/kbeLOAqrI27HAza8EB9tbeFH12/jH6/fw3vNLjp+XhXuYGDXC8r+eSfvMVjEHgrNMo7cmcTZH+dw5F8aqK/mMRvNYI6jUikHJAUuKY3c9pQRwLfB3WxRO+nMCGZJb3eDmiMWQNqZFeVJAuwCnuIiKdq2JMO0n2ZvBgbIh0Hb5tnt7cEkb9YFrSxwt/vjsu+q58sGr5xAlUOhcZIk3r2JEGtoYcXbQKsYYPW5Aj74dojLFxoI6k2goJLNmfSfjk8XcKc+8K6kfN+rQR9Pl3L4xpFJXJyfxlMTVRzL+ajoWLmB7UbvegT4fK2AuyTFy2iZnS2KfWidgfs+CHEAMMlQ/1H31u4gvOx0tSUOkvGApg/cDfv4zfIqfnDlNl69t4KbfWJvKKWrhhPR2CUQZafvIF4RgY/KZhknr0zh3I88TL7dRo3AHrM4onO3Ky2dFqyw6VJ0zdhybSA1mmk8rGfYC8WYWxUuyAZi4Nf4uhsXRvFTFzBObigCqkJ+STuVijZuyozTMqqHxiNeCdX2jhHfbfOXuNFX+iaau2yIQrbEzyDmNGFTPeoaxbqrk5LEAJDHjIc2QqyjixVssGtk8ysFfPgdH29/dgvd2S2gQJNFwD1tGxwxWQY+79QBfeZgW1CIY16EP64V8fLcJJ6bP4LzlOtdl2xVnjFW9jAysvrizW+iCjLOfaeLdO/tM3DfuwwVCDgCOzsnxEhl0rQU5UFF61cR4mqng5/efoDvX7uD36xvYYsWa54ClhRMMCyIfxnvEA7a2SBfPN1CPZP82SZXajj3wSTOvBqi9mEf9U4NRzCDGe0loxhfIl5E97V1SXUbOymYAKbttqh+F4d3W2s24BanbJS/t8Ct/dzhpFs2UJs+GahW7LUB9yQ9oqwdca8WG+pVCEH69UmqKP5vZWFR70EbpWxlZrMxurlsVRSZShGqxNdRfIGK+6RTDMU+bCLAKjawRebVZ/K4+ecFvPNsE3eOrSMsUoIZnTMolmF+zESPZRIVeoZOlREbUR/LAy9OV/DK6eP40gSlJPBBJVyVrYgKeGjvrRz9kiSpTx3eTuKA92kxZrdhCWTgvk8TwR3c1bGXAZ41aNJ0PM6P3SS/9k4Xv15dww9v3sNP7q/iRqePgDR0yv6oVH3Lw9DA4liAj4G7ooTy3QLmbtXw+L9M4PjPA1TuAFMBpQoj3/YSSgxGshOZaqm2/ivargQTqaVuMgMaEDXRqklt29xPpUzTcDFI1mVvGCZviRm4YaAWEdkOiEpCsunYlIqSompr3sMQUSLlZEEQea5sSTZIyzXqBKG0cIlPlROEnd/GpnvovgTtEh5GcZ9k+aA+U2ATUTOraGCDolVPedh4qYwPXmzhdydX0K9RXVVlqFe1Tx02fqWdDOw+A82dqzURwIeYQoBnK3n8h5Nz+NNjR7Do51ENPFXEi0pEsvmIjPx9TbyTf3sOVJbPnLv2abFlt3GSQAbuTmIa38gZ3HUGPooGVKkGKLDQQ8fzsI4Q765t4J+v38b/uvMAH7R7aFCgEwO7NqIyolgl9Lhw8RjtPbnAOemkh3KzhNMf1/HUa1VMvRWgupXHNOdvr2kvGQqfEcdEZdwT/dkGVKX1Gi1ZUgEQrBgQVeAmRlnZjNR9hJIx4K60ZjsnDEEV+Y/E0xSIxq3PM4O7CaRJP+XvBnSTtFByjOW8YX5vfN2t/dW6TAKE7S1XKBa5mwC7SbdgTiSGFlLgrrYEko56cxURTBkiI6yDksdtoFsJ0fnjCj78P/t448J9dCc7OrWEPmltB+7Jv4mhX+YXZytVicWKUYDTOeBbRyfw7ZPzuFAuYyb0OHI5p+cm11Qln14/VKCegft44DjAFhm475Nwx4O7Xt5cG4EqLekUWqy1e9iKItzt9/HL2/fx/as38cuVDTwgtpt82tmv3QJ11rIGFqztwT1tcRPSdXOob1Rw7v0anv5xCdX3Q9TbJcxwXGoFZQYU3gU0LaMARorJJaHPpllsplcShVEn1QagYFa0YPs65dstHwPu9BsFnCq3jH1yUJqxtgEOpGIAU0ttsMlI32zNXU4KaTqu6oX6xDl39TtrJAZukrLdqr+bLUrdP07L2HqtTV8Z1l02PyUBHjqAMruz5t72e+j9URlL/8nDTz6/jOZUQ8c/6DfdEbhbRV744KJrrfI0CDDpBXh5ooxXjh/FF6brWMzlMeH5KHlEGumRIO1du0ryKGea+z4hzM5vk4H7zmWWeoUzuIsBlXnvCCFp7fCwFoRYarXx/1+9gx9cv433m210iGdncNcGK/FDtt3PBog04vgtiztGywBeJ4/p+xU8/tsqzr+WQ41cIHuKkqkPMkCKWZIc8QjalYe7AmzDtSu6Qz6SHcX8Lk7dKAiTCk4KAKUsX9yXxebAY4mo9KPMfeOatIC/vckImNtate2qqHox/LHJJMmakjYBbJ49rrnL9mCfUYzNQPoaP2kIlaM0d0l4IN+p3y0EWEcDW14TvfMF3H6lhF9c3MD96U0E+Z4W5BhXSHFT5EEQDy69ZfGDdZFUHuwApTDAk6Ucvjkzia/NTeGJegXH8nnUfKBAFF6oSHjWReS0uaPcm/u0GLPbKDUiS/m7PzPBHdwpMlUVvw4jCuGO0Aw93OmFeGd1E/9w5TZeu7eCO1TfkkroMUJp3ZE50EFVYjuiZvRLpIK7h3yziGM3KrjwiyJO/DxCfa2AuZAMqXWmZIr8YAF3BTEE7gTyQtYI8Am4E1Ap4LeZawVbSn81cCrgrphtBe7KDGe8cGytWfTXJN1itzEceNy7Jq59K81f2prvNtEU74P0m3jvZIIy0cXN1hYfFqP3m43LaPBm2OS95Luw9HIySaYj6yLCJlpY9bbQOeph/aUqfv2dJj6c30CHjKqc8nkM3z4E7hrkxeBOc022PK61HWDGi/BctYSLRyfx5blJnKkXMeP7KEcR8tqby88R367yy/BI2M/Zn+WW3cVBAhm4OwjJpclOwJ2D9qmyHSjzY4T1wMOVZgc/v72M/+/6Xfx2s40WqT/MgigdWanKdEzm8vOKEBCSd7sOpi3wvodSo4TFjyo4/6qPuddDzPRrmGc/GcoAqUBMSAWp7Km0TDqAiw+NGAkFlE2+dgE10VG1dUHTGAJv6q8mCMoAo03XjHq9OByrVgbg1b+VpExLoXXsa206xIC1nEBkq6LNbRjck6As1ydhdQzMDk4Npt0gjlkIDy0G5bdEGyFRM8vYRLMYYP3ZEn73X/t497EttKh4B9VV5SOEA8CL4ER7J8WCB0AnAOO/U8HUCMUwxKm8h4uTJfzJ8Rl84Ugd80Ufdfaq0acfAnWddZSfnoG7C4Tse5sM3B1FmgQA+zIVpWd5sQwQRv9grS/OUh6pIBVis5tRhAf9CO+sUKqBu/jR3TVc6VG+bCIuOVWk+s6qrSqsMahuz94JSThLvFCa5t73UNko4eR7ZZz75wiz/xbiWDSDBQ5cKrPWrhL2yqpX+qMC97jmLk+L88zGW0X9XctH8+VxvxlFYth8u9AaLgBva8zy8zDo27y54s7TNgZbcrZGL1fb1JBpa+5k6Jh4PholNyNNc+2wDm82C9kOpeye8n+nv6t0EB5TMyvYwiraWH3Sw6X/CrzzVAdNMqoO/BTpufquaS9tYz8LnLQOmm/6PMbzh+a2Mq56QYQKAnyp7OGbx6fx3Pw0zlULmPEokyQ5CWijO3MzosE7bDKO6zBr5i6BDNwdZSULPAk4vDbsIvN2A8naaNRBVYJC55chw9h6FOFqq4uf3nqA/3H9Ht5e72CN9M0BuFOSdzLACrjrotaSOGyQPEy7rSXV1wG4G083cqivrVRw+u0Szv84wPR7IRaiOSxgltP75gcOgwOVzgJ3AmLlQ2OwQr20hK4YkFUtBNrkkB8voWeIDoFEDSua1zfbw3ZDldRP7WGwaRnlQxJvLf8a1ubjWr+CVPHsSd9KVMBX3DFVmY93Cu7q/nSVqd1FkjdFqDsIsYImlrGFlZN9XP1OHu9/LcS9hTbCUs9o78yG6apL9rsL3WcLQB0pLa3d8syip4dU57eP0/kQL89W8WcL0/j8dBXzPlRgU+TDj8gF0irnKEFOjmsta7Y/EsjA3VGOwiLbATt0KRUoYAw3qp7FDUjq3bgeqPL+UX5u4FavjzdW1vD9G3fxq/sbuE+1jqnKEh9rNbCT2k6aFDnDi+ZOLmcUMCJHb3Y0TqRutY/ldD/2WY7gkzH1VgXnf1XEuZ8FmLrtY54TDlClVJUozACgwKSwvgTsxmVRtHCjGwsEqt+of9lOhKo8uKoQKx4wCl3EUGs04PTBSSqbo4bQMPzio6P6I77uRks2QBo3siZ1bJuLHwZ38xbD4J7uPGk09+TmpPRlE1ilss0QNaTAnf4j3n0NbTzABlYmWlj9UglLrxTwuydb6NbbQIEMqxqsKfzZCkTjoyDnfZcMolIwWwquW6NALpI8hfXYUr53P8Bnqnn8+/kpvDA7ifPFPI56HqqhjzytCZpv8pWBuyPK7G+zDNwd5Sngbpd+o0sphzXT30nfOg1XEVUxGOhg6i4cjUpVlqII7zZb+IcbN/BPd5ZxrdlDn5KDsS+Z8O3qCgZ3KjdPAE/PzPWBPHkn8BajvngDsADeRgw6CTBvChRaBSx8UsaTr+bx2C8jTLcrOIpZ1FFhSiYeKGQ0UbmdcOT0ZBPmb+ghoSHkN1IcT/4tLpEK3O2Ap+EEXeOGZxTTkDxhmeAodUeBrjSNf9Qzk9STumeclpF72/dI6vryN9lA5aRibxcyT0TfV/1V4E7jQx86+W2gg/tYx6rXQPtUGbf/YxW//FoLm0cpkRgFNOlTH4U/U208AXj6PSkHVLWLqT0Bd3F3lXeT3+ve6aMqbfFTeeDr0xP45pEpfKlewflCHpOhh1LosccMZ6iU/EdJQY8b2Ozve5ZABu6OIkwFd6o+o4+7w+Cul6VvXOFYE2N8jdCGx1WWXltZxn9buoK317bQIE6d0vpykWPt/siLTidzIq2dE43RgwmlNbgz9aKBn8rRs5Ymi1EKZ2s6p5tDuVHA6UslPP0qcOqtPI72qAA2ZYAsak92o7mbIhRGG7XpF9ufRrYZ24hqe3nYNI5tcDW9jSNAUrOOQ6nZMscNod4eY8bWtHuPuo+cQGz7tbln2vYSv9MocB8Vu2nfW22AAurGhq4KeJBRtYe7WGXDan+mhOVvTOIX/0cH905uIKh3NLh74NwWQUGV4uOBIm8srSCQ8ZWFS3NLgp8S4C6vJBtB0Ec+inC+XMRL05P40yNT+OJkFXOhhyopOwLuNu8+bqCyv++rBDJwdxTneHAneiYOX+JtotgSnWOEsuzSooyAS1tb+Ptr1/Dfrt/Eei9C5Jd04WvLt53XmBS61to5/VtoGV6Lms0mrZ60e04hrBV69proA34BCItAu4DKagln383hM6+FOPVeBQv9o6ijjAKz7epja5Xq30mqQTvwaF8Uo6Ub/3ZzmBHCQoQ9TOLIM+S7DZn2s5NQOh5axdfH6Nh2Rkt7+JOaub2ZiHYtbQSAZV6kb0vDkyspR9sX34LTWJ4beTbp3barKKeHRh/3sIH7WEO3nMf65yfxr3/Tw/ULm2hPdJSiTgpBj05+dHrT4E3zh05+lGhMwJ0VB0lbQAOu663aryFZH8mnvd/HBCJ8qVrGt44dwUvHZnEql8MUPBQI1FlHsYyqjmsta7Y/EsjA3VGOBtw1SGhU4aWik4ENeHd9xB24/2lMJsztekADwL1+H28uL+PvPv4YP3mwio5XBHIls/g446NN5os7mmYCxItGxRUpbwYGd1rEirHlwpa0gD06nheAfhneVgUTt8q48K/A078KcfJmHceDY0zICB0TW8vbUBjUblRKXgE/A+fmrklAFmBMA9e0jSVJudggnDacdnsB16SBXABUNrU07t20kZIaai6o37vxDkkwH6aFjJeMTXTRe6WBO5Xe4xTA5BKZD7F8toj3/m/g8mea2Jwg3l2/CZ/orJwzNrgTNUMfPlbqE97AS0BLzz7q0M8cZd1HMejjQn4gTwAAIABJREFUbM7DN2Yn8c2FOTxVq2KO8s4Qc+h7mpXRdVQd11rWbH8kkIG7oxxlsQ9C3bWtlMGC/HtjRlXhKfVCpRrUPhnAlOvj/X4flxoN/PD2HfzDjeu43e4j8ql8XjERpEScpX6yxmvjQqIfSMdkBnfSunx9/KajAh27Q21UI4Y/B3RryC/XcOL9Mi78JMKZ33o42Z3CMcxyCeykoTGpTafx02nAyWs/xkanmxOTok9q6Abc4qcGe3Nw0dyTpwC1GRgQlfdUGr05ZaTdW3Jjiiur5KxJC27a7v3StgIlS/VUe3MRkswkfxAvGjoFUo73PrbQxkaujbun+rj8f+Xx7uc6WJ1pA0WdyItTCOhskZyITnPuRO2x5k7UHykHot3LyFq1eqljg6MDtQ84sGk6DPCVahGvzM3i2SMzOF0uYcrzUeFQDQF4x4WWNds3CWTg7ihKG9yFfeHSYowUEVel4Y+sCWJDLAcEojzbXoTlIMDlRhO/vL+MH966g39b30CHvWNIY9JGT+betUGKU0iK+iw3FLc24U4t2oYWJy9iWrx9gKIVKRydft+aQP3mBM69UcCFnwEnrhWxiBl2gJTwnO24aKP1GqGNok8kC6Li59NJC7k2DcSTm0ZymFxAPX1o7XAq5aEjmCUBTja4Jt/P0CLqPja4u0yl7fR7Affku0m6NuH8ZZ/nkyBnigzRRh9rfgO3jzdw7T/k8fYXI9yd7yIkoyrZZ8RXXSV+UUoDgTrRMnwK1ODfz2ujvLyNeNXof9tHD5pjQYhS2MMFn1IC1/H1+SN4eqKGxXyeAb6oS7puJxt2m8w++y6BDNwdRZoG7uxJRsZNRgdrSRpCVmlhPtD1gS0vxPVuF288WMEPbtzG6w/WsBJQfhnxYiCDqT4e02pjTwO9S4jLGqvF4tOu/07UC32Ylskr3p1pmS5Q6AClgBOF5TYnceKjCZz7oYeTb/lY3KrhOI6gjpL2wDCLLLncbNDfDlilHYE7GY7VhhB3haSuCkCJ+IXesP+93dDsDtzjwK7urzafwf6pH5pG/dgnC2o26mThOKWGmqWBu1A+ttYumw+NOp3JFMgH2PSauHV0Hbdf9vHhV3O4eqaPrXoHEfPqWsKkQBCYCriTUVVOh3zyy6vTH0en6onMp0NtmI8dr1TAkxf2cQQBnikX8cLcFL48M4UnqxXM53KocFKx7T8ZuO92xoyRa5Zbxk2wQ+CuXYR9yYOd5BQG/I1ShNpUiCMK8P7WFv7p9l384OZdfNxoIyCNnS1PmjwflN2zqtsMBSwRwGstnxceHb1lFyFuXQeoC7iXA6CTQ2FlCk+/U8fZf/Qw/24OxyOqlUoxqRK2NKxB2Ty4ATQ7oH/Y+EqQoCoJKfc9Fe+qPmkUifGuibdJo4Fcwd8eVfNsO+tNHNqTJ5ZRm4erjmm3c72XahdvrcBdXEbFiG1oGWZbGOBDNLwO7tbXcPdzfVx/oYBPPgvcne2hU6FN3vKIodGgOUVKAdMz+uTHhtec+pKoa4mSZk1GWCudgpqNqmR0DVBCgBN+hK9OVfHC0Rn88dQEzpSKqNPWzidbbVhNLLdRv3dblVmr7SSQae6O82MI3AcxIFrfGgSD6PXJWQM8Fc1NRlQvwp2gi39ZXsbf37yL1x6sY6MXImKtXa8a8h9jrVxz6Aqx1Q0l1YAsMMkxI4tUjtU9AXfR3Lsciu6Rl8ydOp55q44LP8rh2MclzEdTmEVNV/oxIG1rrbFT+IB1MnVGRbNUOrABZwlSor6Ln7tAl+jPaj80mrNQJDa82d4pacDuCrZK240nPpDzxDBx5DYp0jYsudIV3O0TjNgBjPupSV1sFxkRe4Z9QKR366CHB8UNpmbuvZTH1a8WceVEH2tkWKV0BEzNmLMV22S4clIC3Jl316e/QY52rc0MzjgqWpV4d6IA/ShAHX08XSngxdlJ/OnRGXyuVsW0Be45Ku7OLKYaYQH2THN3m287bZWBu6PE0sCdlB7yQeb/qHaktW4o34wXELh7nPlxPQqw1Grin2/fwv975z5+vdVDT/hPQUbS3iXKlFcwAb2GWtbQVa7sgZbOlXb0Ak0Fd3J3I861D79Vxuz1Cr7wyyou/KyM+Vt1HI3qTMkkjYG2MS/pwaIAJe7KmOYpYvJCxkFfvY25g8pWEzflJrX7cQBupxcww5lk+tXWkmaoHDUFRj037ffjaKK0v9tujbL5yAZEz1CFSUweeQFze/O1gZ5qN1GWyNu1NSx/LYdrf1LCpSdC3JtuA5SOgObQwNKtDe48icVmQzwP2WysQCarAEfcH5bAnSaD7k0UIBf2cDwX4t9NVPAfF+bwtalJpmZEc89TCusM3B0RZ+/NMnB3lGES3AenVQvcldKtPGf8wIA7uRjfD7p4e3UF/3jjBn74YBVLPQ8h+Z4zt04rWIKWBODJtVEMp1KfkpN3aMJaeFEN7nQf5tz14qQ1x9q+KrZR3CzizNUqPvfjCs79aw3zqxS4VI5BuwCQDR5JtinJCyugG4Y7lR8yGb8phTXi4K7g3dxnp+CeTAkhfbJ7JX0xwVPp/U5OhzQgdwH3NM09CfDJUxERWabWqkozoPZytf3aQG6PlfSZTkubaOJBfgPLTwJXvlnCu1+KcOtoC0GVfN41uAsgs7JggTuR9xzJquJgeQA5xYUksLOsDOydJadMRc2g38Fk1MXny3l8b3Ee35g7gpOlErtwknaeae6OYLNPzTJwdxTkANxlfuv5TlqJaO5BTudTYUz14Pc9RKGHrh/hZqeN1+/cxt9dv46fr6xjmWiVXFEbt6gANjsGA75eWOK3zvSLBnRaiFy0Uh+v2UamOVN6jyS4S8BJ4KGyUsDnP67iqR+UcOaDCcz3JlDjZAMmflJAPQ04bCi0fcSV+IbhThJoKX3ZfBRAxXXtNIOrIYmGja/JIUvX3E3PzAY1nA0yTaMeRbfIfcafJJJvHZex9H8Y3E3Oe7pCzwSl7Q6+DGnDwx+jw0K00MUaJRNb7OPan+Xx3nPA0okWmvU2IuLdJTEY3ZSBXQM8DQz5wpMmYkepSsFrVhQs3p7zHKk0wEzNhJQUqYtK2MNTJQ9/c3Ief74wj7PVKoo+VWRKUQA0D5/RMo4gtMNmGbg7CiwV3Dn634B73wL3HOXX6HmIAqqPGuJau42f3LyBv7t2DW+srGOTtCTi2zl7HmUd0JkgiZckIyulIaBcIJzDXWv1HJSkPRdkyQ8c7LWfuwC8znnD3Gk/h6m7RXzlUgVP/FMep5fqmONMMnRyUB/7yG+DiS2e7TjmNMBV9xlNWKRtIvIMk3FmL+Bunm3z+6PeT94hfuIwb+YC7jJP7PeWZ4/T3O1NStEyJh+9gLukRk5m0FRyo5xF5PPexf0jbdy4CLz/ooePznc4sVhEXlND4C7KgoC7nm+8Z0tNVJ2kblBXgNrqSOgeuUPSfZVZt+z18XjRx/dOzOGVxQWcn5hAyQJ34tttMM8Mqo4AtItmGbg7Ci0G7pzXWnmKCbiHfoiB5s70uAb3PoF7xOD+2s0b+NurV/Hm8iq2urpSDq1KUuEIZ0l7J82doklBAU1FBfDkvkZJmOjvhUi1lYUmaYWFr5ec71LYI8gj1y3h9K0SvvBOHudezeHkzRpmUYU6MNtaodGylbOPza3HM6QI2NiAF9fQpbxznJ8XisHeKKiFnUxMaa0mXtYG2yRlI1uT/XuzaSS3j/gZIQm2dsoFQ02ZVuIHv53mLjJLA3fZ7MxzRstUfNrVCcj41JukbYYQkyBlZVMgn/cA9yaauP5sHx98w8P7f9TFvekWIvKaIt90dmPSro7KcKQGfqC5W9u9T5kl6auvriVNnXFcR0IPQpS5VBPKXojHSx6+d+IYXjmxgPP1Gko5nQJY8+1JQI9ZR8YdixzXa9YsK7PnPAdi4K7rZ8TAPRey4VS8zHjN9HxEgc/V6q+3O3jt9k387ZUrePPBMra6tCq0SxqtFrqWKRdW44GIUhGQ9k4/61qqBQ8o6Y1AvHMGWfe0nsdFjXUGQDKMdQsoNar47PUCnnrTw5k3Clh8UMUM55KheqjqM7CzWVq8lHgzGq3oh8mC1HExUivif8V0amvEYkCVDOcC7OQTrxIhK+8aVfXI+NnYdoC004T8zgZV+VmMlCpkScy3KTSBppfoL8bwuv/gzkpxzEtItiiFsbbWLvSWnKyMh60Bd6FvFGFD2nuEe8Umrl7o4P0/i/Du1wLcPdpCWNEAza9EioT2wqKJTDw8c+7at5IpPXKx1eBOfyD6haYtg7tOdUHzjees4t3LuRBPlHL43kkF7ufqVRRzusyJRw4Gxi0yzeTNksgA3hmXtmuYae6OYhzkc7f4C6YhhUPW4M6LM4rYjkmcOwEtZYC83u7itdu38LdXPsGb91PAnblz0uLJA4boGApGomhB+pmoGuLoPVbolfZONA79jqsRGz95ugkDvPJXzrWKmN6o4fMflXD21QinPipjoV3BBAojwV2APgnuwoPbG4HN+cZFaTPrNj2iYC3u2heBPD3oS1wnCdwVvKvVvh24p2OBeabJH08bRzyhcXLjMZuEnGLcwV10bHVF/FxgZ8rcDtzpb6K1i2OU3E2ZxpOpCQx9QxsBXUs+78t+B9cX2/jwT0K890KIayda6JBRlSYte2BZQUo60lSBOwG9fgoH0FGQE/2hr34vHeD003obornJOd8DlP0IT5Rz+N6p4/jWiXmcrVcG4O5r3n1AkblEpmZA74hQw80ycHcUnQJ3VdSa7ZuDLz37KOujTyl9VYpeRVcKuGOguf8/S0t48/4KtjrE61he3HwMkFypFn8uaX45qlAyPZKWTzQN0TWkORG9or8Y6DXA9/OYaJRxZqWGz7xdweIPfSzcr2AaJVSQ42wyAhw2eBrPIPFItyHQaJlJJSttHW7HX5t9kqJZTQEPxVQZAsdoeGnatupPkg+Xf6tnqHsbUE2GZsk94vdPbijpV8Un0Kj3tTcNW242PSVtxNCadEMVXI27cxrvWHWd8kja9Pq4N9HFjWcDfPRyD5f+qIn7M00EFJFK/LhkGuUEYEK3aP5cLDAyJ7mwh94UWKDiKaMjpWlu8oYRooQIF8hb5rEFfGuRwL2KEiUQY4cwX62bWFywfutRWkIG7o4IlYH7rgUlHtKDQJgBnau0S5mDIaE6J2HSJ9XIRzsiWoYMqtfxd0TL3CfOXetoA4BP6Rqji3Z5FBjWm8cA0bjaDel4xNeQgZYoHNL0c8iFBcw3qnjmNuWTqWL+jTKmNgjY8wzspt+iGQ/rnLaWboOSrZeOWn/27+N6bJzbFypCwFSoGiUhAfnRQye4YHlnD9wwzT1Hn/ZHnQpk40tuYttNou3APSmDtAAtextNbibWoXGoC9KWvtOYdTjXe4DlEz1cfamFd1/cwscnttAqUUl2olg0FaPsoIpqof+Rpj4ov0favbyR1XuhdTjQyf5EfLA8W8rhr04fw7dPzONCrYay77OnL2cwGOQhS4SO2YvIvmUG7rvGrExzdxSdgLs4qw1St3NBYEn5qjV3rpykAwIjT4F7S4P7VQL3NWzR6mNf4m1mL0dFpUAkLUw6BnNaVmpCG4D2riF+nrV8H8WoxPljPvvJJM78pIK5y1XUuyVdJVX1W7KqKG3QLODtAC8psvHrz2waNsAlwU56ICAmoDqa+lE9sTXdURuKbCBpwz3Yp2N/HHWnUW+b9jZJ6DMSlrskv9vjnXzSdmNiTgCKDiPevYUQ60e6uPvlJj662MCl81tYr7cQknuj3Myu3kVeApzKQiJZRbKJdxNwTyHHi4jwGIH7qWP4joB7jsiwDNwdoWbfmmXg7ijKIXAfYGEC3AeVL5UnWRh56Ghwf+3Wdfx30tzvrWKrQ8tRuPJxuqD+u+wodJRm1zNJ+6s5dubnRdP34fULmF2p4Zn3qjj9WgnTq2VUI3KAJL2dvoyuK/Brw/t4uHIUXmLTUKKTu5ukXYpUSHrBi/FRPWv8KSHZa3NFGljKG8SvSnuKCX9K78PwqWdYOnHHUNs7R95OpDFiW9dbcPrIiE8NWS8oGIqSiTUqHaw+0cGVi11cfraFtek2QkrzO8hialEsUp2JT56SgmA7Mmq4l6S5P1b08Zen5vHtE8fwBGnuDO4eV26SKWuSTmgpZZq762JybpeBu7OolG5L/G2Mqkhq7gROXMHGaO6dUGnuw+BOWrYLk5sAd9batXlN8g6LTzwXZNCBKN0iZu5U8Mxvqzj+Rg71zSIqqKLAWSCLtNz4a7BPDSDXFdbTdd5xIh2GXwOXSZY/DfTSQJPuYHvFmCAoMd6m+2aM19rN00ZBqmoxWhajpDm8SSgnUPX74f7KDBwlX7UtivWCMkX20PJa2DjZw80XA3z0XBersy2ERUpFwJb/+MsJuHOtXe2CGyMdU55snzwjRcs8VszhL08RLXMMj9dqqGTgPm5JHMjfM3B3FushAHdO/KS2GAkaYSMsedEQHUPGVzbi6qyR7RJmb1bxzFtVLPxbDrUG8e11FFBhzT0eA5nUYd0A3uiibu2N7m1r1MMxr/FhGdLzhkZNMcNxvd/2y9meTLErxaZPCLe3E64j3nr4WkOi2OhqMskocB/Vk+0Dw0xV2w66aHlNbC10cetihA8vdrFytImgrNP8DiJOdb+5dCMZXMkThuIskomGM3B3hotD0DADd+dBOATgLrQMB6Joh2OyUrHPnM4pI/5yBPSdEo7emMAzb9Yw/xsC9woqmEQR1UHWkngAu7MwtK66HQs86l5xGkbpvMqEan+olRAdxnUyHfDiwG60aAlZGlcCT73FMPu9c2nE32E7CQxvZ+ptTR7I0dCedLOMy43uo3xmOugwuDfmu7j1fIgPnu9g+VgTQaVnUg9IYjrmSyjvO/HxUkzbLuw34m0yzX1n0+Qhts7A3VnYruBO2SGlYhJ5iHlwpmWsAtvbdov9jUl717lmODOTrqHKuT6ItcnB65Qwd2MSz7wxgYW3c6g2agzuBVTZDKkAJk4LjTeOxs2u6TTKdr03XhJxMsZsFKKn2yy2vSWMvnu6TjsyWMa60fhtahRZIjdRW5T6uBMxcfkpDjvtnDL+3urJwoKT/t7Vmntzvovbzwd47/k2Hsw14uA+OA3SxaS5UxSTgPtBaO6UWC/lHTPO3RmJXBtm4O4qKa1ZjufcXcGdHlyIc+7jwF0wg7xlCMTpQ1GtnCmSeFKiZMRTJwevXcLc9Ul84VcTOPZOAbUmgfsU0zKk7ivrQfwTD4gfpT3aAT5JZ0lXgQpYxsHQ/u0wUG5nylT3SYPV/QF3Ac/R258N1KPPGLZ80nqb7vxpNrrtCSID7iGDe9troTnfwy0G9yYezGnN3U4ERjYa3hkoRTT5RWqbzR5pme9ozj1mUA2l8GLmCum6UnbbLgN3Z8nts+ZOfu7kvmgbVF3BXULAyfA1AHdO3GEFp1DR1hKOXJ3As69PYOGdIurNOsqYQBE1De62tmk0v3EiMVcR0OgSf+Mucvi7y6kh7TZufHjySvtcMLyNOHR3ZBND8OzmjWxwt68f7m9aB1SqZZXKQWnubTQXCNz7eO/5FpZJc7c5d7HP0FziDJG6qhf7sIs6vc17pNAyp4s5/DX5uS8qg2oG7nuZTbu/NgN3Z9ntM7izK2TCW2Yn4E6pDWgBEudOqVwlvS8rsATyOaBdxOy1CXz+lxNYfLuAerOG8oBzzw9SUtng6AJHisKg/yeD4Z2FmdrQ5dnpEL2b5wpYbmee3M19jYbvcmIYfoKAe5oX1XiAV2UNyWemPwB3MqjevNjHBxdbWCHNvaR92TmnDO3P2oWWvWUobwb9Us4A8n2ELEaA+3cHQUxVDmIauEJmmvvuJ9UOr8zA3VlghwzcuZAHpR4gWkYXXLDfhY7anSJmr9bx+dcncPy3BdQbBO6kuZNBVcCddwNnKZiGAopuRkSXBzwKcJdtajcS2O6dxvv3jLpaJ9lK8ZZx2YZEcw8GmnsLW8e7uP5iDx++0MLqkZYCd/nQPKEcRpy/iOaS9qSJBdftUHMv5fBd7ed+oV5D2VMRFeznnoG7y1LYlzYZuDuL0RXc9+DnvhPNncFdH6U5myS9iPIb4Y+A+zUN7r/Jo9aoglKGES3joZASLuQsDG44Xo/c2f12A+47e0Ja6+Ggqb3dczg0aSf32y6PzvhNWPx+lLc7FXIkb5mNxS5uaHBfI3AvauqFOsb5/3V0M7tC6qLZscHYI7iT5s6moQzcdzIX9to2A3dnCbqCu6tBVdMyXAdVd2IsuGvgFo8Yuoy0LcoSSTcZFOggcPeV5k60zBt1LLDmTq6QSnMnSmh/YC1hGHOW53DDvYD7Xq5Vjpj7obvvDdiVRNL74bqRKhIlBdxf6uLDiy2skZ+7BDFxsBJ5xujso0TTsOau01pwf3ZByyQ19wzc97Aqdn9pBu7OsjtAcB/0QS/skTgjWrlw3boqE2nuXNMyZzL20c8a3L/weh0Lb5O3DIF7PQbu47XBcQJSHLGCgZ1BbLpny7jnpf/dGDF3dr29we0HvBs57EQWYsUwpurk1a7gLnCsNHcyqLawsdjBDQL3F5tYO9pAUOrqQx6BO8VH6AA4eiiX1RNJ2Lz7CLmmce4ZuO9sEh5Q6wzcnQXrCu4OtAxlhWxbmrv0YZzmLlod+bdznm29EBlbRQPTuWXIz51cIa/W8cyv6pj/XQG1VhVljlCtcl4ZA2a7hTV6B6nCuj/g7jwciYYOMDR064Mxqe51m1HeLmkfd4CnYtrkCklBTALuHQXu5C1T6hgGj5QA4dx5OLl2pN7zHbxlEontKP0Aect897TKLUOVmNigatEyxqpgtjB2zknbD6Vu/G4nxh/wdRm4Ow/+IQJ3rtxEvCkBPC0KbVzlfCCangl85FtlHF+awGd/MYGjHxRRbVVQYlqmrItW7CCvzUg5mWP7fmjuzsOR0nA3b7PzICyXHo6hMlJukexHGs65gzvRMuIK2cLm8Q5uvNjBpRebWD22haDYVV5W9BFahtJX0KZC4M4P13NqHC0jiMyHjwhFT+WW+avHFLiTQZVqqHIgNdc5iKxyKeotuSd2ZmtLPlwN0EXkWZshCWTg7jwp9hHcJSskp+e1IMlVc+cCrlpz1wmHVfUlrf6w4cpHqVnGqaUJPPWzKRy5VESpTXVTSXMvI8dJw2y+/OEvod2eF0YN2e7eQHqxX73ZrebuPBFHNBToV0FlBO6UW4aCmMhb5uYLXXzwQhMrrLlT4jBdK1Jq7nICOUJgDe6sJOxAcxdwp8RhlPJXg7to7pwCicA9UuBuJ5zmnlsmI/sFBdx3N7Z7lemn+/oM3J3HzxXcHQ2qQsvsCtxVMWLOKcyrQtKz0hKgpUJRqh4qjRLOfDKFJ386jemPyii2K8y3U25IomXkeKxE8PCXz37BqQzh7t5gP8Hd7sHueuM8HYca2rw9hTApzb3jtTlx2M0Xenif/NwptwyBO5fQ02kyiJoRLoY5d5pGinJjr6tt54Z+TwvcqVjHXz42j28laBmfyk9qcOci2dpKMxgBmsqWSZmfrDX3hy3N3Y/D4bkyA3fnsXgI4D62LzL1yZtBa16sYdk5QHQQSuBxFsizl6dwgcD9MoE7AXttQMtIqeixjz3ABvsJ8H/YACDgrhIf2+DeWOjiBgUxvUARqhrc2SNGKobpaFSu46sLAw9OhFqltudA2qAlwJ009z9PA3dozT0N3EU10QOpt5exxNABTs9P9a0zcHcevsMC7tRhDexSMScWKs7FWznPjID7+Z9OY2YI3POWKdRZCPveMAP3/RKpDe6iufdYc28s9DhClTT35WNCy2h3R3a80jBqg7vYccSGs0NwJ839LyxwH9AyiJgQpGLZQ5p7Bu77NRnUWTyKxhK9+/rAT+/NDiO469XA4E7auwb+IXCfwczlkqW527TMp3dEsp4nEVc89j+l4K5pGYl5zjT3vc3wDNyd5ZeBu7OosoaPQAK/B5p7Bu77Om8ycHcW56cR3Is4e3ka5386WnPn45uzDLKGh1cCGbgf3rF5ND3LwN1Z7r+P4G5efqc+6s5iyxo+JAkcLnD/z48dw7dOzA+CmJw490xz39e5koG7szhdwd0hQpX83NNcIcf2RcyPYlDdhnPvK4PqmY+Vt4wyqJKnjO0tk4H7WJF/ahrsFNx1gWw2qGp/9v00qJ4+hr9gcFcpf8ntlvzcKR0xR1hs4wqZce77M+kycHeWoyu478HPfWxfdgDu5C2zpcD98demMP1JBSUN7hTEpPzcdw/uLulnk69zGE8Hvy/vIR7i5ARpXCG385bR4M7Jw7Tpkot1aD93iVDdpbfMfz5NmruJUM3Afezi3vcGGbg7i9QV3A+J5i6ukB9N4cKPpzC9VEGpQ1o7RaiWkOM4wb2Cu6sjo3rS4QV31/eQtziMVoodau5cVF3qrdiukPsD7v/p9DG8kgR3LiTCJWpilWKTQUyZ5u4MSts2zMDdWY6u4O6qudODE2X2xvZlh5p7s4QzH07h8QS4q9wyKgBcPjsF3p3lZMnAfezQ7rlBBu57FuHv2Q0ycHce0AzcbVFl4O48cR5SwwzcH5KgPzWPycDdeaj2G9xJm00kDhvbl51r7mc/HKZlMs3dCHpnm1RGy7DkHNIPZLTM2MV84A0ycHcW8acX3M+/NoUZMqhqzj0D9wzcOaD5sHHuWfoBZzRyaZiBu4uUuM0hBHfpezK3DGWMDO3cMlOYuSzeMlSJKePcB6KL5SF0mQz7V1bQ5WnubQ4RLVPMQfm5p3nLWAZVdoc0BwFJizcwqFKJ4PGF/txF9AfWMgN35wF3BfeH6C0z6DtVOhDHRloilDjMZz/3c59M4twvpjB9Sfm5Uz53Avf98ZZxFh433KnRdmd3313r3z9XSMoK6ZBb5oA091IEnCspcOfEYbUayjnLz11S/lrVBJjlSZQAltH0s5S/u5vYWeKwncjtkIG7aJzsiKIze/LNAAAZdUlEQVRzbnMOblURh3yX65Tyd2kS5341iakPSii2FLiXUMnAXQ99Bu7JrJB7c4UsAThfpHzuKojpXK3K4E6OtxzEFFIZQfu/eCWmJJ2f5XPfCUbF22aau7PsDhO423nd9XLgFK2W+tNX4H7u6iTO/moCk+8XUeQaqhMoocrgHneGdBZE1vBQSuBw0DIM7lSJ6bRK+Xu2VkUlR7MNyHOFMPJ1N+DOugj9L6uhuu+zKgN3Z5G6grurn/tevGUS4C4O60TNEMBTV3s+6s0Szl2ZwNk3BNwrKGMSZQZ3CgJ/tJ+das2HkdZ5tBK0n354wJ1omb+WfO5Ey1ANVUpKPQLcGeAzcN/3qZSBu7NIXcH9IDl36ayqk8lfVLBDKqFRjhAGdw/oeWPAvQAv1afNWSB7bpiB+55FaN3g8IE7GVTP1TW4R0Zzj5My+hW2Aff9lNIf0r0ycHcebVdwd9Xc6cE7jVD9fQR399B/KqucfUZJQMDdMbfMQRlUoQyqpLln4P5oZ2sG7s7yz8DdWVSODXcaQJSB+3aCJXBXnjJOicMycHecpZ/eZhm4O4/dfoP7bjj3vWvuJc2552FoGRd65CD47gzcnSefQ8OHRMuMqsrJj49ABlWluS9kmrvDqB1kkwzcnaW73+D+cGiZs1cncO71uuUtM8neMnnLoGrAPY0iObikXxm4O08+h4YPSXN3BneiZeYzzt1h5A6qSQbuzpLdb3B/OJr72at1nH19AlPvF1BiP3cF7uQtY8KeBklXU6SRgbvzFHmkDQ+R5l7M4a/PZOD+SKdDFsS0E/G7gvsh8Zbp+6g3ijh3tY4zA3CnACYBd1Os49Fq7u5jcBDUkPvTD3vLRwnu2qk2JFomwrliDn9FBtWTpsxeLvOWeegTKNPcnUV+yMGd3mPg5+4BGbg7j+zvR8NDAO7EuUcZuB+W+ZSBu/NIZODuLKqs4SOQQAbuj0Doh/qRGbg7D08G7s6iyho+Aglk4P4IhH6oH5mBu/PwHHJw59zcVoTqp4CWcRZ91tBBAhm4OwjpD6pJBu7Ow71P4L50BW/eW8VWh9A4B3h21KVrtheH9AMZuDuP7O9Hw30Gd84wqpUFyTbKdp0opRKTyUaaGVQPz2zKwN11LCIBd4kBlAsVOKsMi+R3YrxlvJCS4HlohRFutNv4yc0b+O9LSwrcu3SVqgOvPhawj8X4cYnDjEH1/NIEzvyqjqlLRZTa5C0zgeIgK6R68qPylnEVfdbORQIG3ClSNUCALnpoe200F3q4ebGP959v4cGxBoJyn7J4bV+JiXMUJUplsMesBe6DsIhhcP8uJQ47SX7uVVR8yueuEofRmhCvJ8kxoxdQbAkM3njsWnCRzR9mmwzcXcc9VODO4B0RwNPPVElAzz4uKqAWGH8PgSj00IeHdhThequNX9y4gb9fuoJ/ub+C9R4tEjtbUvxeJqdXyuymFaJ7M0gcxpQMPZ7S/lK9jhwmGiWc/6iOcz+exOT1IsrdGooM7hWoPH1qPWXg7joJDnM72fBVCgL6r4cuOl4bDQ3u7z7fwvKxJvrlXgq40/wLgZzO5x7lNLhbioeOQpWpZ6RBc04hfSkK8Xgxh+8+tsApf89NVFHylerDM47BXQF8Bu4HO58ycHeVb6g0lki+C47m9CmVVRLSTCL4HCzosdZO4N5EhBuNDl6/fhM/WLqC15dXcK8fIJL0vNQHLjkj6R01QCf7NlDyZSELOutKTIE+NlOmyDCHyWYJj787ifP/YxKTqyUUA1WsI4cSKE+LLLJ4+oFklOrBBTG5ij5r5yIBo1h4WnPvMLi30Fzos+b+7kXS3JvoV3pQk9QuWkrzL1Dgzjt+XrvWWhW+VBCs+cSmCi2OCGVEeKKUw9+cUuB+pl5BMZfj6c130td4XGIvMbfStPRMc3cZ/NQ2Gbi7ik5AnQBUT3BSvENaA5x6l8A9VOBO64PA3cuh53loIML1rTbeunoH/2vpCn6xuoybQR8h1xazOUxZSBrc7cWjKVC1HlL+EPhcWo87Rx0IfUy2ynjinUmc+/4UptYrKIUVFBjci7o6giqc4PLJAohcpPQo28icoFlFejvRMl20B+AeKHCfb6Bf6Stwl7knhngGd6Js6D3yrCAMToIWEzh4y1gqAvV8AvfHSzn8l1Pz+IvFOZytUyWmHOstNIfo1MtnAX3ijWnvGbjv6wTKwN1VnGLDpO/6ZwL3IK949lHg3vd9bCHE9Y0W3rp2Bz9auopfrD7ArbCP0FfUCN8voNJ4Guhp/vNq0AUkeTWkVKvhBUeATrsMHaOpER2rVYHsiXYF5383hfPfn8TUWhnloIoiaha4K1tBppu7ToLD3E7PQz05A/QHtMzWQh83LgZ4/wWiZVoISkTLEG+o6MPB3PFDIK/5eEJ4NqRaisYA4C0UtqkaSOIwH39zah7fXpzD+QmqoUqae7oSYWvwCvUPs4w/XX3LwN11vOQ4qjV3wdUwZ4E76eIRQGvEC31m33uejy0vxM3NFn597TZ+uHQFP1t+gJsE7nmdd5VAWQBeNhGZ6Azw2vglFL3NrXNUKh0fdJEO0r4I3CMP1VYJZz6YwuP/cxqzd8oo9ytsTPWZllH/ieYe06BcZZK1O0QS0MZ8UD530tsN507gfvNigA8utrE811QGVZqkDO7acEqnPs4RoIFfyjayXUnTfbwGEg4AA8AXzp0iVH1879Q8vrN4DOcnh8Hd1t4Z3EcA/yES7qeyKxm4uw6bDe6iYNO6iIE70Rxq3VCBauLUWXP3QtzeauG3127jR0uf4CcPHuBqpMFdDKGswdsl4PVDbHAXSl5z+kpTpyfSEVpvEMKbwkOpXcKJy1N46tUpzC0VUekQLVNjcFf16AncDfeeUS+uk+EwtiNwV4ZUBe6Klul4HbQW+rj1fIAPnm/jwVwL/VJfKQzi+RJo4ylN3AJp7qTBaCAfVKhOscWI1i6nWQDVKMKThRy+e3oef754DOcmaygRLWNRMRm4P5z5k4G7q5ydwF1RmQzubFAlGtxHEyHuNFp49+Yd/HRpCT9bvo/L/R6atAeINuRbnjPMhcqR2HjjcFfto7FQMgLu9DfS2v0+N/U7JRxbmsLnfzqFYx8UUG1VGdyJc1fQTsnD7HLF2ZnYdTocvnYG3BXEK3Dveh20F/q491yAy891cOtoC20Gdz2ZtGcV03s0eQtkbGXLvMZ3soRGioen73KKpBvQ3O2HQD9CPvRQ8Twc9Xx8tlTAd04t4KXFozhBBlWe24ZnJ3AXjT3T3A9uJmXg7irbnYC79oJhcPd8tBBiud3B0oNl/ObmLbz14B4ubTVwr9PFWr+HDq0R30eU882iY65Te8Gwe6Ot1WtXnYGDmWX4ooVJRjFavO0SjlyZwBd/OoX5d0uotoiWEXAnUCeHSEUNZbSM60Q4rO0MuBs/9y56Xged+T5Wvh7gynMdXJ1rYbMUKN2BXXY1LUOuj8TD5yxwZ9sPHQwJ3OmLjPWaIqTLgwheL0CpH2EWeSzmSzhTKuOpWgVfX5jF5+amMVehU2LciCpAbwP8YZXqp7lfGbi7jl4S3MXOpGmZiNwgiWUnzV37mjM7Ax8dRNgK+lhutXBjbR2frKxgaXUNV9c3ca2xibudNlaiEE12ePEQ2W6RZCglPnSwCLXGJNwna0UUDKUBn7R2dtcB0ClilsF9Gsd/V0S1qQyqeRQ12056ewburlPgcLdT4C5forkLuK/9uwBXn+tg6VgL66W+Bnc9l9grhsBdKwZss6H5RGCueUbm4+nfioPxogjFMEI18jDv5XGhWMaT1Qmcq0/isXoFZydqOF4voVbIcVvS1n2twWfg/nBmUgburnIWcBdPGU1JRr4YVHVwhkVl8omXjaoRKCC1FQZo9PrYaLaw2mjg3tYWrq6v4fLaCj7e2sKNbgsPwhCNKGL/eGUk1S6OtPg4sETAXRYen5dNNKHXB/Ia3NtFzC5N4tmfTWLxnRLqTQpiMuCufGWIDxWf44yWcZ0Oh6+dckJPgjvRMqS5L389wCfPtVlzbxC4D9zXaZ7R3NK0DJ362NuKbqcd2/0Qnh8h74co+CF/p3J6i4UCHqtWca5Wx4VaHWeqNcyXKzhSKmIyn0M156FAikrC/VFkl2nuBzuLMnB3lW8S3DUOErizmiPUeALcQ88j50T0iHpBpHwZghC9MECz18ODZgPXN9ZxeW0VH62v4cPGFq612ljt9dEJIgRkmA34bKw1eL2rcDw3fRGwq4hU3gwY3ImW8ZiWmf1kEl/6+ZQG93oM3OmsQeAutEzmh+Y6GQ5jOwPuNB/JoEoRquznPt/H3ecDXHq+jbtzLXSIc+c5y0Ya7c+uwZ28ZThvhhj4Q+SiEGUvxEwOOJrPYbbgY65cxJmJGs5NTeLU5AQWKmVMF/KoeTmUfQ8FfZ5ULpBJY6zQ+cpTJvOWOZj5lIG7q1xTgjh4yvICsb4nwD3yKKSEnWcY5DlxAWsyEfpRiFa/j41eD/daLdxsNHBlYwNXNjZxfauJ2/TV7nCqgn7oIehHiMgXnpKN0XNzngJ3jqbSmj5I86IFSuBexpGlKXzpp9NY/F0ZdS6zpzR3tTPYzvPiiuMqkKzd4ZKAmlME6wLuFKFKuWU2F3q48UKASxdbWJ0jP3ftLcNzlyamPvkR5UKcO89RYmA8dpw94nk4kcvhsXIJZ6oVLNbKmK+WMVcrY7ZaxFSphGreR8HzkPMipXPImZAjUUd/MnA/uFmUgburbEX5sJQQBe5Mdpv8LIm/23vCoCA0LyryaFBxS5RmphUE2OwFWOt08KDVwe1GA9fWN/EJ8fJbDdxqNnG32UarT0dvb2BfRU4tJeUWSR99rCaNjMD9k2l8+SfTWHyvjBqDex0FzblzhOygkmoG7q5T4XC2E3Cn+aE0d/KWaXotrBzv4epLfVx+sYXGXBPhANy1ht7XrpAcI9GF5wXIRT4mcwWcKZTxRLmKJ6pVnK1WcLpWwbFSCVP5PCr5HEoFH/k86RvqJEC2J/ooa44m/KxUA2myyzT3g5lRGbi7yjXlZGl+ZWVniYG7QLt9MNW+yGyAVYBK1GYYRAzy3SDiLJJb/QArnQ7utpq40Wji8soqPl5ZwY31DTxotdAJaPF6aJCXjUcGVVph5LZm0g+gVcaRj6fwlddmcPxSBbUWZYUkzV0FMckyNCLIOHfX6XD42gm4K8OqgHvDa+HuYg+fvNTHlZeb6Mw1EFGEqlIt1HGy7/OX54Uo5vuYzgPzpTJOVyfw5OQUnqrXcaZcwWKpiNlcDvW+j6Lnw8958MmTxo8Q+iFCL+ITKk1r5YsVd7QdJbMM3A9mNmXg7ihXCbwY1TydVdT5O6y8i4qYCVnDGRgyOYOkRIN7CDjhGNCJyMsmwFqvy7TNvc1NXF1ZwZXlZdxcW8ftZgvX+wHWQtLki0Aur9zWdPoBBvfLM/jKj2dw/MMKapzyt54Ad3mjDNgdp8IhbRYHd5pjRMs0vCaD++WX+7j6chPduS1ElDgs6AP9LrxeiHI/h1mvhNliHkfqOZyaqODM5CROT0zgRKWG+VIJM56PSXioRj6KdDgkRYKZvQhRLtLAHqp6MToFdjKKIgP3hzt1MnB3lPfotLgKFDnD4+BjcTgckKTTAEsMkh0IwmtSXauivD2EYYQwUuwp6Vi9METXJ60+xGqziVura7i8vIwPV1ZxaauJT5odrHZDbIVkVw0RkUsbrbJmFXOXp/GlH89i4XKZwb2MCc25k/exOVk4iuFQNkvfWA9lVw+8U+yOq2kZAvem18Ty8R6WXu7jk5caaMw1EJa78KIevKCPmRA4iwrOlyZwZrKGxZkKTkxWsVCvYbZUQs33UYaHQhihEESKVye1ZBBjF5m67NoGq2gZxbvbIXIZuB/48McekIG7o7z3Du68BainMZbLMpRfKZcxztYbhggofzznDlOBTQqGPQb6zV4Pd1ptXN3awscbW7i0voHLqxu4vtnEZr+NZtRDJ/CR26pg4aNpfPafZ3B0qYRK19bcafmlGBIc5XFYmj0cYHd7ilsr8Una75OSerrCXEXMdNBBy2tha6GHuxcDLL3YxMoxBe7VAlAr5vB0pYJny5M4V5nE4kQNcxNFzBTymMjlOOJUlZOhSanoHjaAan91YvfFY9fMbvVeykFXwF35Y2Xg/nBXTQbujvLeH3CXh6mMjwOl3Qr6k4AP0twV/FuLgrMSeOwzvxkFWAkCPOh2Gehvr23gNlE1m+u4sdXAg80QWCng6PtVHH21ivK1AopdSj9ABtUyfAl8kuIiKXJwBavtRbg/d9nuGQ/vCaOf5N4Hk4XTcertoJkx34foU2YZdL02wvkIved8rL/Yx8bJLnLTAU5MFPDYRAVn63WcrtRwtFjCZD6Paj6Hik7dSwyfzD4VIE0GU22rkYBpfnF5e3MCVXmLbCfbDNx3MJD70jQDd0cx7h7cY27winrRKpb6Lg7zapEoakYvFgZ485F/kdGqiwhNT/HyrbCPRq+LzXYXy5tbuLuyhQf3Wti8EaD7doTOqyF6SwFHrOYon3tU0flljKaXLoZ4GQ9HUcWaqTdxh77dPCPmrTTiBmK8ToOY7StRyQ2NJ0jaI2Kpzbd5CWU8HJOibQ/iCsioyTYdSvnbRuT3UF0sYvK5Guovl1A+72FiPofZqSKO1ooq4CiXR9HzmHIpRJaPuv1SFDlt0S5ymrSH15at/CxwP84dcnfjnl21nQQycN/B/Nge6uzqSYnVaf1zAO4a4FMfn1qE2EAkHYcDimKNgL4Xoe8H6BNHH0Yc+NRo9bCx2sP67S5WLrVw980trL/bQG/Dh9evINcvIx8VkGOuX04IowSxe/qAXtvocjsQ9E6aavc7ccFLu9S8wWhQjbh04faoKrncUp+hleZx0hrKX566U2w3OUYLh+Zn31dfQa6PwO8iVwoxdaqC+T+exvxX65g6lUNl0ke15KNa8FTAEdlGPV+FToRK4yaDqV1OYEDgWfXcB9Ky2cZE98bJQ+k3Lq12MimytizXaJwbSCanvUlgnBZmsy4DjX2UHq1+H4Uhl/tjDxuOP1HeCqoGD9APInR7ETpbATYf9LByvY2NG230Nj147SL8bgm5fg4+5fsY0D8jVd49vf/YSjt7urvW2e1kVmPul6q5s4Fba+baUJi8jRcR12wVT7Ea8OWqyqLmvEdvlArHtgcziYvbqWho8yGX9V4BCIohwnwAvxSheiSPqVMlTJ4ooDLhoVBUWnrej7hotQpnI3CX842yiKqNyPRXTpw77VcG3TuV2P60z8B9f+S4L3cZt88OTsmUJ5i+CMk9yiap09BozZN1UDbMAj0C+VaITitA2PMQsU9zDn7gqUyuXjgIY0p9iX3Qqg4yT7wCnG1UR7UdDl5tFNAM7jMC3Lmw8zbBOJxPy7adJCB80AOroPrISWPdZycTi+LYAtbaIwRcv4UiToF8CShUc8gXAaoPQ4HNvOlGOoyNvGepKpjNnwu4D+r67qQnWdvDIIEM3A/DKOg+jAN3ScBEYa2kvRvMoqgRCUqKQxkZZtm1UiOPqtuqYljYo0EHnByYGBw01b0/WwyJ291puyNUnCEeUqyt2yc3B5uaSOOc7R4NAfxQd8cd88ZLiuip0Av4NCfKgPJwIZrFV1XCeENUPjWcZoCAnuYPZW+U9Ly6vRONNL5bWYtHIIEM3B+B0Ec9chy4G0Mr0TKq5g59KMWw5+kEYAxEBmY4GJ0XLUWu6sATuo4XtdAIB3hwPhTg7gKaorKPkIVkNkwMnuST0yLdfjYN9pBtzg8uXR3xFBplijKlsFOz6UjOIeWYKMZctb+rI4JSziXqQb0R5fmnzSAD90MEEDvsSgbuOxTYQTZ3BXcV4RoijALWzlSgdw5eSEdt45/A5lLS3AWYuEyUWshGV9VVcg7yxQ5w71DdHkBsyltYavdI4BQAHMXJaJ5rm7vLfjrYW0e+s+LtU7l/mxbZ6XjoaxXVosKdOUaCUVxv4/Rv2uC1xMhOo9wbRX5KVtQij7wC90E66J12KGv/qCWQgfujHgHr+a7gHnhSJ1MdvRV/KgU9lKeDbfvj5cw+8qZMmgF3BWgHg7/juPD9EP44SkangBinEQ/q0W4nieH3kdvq+iyxoJ7k28mWui3vL0FDuxENi4JOdSqfv9K6VaH2galXn6R4BmlgV+9gvKY4EbQXTx6wm+5k1zxaCWTg/mjlH3u6K7iHHoWoWPoqY7ZxxeSl7Kti3frEbZ6jjY/GD8Jo+odIFI5dEWDfDrnHgb/khKBHGqJqWLcevVENAH6sM6W81jh4d3z91JOEFMmmSWFOIiZNnbmIKbvBKYLeQvVrKOnXPhjVd/9G2ZW7lUAG7ruV3AFcNxbcNZNKy5Dyzth87wAuWJW3fNdp8dreF3oxG139gMB9nKa8L/LTwL2t76BDRwacik3LjADg7Sh5Zcp4hB9Fs6iTne2uY3oV734yWtam9EzYV+aH/giHdA+PzsB9D8Lb70vHgbv9vO30UeM3M9xDe3Gbnw+GlNlv+aTfz4LT3bzGEBrv5iZxL8KH895pT9EEi34FA/CjwX14Nxqm6DJwf3QjupcnZ+C+F+ll12YSyCSQSeCQSiAD90M6MFm3MglkEsgksBcJZOC+F+ll12YSyCSQSeCQSiAD90M6MFm3MglkEsgksBcJZOC+F+ll12YSyCSQSeCQSiAD90M6MFm3MglkEsgksBcJ/G/i4sAGLml/QQAAAABJRU5ErkJggg==;" parent="1" vertex="1">
                    <mxGeometry x="30" y="160" width="201.92" height="280" as="geometry"/>
                </mxCell>
                <mxCell id="uNT7YRZdrMv-DJTIks0d-10" style="rounded=0;orthogonalLoop=1;jettySize=auto;html=1;entryX=0.604;entryY=0.05;entryDx=0;entryDy=0;entryPerimeter=0;strokeColor=#333333;edgeStyle=entityRelationEdgeStyle;" parent="1" source="uNT7YRZdrMv-DJTIks0d-3" target="uNT7YRZdrMv-DJTIks0d-1" edge="1">
                    <mxGeometry relative="1" as="geometry"/>
                </mxCell>
                <mxCell id="uNT7YRZdrMv-DJTIks0d-3" value="Camera" style="rounded=1;whiteSpace=wrap;html=1;fillColor=#dae8fc;strokeColor=#6c8ebf;" parent="1" vertex="1">
                    <mxGeometry x="260" y="185" width="100" height="30" as="geometry"/>
                </mxCell>
                <mxCell id="uNT7YRZdrMv-DJTIks0d-9" style="rounded=0;orthogonalLoop=1;jettySize=auto;html=1;entryX=0.649;entryY=0.193;entryDx=0;entryDy=0;entryPerimeter=0;elbow=vertical;strokeColor=#333333;edgeStyle=entityRelationEdgeStyle;" parent="1" source="uNT7YRZdrMv-DJTIks0d-4" target="uNT7YRZdrMv-DJTIks0d-1" edge="1">
                    <mxGeometry relative="1" as="geometry"/>
                </mxCell>
                <mxCell id="uNT7YRZdrMv-DJTIks0d-4" value="Depth Camera" style="rounded=1;whiteSpace=wrap;html=1;fillColor=#dae8fc;strokeColor=#6c8ebf;" parent="1" vertex="1">
                    <mxGeometry x="260" y="235" width="100" height="30" as="geometry"/>
                </mxCell>
                <mxCell id="uNT7YRZdrMv-DJTIks0d-11" style="rounded=0;orthogonalLoop=1;jettySize=auto;html=1;entryX=0.733;entryY=0.374;entryDx=0;entryDy=0;entryPerimeter=0;strokeColor=#333333;edgeStyle=entityRelationEdgeStyle;" parent="1" source="uNT7YRZdrMv-DJTIks0d-5" target="uNT7YRZdrMv-DJTIks0d-1" edge="1">
                    <mxGeometry relative="1" as="geometry"/>
                </mxCell>
                <mxCell id="uNT7YRZdrMv-DJTIks0d-5" value="Manipulator" style="rounded=1;whiteSpace=wrap;html=1;fillColor=#dae8fc;strokeColor=#6c8ebf;" parent="1" vertex="1">
                    <mxGeometry x="260" y="285" width="100" height="30" as="geometry"/>
                </mxCell>
                <mxCell id="uNT7YRZdrMv-DJTIks0d-12" style="rounded=0;orthogonalLoop=1;jettySize=auto;html=1;entryX=0.77;entryY=0.898;entryDx=0;entryDy=0;entryPerimeter=0;strokeColor=#333333;edgeStyle=entityRelationEdgeStyle;" parent="1" source="uNT7YRZdrMv-DJTIks0d-6" target="uNT7YRZdrMv-DJTIks0d-1" edge="1">
                    <mxGeometry relative="1" as="geometry"/>
                </mxCell>
                <mxCell id="uNT7YRZdrMv-DJTIks0d-6" value="Navigation" style="rounded=1;whiteSpace=wrap;html=1;fillColor=#dae8fc;strokeColor=#6c8ebf;" parent="1" vertex="1">
                    <mxGeometry x="260" y="385" width="100" height="30" as="geometry"/>
                </mxCell>
                <mxCell id="uNT7YRZdrMv-DJTIks0d-13" style="rounded=0;orthogonalLoop=1;jettySize=auto;html=1;entryX=0.77;entryY=0.844;entryDx=0;entryDy=0;entryPerimeter=0;strokeColor=#333333;edgeStyle=entityRelationEdgeStyle;" parent="1" source="uNT7YRZdrMv-DJTIks0d-7" target="uNT7YRZdrMv-DJTIks0d-1" edge="1">
                    <mxGeometry relative="1" as="geometry"/>
                </mxCell>
                <mxCell id="uNT7YRZdrMv-DJTIks0d-7" value="Distance Sensor" style="rounded=1;whiteSpace=wrap;html=1;fillColor=#dae8fc;strokeColor=#6c8ebf;" parent="1" vertex="1">
                    <mxGeometry x="260" y="335" width="100" height="30" as="geometry"/>
                </mxCell>
            </root>
        </mxGraphModel>
    </diagram>
</mxfile>